<svg xmlns="http://www.w3.org/2000/svg" xmlns:xlink="http://www.w3.org/1999/xlink" id="Recipe" width="30cm" height="30cm" viewBox="0 0 850.39 850.39"><defs><radialGradient id="radial-gradient" cx="524.11" cy="668.58" r="18.85" gradientUnits="userSpaceOnUse"><stop offset=".63" stop-color="#ffefd7"/><stop offset=".76" stop-color="#fdeed7"/><stop offset=".8" stop-color="#f6ecd5"/><stop offset=".83" stop-color="#ebe8d3"/><stop offset=".86" stop-color="#dae3cf"/></radialGradient><radialGradient xlink:href="#radial-gradient" id="radial-gradient-2" cx="866.39" cy="33.47" r="18.85"/><style>.cls-1{fill:#feb28a}.cls-2{fill:#fba680}.cls-3{fill:#f49972}.cls-4{fill:#f68f6d}.cls-5{fill:#ec9270}.cls-8{fill:#cf8164}.cls-11{fill:#ffefd7}.cls-13{fill:#dae3cf}.cls-16{fill:#bc5c42}.cls-17{fill:#f27e5f}.cls-18{fill:#dddfca}.cls-19{fill:#b3d1c7}.cls-22{fill:#94b699}.cls-23{fill:#7ea788}.cls-25{fill:#a8c9ad}</style></defs><path id="background" d="M0 0h850.49v850.4H0z" class="cls-1"/><g id="table"><path d="m1 851.2-.99-.22-.04-401.45 851.76 128.29.03 273.46L1 851.2z" class="cls-2"/><path d="m-.01 449.4-.06 9.46 851.8 118.96L-.01 449.4z" class="cls-3"/><path d="m-.09 501.028.151-.988 850.395 130.433-.151.988zM-.095 558.478l.152-.988 850.395 130.432-.151.989zM-.091 617.002l.151-.989 850.396 130.433-.152.988zM-.095 670.998l.151-.988 850.396 130.432-.152.989zM-.094 727.998l.151-.988 774.009 118.716-.152.988zM-.08 786.863l.152-.989 420.453 64.489-.151.988z" class="cls-4"/><path d="M823 758.81c-80.48 0-145.71 26.4-145.71 59 0 12.06 9 23.27 24.33 32.61h131.82V759c-3.44-.13-6.92-.19-10.44-.19ZM91.6 642.15s-28.43 15.33-60.8 24c-14 3.75-30.8 4.41-30.8 4.41v-26Z" class="cls-5"/><path d="M850.39 720.13q-5.92-.17-11.95-.17c-92.21 0-167 30.25-167 67.57 0 28.55 43.78 53 105.67 62.86h73.24Z" style="fill:#ffeed6"/><path d="m231 850.39 120.14-41.68a1.6 1.6 0 0 0 .14-3L76.17 680A22.86 22.86 0 0 0 62 678.37l-62 13v159Z" class="cls-5"/><path d="M355.1 810.61c.21-3.42-3.83-4.86-3.83-4.86a1.6 1.6 0 0 1-.14 3L231 850.39h52.88c28.09-9.71 57.92-20.44 67.46-23.88a4.92 4.92 0 0 0 3.26-4.44c.13-3.63.4-9.23.5-11.46Z" style="fill:#ab6c54"/><path d="M154.34 566.67a32.67 32.67 0 0 0-.25-5.31v.3c0 22.94-49 41.53-109.38 41.53A267.86 267.86 0 0 1 0 599.57v55.79a179.84 179.84 0 0 0 26.35 1.93c70.65 0 127.95-40.57 127.99-90.62Z" class="cls-5"/><path d="M50.61 639.05C20.33 631.67 3.82 612.18 0 599.57v55.79a179.84 179.84 0 0 0 26.35 1.93c24.81 0 48-5 67.57-13.66-6.92.47-13.04 2.79-43.31-4.58Z" class="cls-8"/><path d="M154.09 561.36c-.43-22.8-49.23-41.22-109.37-41.22A267.86 267.86 0 0 0 0 523.76v75.81a267.86 267.86 0 0 0 44.72 3.62c60.41 0 109.38-18.59 109.38-41.53 0-.1-.01-.2-.01-.3Z" class="cls-3"/><path d="M44.71 603.38a267.51 267.51 0 0 1-44.8-3.62l.16-1a266.65 266.65 0 0 0 44.64 3.61c60 0 108.88-18.4 108.88-41v-.3c-.11-5.73-3.24-11.74-8.59-16.47l.66-.75c5.56 4.92 8.82 11.19 8.93 17.2v.32c0 23.16-49.29 42.01-109.88 42.01Z" style="fill:#ffb389"/><path d="M83.5 779c39.06-12.51 78.32-25.1 115.15-43.08l10.85 5c-2.64 1.23-5.29 2.45-8 3.63-37.5 16.66-77.64 26.8-118 34.45Zm-46.62 21.19c31.63-6.06 63.36-12.12 95.5-14.16 17.22-1.1 34.52-1 51.68-2.86 25.91-2.76 51-9.78 75.12-19.53l-32.4-14.82a496.83 496.83 0 0 1-110.26 32.83c-26.94 4.7-54.72 7.35-79.64 18.54ZM170.7 825c26.51-5.82 52.57-13.46 78.62-21.1 13.42-3.94 26.87-7.89 39.84-13.12 5-2 9.93-4.25 14.77-6.65l-16.18-7.4c-.73.32-1.45.68-2.16 1-13.33 6.76-26.87 13.25-41.13 17.73-18.31 5.74-37.51 8.06-56.13 12.68a233.51 233.51 0 0 0-86.84 42.24h5.41a107.85 107.85 0 0 1 30-16.78c10.92-3.97 22.42-6.14 33.8-8.6Zm157.83-29.62L314 788.69c-.7.41-1.37.87-2 1.31-27.77 18.58-62.19 23.23-94.55 31.55-28.54 7.33-56.15 17.81-83.49 28.84h21.32c19.8-9.84 40.85-17.48 62-23.91 36.81-11.21 74.64-19.18 111.25-31.13Zm22.6 13.36a1.6 1.6 0 0 0 .14-3l-15.9-7.27c-2.69 1.27-5.31 2.71-7.95 4.08-45.66 23.79-99.91 27-146.64 47.83H231Zm-125.32-20a363.17 363.17 0 0 0 51.29-16.84l-8.58-3.92c-14.15 6.45-29.48 10.26-44.58 14.23C155 800.26 68.17 838.29 0 846.65v2.28c1.15.48 2.42 1 3.78 1.46H63.6c35.28-13.71 63-32.79 118.86-48.55 12.54-3.54 30.97-10.04 43.35-13.17Zm-83.21 10.71c-26.95 3.31-54.29 1.25-81.37 3.31-8.66.66-17.34 1.76-25.63 4.32-13.4 4.14-25.42 12-35.6 21.7v12c18.59-14.9 42.94-21.31 66.62-25.22 25.61-4.24 51.96-6.27 75.98-16.11ZM0 799.15v4.31a214.63 214.63 0 0 1 72.05-22.65c-24.82 2.31-49.94 7.07-72.05 18.34Zm44.18-27.81c50.24-11.13 101.82-18.29 149.49-37.66l-8.57-3.92a44.13 44.13 0 0 0-7.12 2.7 398 398 0 0 1-78.6 25.42C65.7 765 30.18 768.1 0 784.36V788a106.69 106.69 0 0 1 16.38-8.64c8.92-3.68 18.37-5.93 27.8-8.02Zm127.54-47.69c-32 11.83-66.1 16.65-99.63 23-8.77 1.67-17.53 3.45-26.13 5.87A199.92 199.92 0 0 0 0 772.25v2.47c55-25.86 120.32-23.6 175.45-49.37Zm-90.44 7.62c-14.58 5.73-28.56 13.34-43.74 17.3 20.66-5.39 41.16-9.31 60.2-12.42 23.2-3.78 46.5-7.59 68.86-14.85l-17.77-8.12a95.57 95.57 0 0 0-11 .85c-19.56 2.64-38.17 9.97-56.55 17.24Zm59.92-21.58-7.74-3.54c-.77.11-1.59.26-2.48.43C87.67 715 42.65 738.47 0 753v6.47c33.22-12.52 64.93-30.36 99.3-39.82 14.01-3.87 26.62-8.08 41.9-9.96Zm-18.57-8.49-7-3.21c-17.83 3.43-34.77 10.37-52.18 15.49C45 718.9 26 722.3 7.7 728.15c-2.59.83-5.15 1.71-7.7 2.63v17.75c17.89-8.3 35.18-17.93 53-26.39 21.24-10.07 46.12-18.81 69.63-20.94Zm-29.39-13.44c-1.21.28-2.41.63-3.56 1L0 716.91v5.82A830.9 830.9 0 0 1 98 690ZM0 710.42v3.76q23.25-9.87 47.27-17.74Q23.35 702.38 0 710.42ZM76.17 680a22 22 0 0 0-3.85-1.34C48 684 23.7 689.63 0 697.09V703a596.45 596.45 0 0 1 78.4-22Z" class="cls-8"/><g style="opacity:.68"><path d="M711.41 800.87c18.91 16.75 66.52 28.64 122.28 28.64 5.66 0 11.23-.13 16.7-.36v-6.47c-47.51 5.48-105.99-2.31-138.98-21.81ZM850.39 745.84v-5.37q-8.21-.36-16.7-.36c-72.36 0-131 20-131 44.7 2.85-32.37 104.17-43.14 147.7-38.97Z" class="cls-1"/></g></g><g id="book"><path d="m146.37 685.68-27.52 13.91 474.23 96.48 17.73-16.56 2.48-10.55-466.92-83.28z" class="cls-5"/><path d="m139.12 673.72 134.53-64.54s-19.26-16-32.11-30.18A173.57 173.57 0 0 1 221 550.43l217.05-105.32s7.91 27.12 19.26 41.42c16.06 20.23 50.5 52.29 60.37 65.82a154.14 154.14 0 0 1 17.66 32.75 111 111 0 0 1 37.56-6.74c43 0 139.35 52.34 181.42 56.19C693 688.81 606.94 760.74 606.94 760.74s-63.58-8.35-103.39-28.26c-34.82-17.41-106.28-56.48-151.23-23.76-46.56-64.54-153.8-16.72-213.2-35Z" class="cls-11"/><path d="m145.22 678.86-9.96 2.89.32 6.1 472.64 96.33L758.17 653.5l-5.46-7.39-148.66 124.26-458.83-91.51z" style="fill:#a05a3c"/><path d="M139.12 673.72c59.4 18.3 166.64-29.54 213.2 35 44.95-32.75 116.41 6.35 151.23 23.76 39.81 19.91 103.39 28.26 103.39 28.26l.53 15.84L139.76 683ZM606.94 760.74s86-71.93 147.38-126.19l.42 12.52-147.27 129.51-.53-15.84" class="cls-13"/><path d="M210.75 639.28s6.42 10.8 39.18 13.51c23.44 1.93 50.3 3.77 75.86 22 9.25 6.61 14.5 10.57 21.28 23 3.84 7 5.17 11.24 5.25 11s-1.7-5.07-3.88-10.68c-3.2-8.22-10.13-21.21-30.25-43.61-21.87-24.35-44.54-45.25-44.54-45.25Z" style="fill:#f2e3cf"/><path d="M393.09 685.28s112.06-72.56 130.37-83.8 36.44-19.87 68.07-12.84c34.67 7.7 106.6 41.74 134.85 47.52-28.9 27.61-121.69 110.45-121.69 110.45s-26.69-4.17-62.29-15.73C499.52 717 442.86 675 393.09 685.28Z" style="fill:#f6a078"/></g><g id="floating_food_elements" data-name="floating food elements"><path d="M541.18 437.13c4.33-18.87 17.06-30.37 28-27.63s16.14 19.58 11.62 37.59-15.28 30.39-26.43 28.73c-10.74-1.6-18.55-15.38-13.19-38.69Z" class="cls-13"/><ellipse cx="562.56" cy="443.22" class="cls-11" rx="33.62" ry="19.13" transform="rotate(-75.9 562.506 443.215)"/><path d="M576.33 446c-4.05 16.1-14.3 27.41-22.9 25.24a8.73 8.73 0 0 1-2.26-.92 10.23 10.23 0 0 0 4.06 2.09c9.17 2.3 19.88-8.88 23.92-25 3.79-15.09.39-29.14-7.6-32.75 6.05 4.79 8.23 17.57 4.78 31.34Z" class="cls-13"/><path d="M546 439.05c-3.38 13.47-1 26.12 5.21 31.23a8.73 8.73 0 0 0 2.26.92c8.6 2.17 18.85-9.14 22.9-25.24 3.45-13.73 1.27-26.51-4.78-31.32a10.29 10.29 0 0 0-1.67-.58c-9.2-2.3-19.92 8.88-23.92 24.99Z" class="cls-1"/><path d="M727.87 187.71c-13.35-13.74-15.31-29.81-6.27-36.66s26.5-1.52 39 11.88 16.4 28.45 8.17 36.07c-7.93 7.31-24.41 5.68-40.9-11.29Z" class="cls-13"/><ellipse cx="746.14" cy="174.73" class="cls-11" rx="19.08" ry="33.27" transform="rotate(-45.92 746.123 174.734)"/><path d="M756.91 165.72c11.18 12 14.48 26.06 7.38 31.44a9.62 9.62 0 0 1-2.17 1.22 11.38 11.38 0 0 0 4.26-1.95c7.57-5.74 4.65-20.1-6.53-32.08-10.48-11.23-24.48-16.39-32.43-12.27 7.78-1.97 19.96 3.42 29.49 13.64Z" class="cls-13"/><path d="M732.43 185.11c9.36 10 21.53 15.21 29.69 13.27a9.62 9.62 0 0 0 2.17-1.22c7.1-5.38 3.8-19.46-7.38-31.44-9.53-10.22-21.71-15.61-29.49-13.64a9.93 9.93 0 0 0-1.52.95c-7.57 5.73-4.65 20.1 6.53 32.08Z" class="cls-1"/><path d="M726.54 379.68c0 3.37-18.24 6.1-39.9 6.1s-39.22-2.73-39.22-6.1c0-.62-.35-4.35-.35-4.35s21.88-1.75 39.57-1.75c18.46 0 40.28 1.75 40.28 1.75s-.38 3.85-.38 4.35Z" class="cls-16"/><ellipse cx="686.99" cy="375.33" class="cls-17" rx="39.92" ry="6.1"/><path d="M798.79 218.91c-1.59-3 13.21-14 32.31-24.19s35.89-16.07 37.47-13.1c.29.54 2.36 3.68 2.36 3.68s-18.48 11.85-34.07 20.19c-16.29 8.7-36.35 17.44-36.35 17.44s-1.51-3.58-1.72-4.02Z" class="cls-16"/><ellipse cx="835.72" cy="204.11" class="cls-17" rx="39.92" ry="6.1" transform="rotate(-28.12 835.754 204.109)"/><path d="M567.45 519.07c3.71-.47 9.26 19.21 12.29 43s2.47 43.54-1.23 44c-.68.09-4.75 1-4.75 1s-5-23.84-7.45-43.3c-2.58-20.31-3.71-44.55-3.71-44.55s4.3-.08 4.85-.15Z" class="cls-16"/><ellipse cx="568.18" cy="563.19" class="cls-17" rx="6.77" ry="44.28" transform="rotate(-7.24 568.138 563.137)"/><path d="M698.39 554c4.76 3.8-4.14 22.3-19.3 40.59s-31.32 30-36.09 26.2c-.88-.7-4.87-3.44-4.87-3.44S651 596.89 663.36 582c12.93-15.64 30.64-32.1 30.64-32.1s3.68 3.49 4.39 4.1Z" class="cls-16"/><ellipse cx="666.08" cy="583.63" class="cls-17" rx="43.8" ry="11.04" transform="rotate(-50.29 666.006 583.609)"/><path d="M650.88 592.3a2.23 2.23 0 0 1 .2-1.61c1.61-4.08 4.26-7.66 7-11.11 6.47-8.22 13.58-16 22-22.23a33.16 33.16 0 0 1 6.57-3.31c4.09-1.53 6.5 1.92 2 7.32-3.14 3.71-7.26 6.47-11 9.54-.57.46-1.5.89-1.93.3s0-1.09.36-1.52c1.46-1.72 3.51-2.91 4.78-4.78a3 3 0 0 0 .63-1.72 1.48 1.48 0 0 0-1-1.44 2.16 2.16 0 0 0-1.57.4 47.51 47.51 0 0 0-6.7 4.87c-4.17 3.42-8.41 6.92-11.3 11.48a2.83 2.83 0 0 0-.53 1.38 1 1 0 0 0 .85 1 2.19 2.19 0 0 0 1-.37c.32-.14.76-.17.94.12a.88.88 0 0 1-.09.81 25.61 25.61 0 0 1-5.23 7.24c-.86.83-6.2 5.77-6.98 3.63Z" class="cls-16"/><path d="M641.09 610.77a3.27 3.27 0 0 0-.08 1.55 2.24 2.24 0 0 0 2 1.45 5.59 5.59 0 0 0 2.55-.6 38.5 38.5 0 0 0 9.86-6.76c3.79-3.36 7.33-7 10.86-10.61s6.84-7 10.19-10.58 5.54-7.1 8.31-11.27c1.51-2.29 4.66-7.79 3.53-8.59s-5.78 6.1-15.82 13.79c-.78.6-1.48 1.74-.91 2.54.29.4.8.55 1.15.9.83.82.3 2.23-.32 3.22-2.53 4-6 7.23-9.55 10.35a52.82 52.82 0 0 1-10.86 7.92 5.64 5.64 0 0 1-2.27.72 2.21 2.21 0 0 1-2-1 2.92 2.92 0 0 1 .18-2.52c1.81-3.79 4.21-5.19 3.94-5.8-.81-.59-1.93 0-2.71.65a24.05 24.05 0 0 0-5.18 7 30.21 30.21 0 0 0-2.87 7.64ZM607.07 451.47c-4.72 3.86-20.93-8.73-35.65-27.39s-22.81-36.92-18.09-40.78c.87-.71 4.38-4 4.38-4S575 396.11 587 411.35c12.54 15.91 24.91 36.7 24.91 36.7s-4.14 2.85-4.84 3.42Z" class="cls-16"/><ellipse cx="584.83" cy="413.66" class="cls-17" rx="11.04" ry="43.8" transform="rotate(-38.18 584.804 413.657)"/><path d="M579.54 397a2.34 2.34 0 0 1 1.53.53 45.53 45.53 0 0 1 9.39 9.16c6.68 8.06 12.85 16.65 17.12 26.2a33.22 33.22 0 0 1 1.86 7.11c.64 4.32-3.24 5.95-7.56.37-3-3.84-4.81-8.45-7-12.77-.33-.65-.56-1.65.11-1.95.52-.23 1.07.23 1.41.67 1.38 1.79 2.11 4 3.67 5.68a3.2 3.2 0 0 0 1.55 1 1.49 1.49 0 0 0 1.61-.66 2.22 2.22 0 0 0-.05-1.62 48.31 48.31 0 0 0-3.36-7.58c-2.47-4.79-5-9.67-8.86-13.45a2.74 2.74 0 0 0-1.24-.81 1 1 0 0 0-1.2.61 2.28 2.28 0 0 0 .16 1c.07.34 0 .78-.32.89s-.54-.08-.77-.26a25.57 25.57 0 0 1-6-6.63c-.59-.98-4.31-7.2-2.05-7.49ZM563.53 383.52a3.35 3.35 0 0 0-1.5-.39 2.22 2.22 0 0 0-1.84 1.67 5.54 5.54 0 0 0 0 2.62 38.31 38.31 0 0 0 4.54 11.05c2.49 4.41 5.3 8.63 8.1 12.85s5.42 8.16 8.21 12.18 5.77 6.91 9.28 10.49c1.91 2 6.63 6.18 7.65 5.25s-4.75-6.93-10.17-18.36c-.42-.89-1.38-1.81-2.29-1.42-.45.19-.71.67-1.12.93-1 .64-2.25-.17-3.08-1-3.36-3.3-5.8-7.4-8.11-11.51a52 52 0 0 1-5.47-12.27 5.68 5.68 0 0 1-.23-2.38 2.19 2.19 0 0 1 1.43-1.77 2.86 2.86 0 0 1 2.42.7c3.33 2.56 4.19 5.21 4.85 5.07.74-.67.39-1.89-.07-2.79a23.91 23.91 0 0 0-5.74-6.52 29.91 29.91 0 0 0-6.86-4.4ZM801.23-3.61c4.88 3.65-3.41 22.42-18 41.21S753 68.66 748.06 65c-.89-.67-5-3.28-5-3.28s12.17-20.86 24-36.2c12.4-16 29.59-33 29.59-33s3.85 3.33 4.58 3.87Z" class="cls-16"/><ellipse cx="769.91" cy="27.11" class="cls-17" rx="43.8" ry="11.04" transform="rotate(-52.16 769.946 27.093)"/><path d="M755 36.28a2.4 2.4 0 0 1 .15-1.62c1.48-4.13 4-7.79 6.61-11.33C768 14.91 774.81 6.85 783 .39a33.31 33.31 0 0 1 6.45-3.52c4-1.66 6.56 1.71 2.19 7.25-3 3.81-7 6.7-10.7 9.89-.55.49-1.46.94-1.91.37s0-1.09.31-1.53c1.4-1.77 3.41-3 4.62-4.94a3.06 3.06 0 0 0 .57-1.74 1.47 1.47 0 0 0-1-1.4 2.22 2.22 0 0 0-1.57.44 48.51 48.51 0 0 0-6.53 5.09c-4.06 3.56-8.18 7.2-10.91 11.85a2.69 2.69 0 0 0-.49 1.4 1 1 0 0 0 .88 1 2.33 2.33 0 0 0 1-.4c.31-.16.75-.2.94.09s0 .55-.06.81a25.79 25.79 0 0 1-5 7.4c-.79.83-5.94 5.94-6.79 3.83Z" class="cls-16"/><path d="M745.82 55.06a3.25 3.25 0 0 0 0 1.55 2.24 2.24 0 0 0 2.04 1.39 5.45 5.45 0 0 0 2.53-.68 38.5 38.5 0 0 0 9.61-7.09c3.67-3.48 7.09-7.22 10.51-11s6.61-7.23 9.84-10.91 5.3-7.27 7.93-11.54c1.44-2.33 4.4-7.93 3.25-8.7s-5.53 6.33-15.34 14.35c-.76.62-1.43 1.78-.83 2.57.3.39.82.52 1.18.85.86.8.38 2.23-.22 3.24-2.39 4.06-5.78 7.42-9.2 10.65a52.18 52.18 0 0 1-10.6 8.26 5.74 5.74 0 0 1-2.25.8 2.19 2.19 0 0 1-2.06-1 2.88 2.88 0 0 1 .09-2.51c1.68-3.86 4.05-5.33 3.75-5.94-.83-.56-1.93.08-2.69.74a24.26 24.26 0 0 0-4.94 7.14 29.7 29.7 0 0 0-2.6 7.83Z" class="cls-16"/><circle cx="663.13" cy="471.76" r="15.09" class="cls-17"/><circle cx="545.4" cy="629.31" r="15.09" class="cls-17"/><circle cx="744.68" cy="287.46" r="15.09" class="cls-17"/><circle cx="850" cy="356.17" r="15.09" class="cls-17"/><path d="M763.57 536.13c10.33 16.38 9.52 33.52-.14 39.34s-25.26-2.34-34.85-18.24-10.8-32.26-1.75-39c8.7-6.49 23.98-2.33 36.74 17.9Z" class="cls-13"/><ellipse cx="744.18" cy="547.01" class="cls-11" rx="19.13" ry="33.62" transform="rotate(-31.08 744.275 547.044)"/><path d="M732.53 554.85c-8.57-14.22-9.36-29.46-1.77-34a8.75 8.75 0 0 1 2.25-.95 10.34 10.34 0 0 0-4.35 1.41c-8.09 4.88-7.7 20.36.87 34.58 8 13.32 20.4 20.81 28.58 17.68-7.67.86-18.27-6.57-25.58-18.72Z" class="cls-13"/><path d="M758.68 538.34c-7.18-11.9-17.81-19.14-25.83-18.32a8.75 8.75 0 0 0-2.25 1c-7.6 4.58-6.8 19.82 1.77 34a55.72 55.72 0 0 0 3.67 5.34c9.56 1.47 19.11 3.36 28.67 5 1.84-7.08-.2-17.36-6.03-27.02Z" class="cls-1"/><path d="M737 561.21c6.75 8.28 14.89 13 21.1 12.32a9.7 9.7 0 0 0 1.59-.77 11.35 11.35 0 0 0 5.08-7.3Z" class="cls-2"/><path d="M796.14 440.5c-18.89 12.84-39.12 12.57-46.37 1.41s1.75-29.87 20.11-41.8 37.59-14 45.9-3.63c8 10 3.7 28.17-19.64 44.02Zm16.75-39.29c-5.7-8.76-23.63-7.22-40 3.45s-25.11 26.43-19.41 35.2 23.63 7.23 40.05-3.45 25.05-26.41 19.36-35.2Z" class="cls-13"/><path d="M794.84 437c-18.36 11.93-38.75 13.13-45.54 2.68s2.58-28.59 20.94-40.53S809 386 815.78 396.48s-2.58 28.59-20.94 40.52Z" class="cls-11"/><path d="M792.51 433.42c-14.88 9.67-31.4 10.64-36.91 2.18s2.09-23.18 17-32.85 31.4-10.64 36.91-2.18-2.13 23.18-17 32.85Z" class="cls-13"/><path d="M791.87 432.43c-13.93 9.05-29.39 10-34.54 2s2-21.68 15.88-30.73 29.39-10 34.54-2-1.96 21.68-15.88 30.73Z" class="cls-11"/><path d="M789.5 428.8c-10.39 6.75-21.93 7.43-25.78 1.52s1.46-16.19 11.86-22.95 21.93-7.43 25.78-1.52S799.9 422 789.5 428.8Z" class="cls-13"/><path d="M788.75 427.63c-9.27 6-19.56 6.63-23 1.36s1.3-14.43 10.56-20.45 19.55-6.63 23-1.36-1.31 14.43-10.56 20.45Z" class="cls-11"/><path d="M786.28 423.84c-5.58 3.62-11.78 4-13.84.81s.78-8.69 6.36-12.32 11.78-4 13.84-.81-.78 8.69-6.36 12.32Z" class="cls-13"/><path d="M836.67 448.48s-5 7.55-4 12.68 7.22 10.12 7.22 10.12 4.5-7.87 3.38-12.84-6.6-9.96-6.6-9.96ZM660.79 530.5s-8.06-4.1-13-2.56-9.23 8.32-9.23 8.32 8.32 3.58 13.14 1.9 9.09-7.66 9.09-7.66ZM684.66 252.07s-8.1 4-9.87 8.92 1.13 12.37 1.13 12.37 7.86-4.52 9.4-9.38-.66-11.91-.66-11.91ZM840.26 144.85s-4.14-8-9.1-9.71-12.35 1.34-12.35 1.34 4.66 7.78 9.55 9.23 11.9-.86 11.9-.86Z" class="cls-11"/><path d="m583.38 710.14-.18.13a.64.64 0 0 1-.89-.17l-6.89-9.94a.64.64 0 0 1 .17-.89l.18-.12a.64.64 0 0 1 .89.16l6.89 9.94a.64.64 0 0 1-.17.89ZM753.6 503.66h-.22a.64.64 0 0 1-.67-.6l-1.33-16.55a.65.65 0 0 1 .61-.67h.22a.64.64 0 0 1 .67.61l1.33 16.55a.64.64 0 0 1-.61.66ZM681.33 425.74h-.22a.64.64 0 0 1-.64-.64l-.23-14.29a.64.64 0 0 1 .64-.64h.22a.64.64 0 0 1 .64.63l.22 14.29a.64.64 0 0 1-.63.65ZM736.17 361.51l-.08.2a.63.63 0 0 1-.81.39l-13.49-4.72a.64.64 0 0 1-.39-.82l.08-.21a.63.63 0 0 1 .81-.38l13.49 4.72a.63.63 0 0 1 .39.82ZM836.63 417.41v.22a.64.64 0 0 1-.61.67l-9.57.57a.65.65 0 0 1-.67-.61V418a.65.65 0 0 1 .61-.67l9.57-.57a.65.65 0 0 1 .67.65ZM670.1 302.54v.22a.64.64 0 0 1-.49.75l-11.7 3a.64.64 0 0 1-.75-.49l-.05-.22a.65.65 0 0 1 .49-.76l11.7-2.95a.62.62 0 0 1 .8.45Z" class="cls-18"/><rect width="1.5" height="13.38" x="809.33" y="130.55" class="cls-19" rx=".64" transform="rotate(-6.02 809.47 137.152)"/><path d="m630 512.09-.2.1a.64.64 0 0 1-.85-.29l-3.86-8.25a.65.65 0 0 1 .29-.85l.2-.1a.66.66 0 0 1 .86.29l3.85 8.24a.65.65 0 0 1-.29.86ZM673.59 651.42l-.08-.21a.65.65 0 0 1 .38-.82l11.35-4.19a.64.64 0 0 1 .82.38l.07.21a.62.62 0 0 1-.38.81l-11.34 4.2a.64.64 0 0 1-.82-.38ZM607.7 631.43h-.22a.64.64 0 0 1-.67-.61l-.6-12.08a.64.64 0 0 1 .6-.67h.19a.64.64 0 0 1 .66.61l.61 12.08a.63.63 0 0 1-.57.67ZM718.15 559.21l-.09-.2a.64.64 0 0 1 .31-.85l15.63-7.35a.64.64 0 0 1 .85.31l.09.2a.64.64 0 0 1-.31.85L719 559.52a.64.64 0 0 1-.85-.31Z" class="cls-19"/><rect width="1.5" height="13.38" x="827.65" y="47.67" class="cls-19" rx=".64" transform="rotate(-45.16 828.368 54.368)"/><path d="m728.41 126.16-.11-.19a.64.64 0 0 1 .25-.87l12.72-7.1a.65.65 0 0 1 .87.24l.11.2a.65.65 0 0 1-.24.87l-12.73 7.08a.63.63 0 0 1-.87-.23ZM693 225.55l-.12-.19a.64.64 0 0 1 .18-.88l13.17-9a.65.65 0 0 1 .89.18l.12.19a.64.64 0 0 1-.18.88l-13.17 9a.65.65 0 0 1-.89-.18Z" class="cls-19"/><circle cx="524.26" cy="668.42" r="36.76" class="cls-11"/><circle cx="524.26" cy="668.42" r="31.23" class="cls-13"/><circle cx="524.26" cy="668.42" r="29.33" class="cls-11"/><circle cx="524.26" cy="668.42" r="24.34" class="cls-13"/><circle cx="524.26" cy="668.42" r="22.47" class="cls-11"/><circle cx="524.26" cy="668.42" r="16.15" style="fill:url(#radial-gradient)"/><circle cx="524.26" cy="668.42" r="16.15" class="cls-13"/><circle cx="524.26" cy="668.42" r="14.58" class="cls-11"/><circle cx="524.26" cy="668.42" r="12.19" class="cls-13"/><ellipse cx="524.26" cy="666.89" class="cls-11" rx="11.91" ry="11.36"/><path d="M538.59 661a8 8 0 0 1-2.59 4c-7 6-17 8-23-1-.63-1.89-1.66-3.79-1.32-5.68a16.05 16.05 0 0 0-3.57 10.1 15.79 15.79 0 0 0 .15 2.08c1.36-2.77 5.62-2.93 8-1.33 11.34 6.54 17.71-3.72 24.06.48 0-.4.06-.81.06-1.23a16.1 16.1 0 0 0-1.79-7.42Z" class="cls-13"/><ellipse cx="525.06" cy="660.56" class="cls-13" rx="3.76" ry="4.98" transform="rotate(-87.55 525.049 660.558)"/><circle cx="866.53" cy="33.32" r="36.76" class="cls-11"/><circle cx="866.53" cy="33.32" r="31.23" class="cls-13"/><circle cx="866.53" cy="33.32" r="29.33" class="cls-11"/><circle cx="866.53" cy="33.32" r="24.34" class="cls-13"/><circle cx="866.53" cy="33.32" r="22.47" class="cls-11"/><circle cx="866.53" cy="33.32" r="16.15" style="fill:url(#radial-gradient-2)"/><circle cx="866.53" cy="33.32" r="16.15" class="cls-13"/><path d="M880.87 25.91a7.93 7.93 0 0 1-2.59 4c-7 6-17 8-23-1-.63-1.89-1.66-3.78-1.33-5.68a16.11 16.11 0 0 0-3.56 10.11 15.91 15.91 0 0 0 .15 2.08c1.35-2.78 5.61-2.94 8-1.33 11.34 6.53 17.71-3.73 24.06.48 0-.41.06-.82.06-1.23a16 16 0 0 0-1.79-7.43ZM749.74 330.68c-.26.17-.53.33-.8.47a1.64 1.64 0 0 0 .8-.47Z" class="cls-13"/><path d="M525.53 535.19a14.47 14.47 0 0 0-4.63-9.26 4.67 4.67 0 0 1-1.15-1.28 5.27 5.27 0 0 1-.36-1.58c-.59-3.64-3.72-6.46-7.16-7.78a3.44 3.44 0 0 1-1.23-.64 3 3 0 0 1-.7-1.27 22 22 0 0 0-2.06-4.59c-2.64-4-7.89-5.76-12.67-5.21a8.91 8.91 0 0 0-4.72 1.74c-1.46 1.21-2.36 3.14-4.12 3.85-.36.15-.75.23-1.12.36a5.53 5.53 0 0 0-.71 10.18 4.5 4.5 0 0 0 1.56 5.56c1 .64 2.27.9 3 1.81a8.36 8.36 0 0 1 1.08 2.9 6.21 6.21 0 0 0 1 1.89c.56 3.61 1.23 8.38 1.46 12.13.43 7-.35 26.71-.35 26.71l5.18 1.81a99.52 99.52 0 0 1 3.73-12.78 107.53 107.53 0 0 1 6.6-12.21 11.9 11.9 0 0 0 3.19.53 15 15 0 0 0 10.88-4 10.1 10.1 0 0 0 3.24-8.88Z" class="cls-22"/><path d="m496.27 544.33-1.4-10.17a6.24 6.24 0 0 0 1 .23 12.9 12.9 0 0 0 4.36-.46h.27c-2.06 4.28-4.23 10.4-4.23 10.4ZM499.05 555.67a18.91 18.91 0 0 1 .11-9.52 55.47 55.47 0 0 1 2.67-7.45 11.09 11.09 0 0 0 2.54 6.25Z" class="cls-11"/><path d="M739.6 312.74a2.38 2.38 0 0 1-.07-2.17 1.64 1.64 0 0 1 2.27-.13 5.35 5.35 0 0 1 1.4 2.11c2.37 5.1 6.13 9.66 7.15 15.18a4.35 4.35 0 0 1 0 2.06 1.84 1.84 0 0 1-1.42 1.36c-1.11.14-2.84-2.27-3.35-3.26-2.79-5.33-3.98-9.47-5.98-15.15Z" class="cls-23"/><path d="M739.53 310.57a1.15 1.15 0 0 1 .33-.27c-.18.07-.31.16-.33.27Z" class="cls-13"/><path d="M830.23 292.07a11.56 11.56 0 0 0-5-7.73 8.92 8.92 0 0 0 2.58-7.7 12.93 12.93 0 0 0-3.91-7.32 6.31 6.31 0 0 1-1.11-1.26 6.1 6.1 0 0 1-.56-2.36c-.65-5.19-3.94-10.2-8.84-12-1.08-.41-2.22-.66-3.29-1.09a29.89 29.89 0 0 0-3.69-1.58 6.91 6.91 0 0 0-3.41 0v-.06a7.46 7.46 0 0 0-5.12-3 11.58 11.58 0 0 0-6 .88 13.21 13.21 0 0 0-17.85-5 18.29 18.29 0 0 1-2.39 1.28c-.67.26-1.38.38-2.06.6a7.16 7.16 0 0 0-4.14 3.39 6 6 0 0 0-.15 5.29 5 5 0 0 0-2.91 4.68 5 5 0 0 0-5.74 7.56 5.39 5.39 0 0 0 1.68 10.5 5 5 0 0 0 1.78 7.55c-.39 1.82-2.49 9.77-10.85 18.87-3.35 3.66-8.11 5.92-9.42 6.79a2.25 2.25 0 0 1 1.94.14 5.35 5.35 0 0 1 1.4 2.11l7.15 15.18a4.35 4.35 0 0 1 0 2.06 2.16 2.16 0 0 1-.62.89c3.42-2.3 6.35-7.94 18.27-14a36.55 36.55 0 0 1 23.2-3.15 5.23 5.23 0 0 0 4.51 2.79c.85 5.26 6.22 9.25 11.53 8.88a12.49 12.49 0 0 0 10.92-10.05 11.71 11.71 0 0 0 8.33-10.6 6.35 6.35 0 0 1 .17-1.74 6.43 6.43 0 0 1 1.27-1.87 11.54 11.54 0 0 0 2.33-8.93Zm-66.07-1L766 285l.35-.09a8.64 8.64 0 0 0 5.13-3.85c.2.3.42.59.63.86l.15.2c-2.91 3.32-8.18 9.21-8.1 8.98Z" class="cls-22"/><path d="M757.35 292a51 51 0 0 1-8.07 11.48c-3.35 3.66-8.11 5.92-9.42 6.79a2.25 2.25 0 0 1 1.94.14 5.35 5.35 0 0 1 1.4 2.11l7.15 15.18a4.35 4.35 0 0 1 0 2.06 2.16 2.16 0 0 1-.62.89c3.42-2.3 6.35-7.94 18.27-14a35.16 35.16 0 0 1 12.34-3.61A38.17 38.17 0 0 0 778 303c-2.44-8.93-11.46-12.59-20.65-11Z" style="fill:#c9d3ba"/><path d="M830.23 292.07a11.56 11.56 0 0 0-5-7.73 8.92 8.92 0 0 0 2.58-7.7 12.93 12.93 0 0 0-3.91-7.32 6.31 6.31 0 0 1-1.11-1.26 6.1 6.1 0 0 1-.56-2.36c-.65-5.19-3.94-10.2-8.84-12-1.08-.41-2.22-.66-3.29-1.09a29.89 29.89 0 0 0-3.69-1.58 6.91 6.91 0 0 0-3.41 0v-.06a7.46 7.46 0 0 0-5.12-3 11.58 11.58 0 0 0-6 .88 13.21 13.21 0 0 0-17.85-5 18.29 18.29 0 0 1-2.39 1.28c-.67.26-1.38.38-2.06.6a7.16 7.16 0 0 0-4.14 3.39 6 6 0 0 0-.15 5.29 5 5 0 0 0-2.91 4.68 5 5 0 0 0-5.74 7.56 5.39 5.39 0 0 0 1.68 10.5 5 5 0 0 0 1.78 7.55 32.6 32.6 0 0 1-2.78 7.39c9.19-1.62 18.21 2 20.65 11a38.17 38.17 0 0 1 2.35 10.07 37.47 37.47 0 0 1 10.86.46 5.23 5.23 0 0 0 4.51 2.79c.85 5.26 6.22 9.25 11.53 8.88a12.49 12.49 0 0 0 10.92-10.05 11.71 11.71 0 0 0 8.33-10.6 6.35 6.35 0 0 1 .17-1.74 6.43 6.43 0 0 1 1.26-1.9 11.54 11.54 0 0 0 2.33-8.93Z" class="cls-22"/><path d="M764.16 291.1 766 285l.35-.09a8.64 8.64 0 0 0 5.13-3.85c.2.3.42.59.63.86l.15.2c-2.91 3.32-8.18 9.21-8.1 8.98Z" class="cls-1"/><path d="M812.22 271.74a11.12 11.12 0 0 1-.06 1.16 10.12 10.12 0 0 0 .91-4.18c0-5.91-5.13-10.7-11.46-10.7a11.65 11.65 0 0 0-9.54 4.79 12.83 12.83 0 0 1 7.81-2.61c6.82 0 12.34 5.17 12.34 11.54Z" class="cls-25"/><path d="M735.8 161.51c-.69-22.83 10.38-39.76 23.69-39.89S783.76 139.12 784 161s-8.34 39.25-21.56 40.68c-12.75 1.41-25.79-11.97-26.64-40.17Zm24.2 35.21c10.46-.11 18.77-16.07 18.58-35.65s-8.84-35.36-19.3-35.26-18.77 16.07-18.57 35.65 8.8 35.37 19.29 35.26Z" class="cls-13"/><path d="M739.45 162.29c-.22-21.9 9.7-39.75 22.16-39.88s22.75 17.52 23 39.42-9.7 39.75-22.16 39.87-22.78-17.52-23-39.41Z" class="cls-11"/><path d="M743.73 162.24c-.18-17.74 7.86-32.21 18-32.31s18.43 14.2 18.61 31.94-7.86 32.21-18 32.32-18.43-14.19-18.61-31.95Z" class="cls-13"/><path d="M744.9 162.23c-.17-16.6 7.36-30.14 16.81-30.24s17.25 13.29 17.42 29.9-7.36 30.14-16.81 30.23-17.25-13.28-17.42-29.89Z" class="cls-11"/><path d="M749.24 162.19c-.13-12.4 5.49-22.5 12.55-22.58s12.87 9.92 13 22.32-5.49 22.5-12.55 22.57-12.88-9.92-13-22.31Z" class="cls-13"/><path d="M750.63 162.17c-.11-11 4.89-20 11.18-20.11s11.48 8.84 11.59 19.88-4.9 20.06-11.18 20.12-11.48-8.84-11.59-19.89Z" class="cls-11"/><path d="M755.15 162.13c-.06-6.66 3-12.08 6.74-12.12s6.92 5.32 7 12-3 12.08-6.73 12.12-6.94-5.35-7.01-12Z" class="cls-13"/><path d="M774.62 251.54c6.71-2.23 14 .46 16.4 6a8.35 8.35 0 0 1 .42 1.25 8.38 8.38 0 0 0-.6-4.28c-2.19-5.15-9-7.65-15.22-5.58a11.47 11.47 0 0 0-7.62 7.29 13.26 13.26 0 0 1 6.62-4.68ZM797.09 273.9a8.26 8.26 0 0 1-.06 1 9.3 9.3 0 0 0 .82-3.83c0-5.5-4.77-10-10.65-10a10.83 10.83 0 0 0-8.92 4.52 11.93 11.93 0 0 1 7.32-2.46c6.4.04 11.49 4.87 11.49 10.77Z" class="cls-25"/><ellipse cx="808.3" cy="313.04" class="cls-25" rx="10.66" ry="9.96" transform="rotate(-84.51 808.312 313.045)"/><ellipse cx="805.94" cy="310.94" class="cls-22" rx="11.48" ry="10.73" transform="rotate(-84 807.092 307.053)"/><path d="M799.77 274.58a11 11 0 0 0-8.67 1.74 12 12 0 0 1 6.47-.39c6.2 1.32 10.23 7.09 9 12.88a9.67 9.67 0 0 1-.69 2.09 9.28 9.28 0 0 0 2.24-4.37c1.14-5.38-2.6-10.73-8.35-11.95ZM818.25 286.43c3.34 6.22 1.94 13.92-3.12 17.18a8.29 8.29 0 0 1-1.17.63 8.36 8.36 0 0 0 4.12-1.33c4.7-3 6-10.17 2.9-15.94a11.48 11.48 0 0 0-8.49-6.26 13.33 13.33 0 0 1 5.76 5.72ZM497 512a10 10 0 0 0-7.08 3.86 11 11 0 0 1 5.53-2.09c5.77-.53 10.84 3.41 11.33 8.8a9 9 0 0 1 0 2 8.7 8.7 0 0 0 .77-4.42c-.55-4.97-5.24-8.62-10.55-8.15Z" class="cls-25"/><path d="M511.56 519.65c-3 .61-3.69 1.27-4.57 2.37a9.74 9.74 0 0 1 3.08-.58 8.52 8.52 0 0 1 9.85 8.3 9.94 9.94 0 0 1-.13 2 9.52 9.52 0 0 0 .91-4.36c-.18-4.94-4.32-8.69-9.14-7.73Z" class="cls-25"/><path d="M516.07 530.22a9.82 9.82 0 0 0-6.59 4 10.39 10.39 0 0 1 5.1-2.24 8.52 8.52 0 0 1 9.85 8.3 10 10 0 0 1-.13 2 9.44 9.44 0 0 0 .91-4.36 7.91 7.91 0 0 0-9.14-7.7Z" class="cls-25"/><path d="M640.34 731.5ZM640.33 731.5l-.43-.13ZM657.09 685.26a10.39 10.39 0 0 1 4.82-7.27c-.1-.2-.2-.4-.31-.6-3-5.23-10.63-7-17-4a13.36 13.36 0 0 0-6 5.47 11.49 11.49 0 0 1 6.68-8.17c5.92-2.81 13-1.15 15.78 3.69a8.36 8.36 0 0 1 1.08 3.47 10.74 10.74 0 0 1 1.47-.76 11.13 11.13 0 0 1 15.93 2.2l.32-.3a12.56 12.56 0 0 0-6.57-4.09 11.7 11.7 0 0 0-10.17-8.84 6.31 6.31 0 0 1-1.73-.27 6 6 0 0 1-1.78-1.31 11.42 11.42 0 0 0-16.74 1.8 8.89 8.89 0 0 0-7.56-2.95 12.85 12.85 0 0 0-7.51 3.53 6 6 0 0 1-1.31 1 6.22 6.22 0 0 1-2.39.44c-5.22.39-10.38 3.43-12.45 8.23-.46 1.06-.77 2.18-1.25 3.23a29.28 29.28 0 0 0-1.77 3.6 6.92 6.92 0 0 0-.13 3.41h-.07a7.46 7.46 0 0 0-3.27 5 11.64 11.64 0 0 0 .58 6 13.21 13.21 0 0 0-5.92 17.57 20.3 20.3 0 0 1 1.16 2.45c.22.68.31 1.4.49 2.09a7.21 7.21 0 0 0 3.18 4.31 6 6 0 0 0 5.28.41 5 5 0 0 0 4.52 3.14 5.1 5.1 0 0 0 1.4 5.71 4.87 4.87 0 0 0 2.32 1.05c10.76-9.64 26.77-24 43.51-39.11a10.66 10.66 0 0 1-4.59-10.13Zm-42.71 13.9c-5.66 2.07-8.71 9.27-6.82 16.08a13.27 13.27 0 0 0 4.36 6.85 11.49 11.49 0 0 1-6.91-8c-1.75-6.32 1.09-13 6.34-14.92a8.3 8.3 0 0 1 4.31-.39 9.71 9.71 0 0 0-1.28.38Zm32-14c-5.72-1.52-11.69 2.21-13.32 8.34a12.06 12.06 0 0 0 .07 6.48 10.73 10.73 0 0 1-1.67-6l-.45-.05c-5.92-.3-11 4.6-11.29 10.93a11.92 11.92 0 0 0 2.1 7.44 10.82 10.82 0 0 1-4.07-9.13 11.21 11.21 0 0 1 1.54-5.14 11.68 11.68 0 0 1-3.91-9.41c.32-6.32 5.36-11.2 11.26-10.91a10.11 10.11 0 0 1 4.13 1.12 10.84 10.84 0 0 0-1.16-.12c-6.36-.32-11.79 4.94-12.13 11.75a12.86 12.86 0 0 0 1.89 7.43 9.87 9.87 0 0 1 8.86-4.87 9.48 9.48 0 0 1 3.23.76 10.79 10.79 0 0 1 .37-2.49c1.51-5.69 7-9.15 12.36-7.74a9.49 9.49 0 0 1 4.25 2.45 10.21 10.21 0 0 0-2.06-.8Z" class="cls-22"/><path d="M617.48 690.45c.34-6.81 5.77-12.07 12.13-11.75a10.84 10.84 0 0 1 1.16.12 10.11 10.11 0 0 0-4.13-1.12c-5.9-.29-10.94 4.59-11.26 10.91a11.68 11.68 0 0 0 3.91 9.41s.06-.09.08-.14a12.86 12.86 0 0 1-1.89-7.43ZM611.35 699.2c-5.25 1.92-8.09 8.6-6.34 14.92a11.49 11.49 0 0 0 6.91 8 13.27 13.27 0 0 1-4.36-6.85c-1.89-6.81 1.16-14 6.82-16.08a9.71 9.71 0 0 1 1.28-.35 8.3 8.3 0 0 0-4.31.36Z" class="cls-25"/><path d="M628.23 693a9.87 9.87 0 0 0-8.86 4.87c.11.16.21.33.32.5l-.4-.36a11.21 11.21 0 0 0-1.54 5.14 10.82 10.82 0 0 0 4.07 9.13 11.92 11.92 0 0 1-2.1-7.44c.32-6.33 5.37-11.23 11.29-10.93l.45.05a1.34 1.34 0 0 1 0-.2 9.48 9.48 0 0 0-3.23-.76Z" class="cls-25"/><path d="M619.37 697.88s-.06.09-.08.14l.4.36c-.11-.17-.21-.38-.32-.5ZM672.12 674.82a11 11 0 0 0-8.53 2.29 12 12 0 0 1 6.42-.8 11.85 11.85 0 0 1 7.78 4.56l1.73-1.56a11 11 0 0 0-7.4-4.49Z" class="cls-25"/><path d="M663.59 677.11a10.74 10.74 0 0 0-1.47.76v.67a10.17 10.17 0 0 1 1.47-1.43Z" class="cls-22"/><path d="M660.13 683.12a9.41 9.41 0 0 1 2-4.57c-.07-.19-.15-.37-.24-.56a10.39 10.39 0 0 0-4.82 7.27 10.66 10.66 0 0 0 4.57 10.2l3-2.69a9.92 9.92 0 0 1-4.51-9.65Z" class="cls-22"/><path d="M662.16 678.54a9.41 9.41 0 0 0-2 4.57 9.92 9.92 0 0 0 4.51 9.65c4.38-4 8.79-7.94 13.15-11.9a11.85 11.85 0 0 0-7.78-4.56 12 12 0 0 0-6.42.8 10.17 10.17 0 0 0-1.46 1.44Z" class="cls-22"/><path d="M631.83 691.28a10.79 10.79 0 0 0-.37 2.49l.56.25h-.56a10.73 10.73 0 0 0 1.67 6 12.06 12.06 0 0 1-.07-6.48c1.63-6.13 7.6-9.86 13.32-8.34a10.21 10.21 0 0 1 2.06.79 9.49 9.49 0 0 0-4.25-2.45c-5.32-1.41-10.85 2.05-12.36 7.74Z" class="cls-25"/><path d="M631.46 693.77a1.34 1.34 0 0 0 0 .2h.56ZM661 674.4c-2.79-4.84-9.86-6.5-15.78-3.69a11.49 11.49 0 0 0-6.68 8.17 13.36 13.36 0 0 1 6-5.47c6.38-3 14-1.25 17 4 .11.2.21.4.31.6l.21-.12a8.36 8.36 0 0 0-1.06-3.49ZM662.16 678.54v-.67l-.21.12c.09.19.17.37.24.56ZM662.16 678.54Z" class="cls-25"/><path d="M637.29 653.59s-6.59 6.19-6.84 11.41 4.68 11.52 4.68 11.52 6.2-6.62 6.26-11.72-4.1-11.21-4.1-11.21Z" class="cls-11"/><path d="M764.78 565.46c.07-.26.13-.53.18-.8-9.55-1.67-19.2-3-28.76-4.47l.81 1Z" class="cls-3"/><ellipse cx="495.29" cy="571.49" class="cls-23" rx="1.99" ry="2.79" transform="rotate(-63.22 495.311 571.487)"/></g></svg>