<svg xmlns="http://www.w3.org/2000/svg" id="Food" viewBox="0 0 210.39 210.39"><defs><style>.cls-2{fill:#6a5b35}.cls-3{fill:#8c7b66}.cls-4{fill:#647d88}.cls-5{fill:#4c5b65}.cls-6{fill:#f7d4c7}.cls-7{fill:#fcf2e9}</style></defs><path id="background" d="M-605-323h850.49v850.4H-605z" style="fill:#2e454a"/><g id="fork_pasta" data-name="fork pasta"><path d="M65.62 171.34c.18-.15 1.31-1.72 2.66-3.62-3.47-11.21-7.14-22.39-10-33.72-.02 0 6.72 34 7.34 37.34Z" class="cls-2"/><path d="M64.55 128.42s-6.8 2.34-7 2.47c.07.47.67 3.11.67 3.11 2.88 11.33 6.55 22.51 10 33.72 2.16-3.06 4.9-7 5.15-7.19-.94-3.36-7.98-29.06-8.82-32.11Z" class="cls-3"/><path d="M80.33 261.65c-.78-12.88-1.3-23.65-1.75-33-.52-11-1-19.73-1.59-27.37-2.26-25.74-6.28-25.83-10.26-38.57-1.3.95-1.64-3.54-1.86-3.46.3 1.62 6.74 40.32 6.71 69.75 0 12.76 1.35 28.2 2.72 48l-1 2.55c4.33-5.23 7.13-18.16 7.03-17.9Z" class="cls-2"/><path d="M232.05-54.6c-1.81 1.24-11.06 12.46-17 18.75s-4.89 16.43-4.89 16.43c-3.49 7-22 16.08-38.1 21.32S131.86 13.44 113 44.19s-49.29 64.66-65 81.09C35.13 138.7 29.8 143.8 31.55 147c1.92 3.46 7 0 11.88-4.89 2.19-2.19 40.07-39.69 47.19-47.89 13.26-15.26 26-30.7 32.14-38.24 2.1-2.57 6.59-2.12 8.81-.19a5.79 5.79 0 0 1 .58 7.89c-2 2.46-5.31 6.17-10.43 12-13.49 15.4-31.61 33.78-45.72 47.64 2.31 1.56 6.25 2.16 8.61 4.74 6.7-6 13.92-12.76 21.15-20 19.24-19.23 29.8-30.83 35.54-37.28 2-2.28 4.67-3.09 7.07-1.22a5.78 5.78 0 0 1 1 8.1 5.07 5.07 0 0 1-.49.55c-10.9 10.79-25.09 26-40.46 40.43-6.19 5.8-12.43 11.46-18.27 16.66a70.8 70.8 0 0 1 4.42 8.06c6.71-5.75 14.06-12.11 21.42-18.55 16.89-14.74 34.92-31.58 42.36-39.67a5.77 5.77 0 0 1 7.76-.66 5.76 5.76 0 0 1 1.08 8.07 4 4 0 0 1-.26.32c-20.89 23.45-49.14 45.83-68.56 60.21.89 2.73 1.09 5.55 1.8 8.65 14-9.93 34-24.54 56.35-42.53 43-34.6 56.74-68 60.93-90.76S222 2.58 229.35-5.11c5.35-5.6 9.11-3.16 17.31-8.75v-41.22c-5.3-1.92-11.18-1.87-14.61.48Z" class="cls-4"/><path d="m77 167.93-.16.12c-3.5 2.8-1.92 7.22 1.4 7S85.15 172 91.12 168c-.88-2.89-1.11-6.32-2.1-8.8-6.02 4.31-10.91 7.87-12.02 8.73ZM75.13 134.71a20.71 20.71 0 0 0-6.87-5.6c-.25.23-18.27 17.15-20.19 18.78-7 5.94-.7 9 3.84 5.94 2.7-1.83 21.09-17.3 23.22-19.12ZM80.43 142c-3 2.65-18.89 16.24-19.43 16.69-5.57 4.64-.12 8.34 4.53 6.5 3.73-1.47 15.63-12.21 19-15.27-1.53-2.92-2.76-5.66-4.1-7.92Z" class="cls-4"/><path d="M89 159.19c-2 1.4-3.8 2.72-5.43 3.9A81.29 81.29 0 0 1 85.1 172c1.73-1.12 3.68-2.48 6-4-.88-2.9-1.1-6.33-2.1-8.81ZM68.26 129.11l-4.35 4.07a41.65 41.65 0 0 1 6.72 5.33c2.24-1.88 3.94-3.32 4.5-3.8a20.71 20.71 0 0 0-6.87-5.6ZM80.43 142l-4 3.49a49 49 0 0 1 4.17 8c1.7-1.51 3.13-2.8 4-3.58-1.6-2.91-2.83-5.65-4.17-7.91Z" class="cls-5"/><path d="M100 158.5c-2.9-14.79-23.23-56.4-40.57-39.5-2.77 2.37-3.17 10-.45 16.92.21-.19 4-3.83 5.9-5.6-1.6-13 42.5 33.31 25.5 100.83 0-15.51-12.37-55.44-13.11-57.91-.35.1-3.78-12.44-4-13.21-.51.42-3.64 2.82-6 4.53 4 12.74 9.48 33.69 9.33 32.23 3.33 12.84 6.2 27.13 8.69 51.11-1.47 4.32-8.62 24.21-12 31.7-4.9 12.31-25.18 64.29-27.42 89.32-4.84 54 17.66 106.68 18.85 108.78l11.51-6.36c-.13-.23-5.14-31.56-7.18-38.11 0 0 11.69-45.08 18.5-77.92C92.43 333 97.1 305.38 94 266.05c-.22-2.86-.46-5.62-.69-8.26 2.15-8.06 7.69-25.56 8.5-47.89a136.07 136.07 0 0 0 1.08-13.67A178.09 178.09 0 0 0 100 158.5Z" class="cls-3"/><path d="M62.07 119.68s21.26-.94 35.07 50.11c0 0-10.95-53.25-35.07-50.11ZM94.1 206c-4.29 29.4-11.89 48.72-21 73.65C33.21 389.16 53.61 440.17 64.3 439c16.91-1.82 8-.53 8.47-7.6-17.67 8.43-20.64-36.16-16-74.64 5.85-48.6 37.66-97.57 37.33-150.76Z" class="cls-2"/><path d="M189.34 82.62s37.37-54 13.47-69.6c-30.63-20-72.55 17.37-72.55 17.37 14.87-10.65 46.21-21 62.76-8.07 17.98 14.04-3.68 60.3-3.68 60.3Z" class="cls-5"/></g><path id="background-2" d="M-605.5-322.7h850.49v850.4H-605.5z" class="cls-6" data-name="background"/><g id="fork_pasta-2" data-name="fork pasta"><path d="M65.12 171.64c.18-.15 1.31-1.72 2.66-3.62-3.47-11.21-7.14-22.39-10-33.72-.02 0 6.72 34 7.34 37.34Z" class="cls-6"/><path d="M64.05 128.72s-6.8 2.34-7 2.47c.07.47.67 3.11.67 3.11 2.88 11.33 6.55 22.51 10 33.72 2.16-3.06 4.9-7 5.15-7.19-.94-3.36-7.97-29.06-8.82-32.11Z" class="cls-7"/><path d="M79.84 262c-.79-12.88-1.3-23.65-1.75-33-.53-11-1-19.73-1.6-27.37-2.26-25.74-6.28-25.83-10.26-38.57-1.3 1-1.64-3.54-1.86-3.46.3 1.62 6.74 40.32 6.72 69.75 0 12.76 1.34 28.2 2.71 48l-1 2.55c4.33-5.28 7.13-18.21 7.04-17.9Z" class="cls-6"/><path d="M231.55-54.3c-1.81 1.24-11.06 12.46-17 18.75s-4.89 16.43-4.89 16.43c-3.49 7-22 16.08-38.1 21.32s-40.2 11.54-59.06 42.29-49.28 64.66-65 81.09C34.63 139 29.3 144.1 31.05 147.3c1.92 3.46 7 0 11.88-4.89 2.19-2.19 40.07-39.69 47.19-47.89 13.26-15.26 26-30.7 32.14-38.24 2.1-2.57 6.6-2.12 8.81-.19a5.79 5.79 0 0 1 .59 7.89c-2 2.46-5.31 6.17-10.43 12-13.49 15.4-31.61 33.78-45.73 47.64 2.31 1.56 6.25 2.16 8.61 4.74 6.7-6 13.92-12.76 21.15-20 19.23-19.23 29.8-30.83 35.54-37.28 2-2.28 4.67-3.09 7.07-1.22a5.78 5.78 0 0 1 1 8.1c-.16.19-.32.38-.49.55-10.91 10.79-25.1 26-40.47 40.43-6.19 5.8-12.43 11.46-18.27 16.66a69.28 69.28 0 0 1 4.42 8.06c6.71-5.75 14.06-12.11 21.42-18.55 16.89-14.74 34.92-31.58 42.36-39.67a5.77 5.77 0 0 1 7.76-.66 5.75 5.75 0 0 1 1.08 8.07 2.6 2.6 0 0 1-.26.32c-20.89 23.45-49.14 45.83-68.56 60.21.89 2.73 1.09 5.55 1.8 8.65 14-9.93 34-24.54 56.35-42.53 43-34.6 56.74-68 60.93-90.76s4.54-25.86 11.88-33.55c5.35-5.6 9.11-3.16 17.31-8.75v-41.22c-5.27-1.92-11.13-1.87-14.58.48Z" class="cls-7"/><path d="m76.5 168.23-.15.12c-3.5 2.8-1.92 7.22 1.4 7s6.91-3.1 12.88-7c-.88-2.89-1.11-6.32-2.1-8.8-6.03 4.26-10.92 7.82-12.03 8.68ZM74.63 135a20.61 20.61 0 0 0-6.87-5.6c-.25.23-18.27 17.15-20.19 18.78-7 5.94-.7 9 3.85 5.94 2.69-1.82 21.08-17.29 23.21-19.12ZM79.93 142.3C76.93 145 61 158.54 60.5 159c-5.57 4.64-.12 8.34 4.54 6.5 3.72-1.47 15.63-12.21 19-15.27-1.54-2.93-2.76-5.67-4.11-7.93Z" class="cls-7"/><path d="M88.5 159.49c-2 1.4-3.79 2.72-5.43 3.9a79 79 0 0 1 1.53 8.91c1.73-1.12 3.68-2.48 6-4-.88-2.9-1.1-6.3-2.1-8.81ZM67.76 129.41l-4.34 4.07a42 42 0 0 1 6.71 5.33c2.24-1.88 3.94-3.32 4.5-3.8a20.61 20.61 0 0 0-6.87-5.6ZM79.93 142.3l-4 3.49a47.5 47.5 0 0 1 4.17 8c1.7-1.51 3.13-2.8 4-3.58-1.6-2.91-2.82-5.65-4.17-7.91Z" class="cls-6"/><path d="M99.5 158.8c-2.9-14.8-23.22-56.4-40.57-39.49-2.77 2.37-3.17 9.95-.45 16.92.21-.19 4-3.83 5.9-5.6-1.59-13 42.5 33.31 25.5 100.83 0-15.51-12.37-55.44-13.1-57.91-.35.1-3.79-12.44-4-13.21-.52.42-3.65 2.82-6 4.53 4 12.74 9.47 33.69 9.33 32.23 3.33 12.84 6.2 27.13 8.69 51.11-1.47 4.32-8.62 24.21-12 31.7-4.9 12.31-25.18 64.29-27.42 89.32C40.54 423.23 63 475.91 64.23 478l11.51-6.36c-.13-.23-5.14-31.56-7.18-38.11 0 0 11.69-45.08 18.5-77.92 4.88-22.29 9.55-49.94 6.42-89.27-.22-2.86-.47-5.62-.69-8.26 2.15-8.06 7.69-25.56 8.5-47.89a136.07 136.07 0 0 0 1.08-13.67 177.44 177.44 0 0 0-2.87-37.72Z" class="cls-7"/><path d="M61.57 120s21.27-.94 35.08 50.11c0-.02-10.96-53.27-35.08-50.11ZM93.6 206.3c-4.29 29.4-11.89 48.7-21 73.7-39.89 109.46-19.49 160.47-8.8 159.31 16.91-1.82 8-.53 8.47-7.6-17.67 8.43-20.64-36.16-16-74.64 5.85-48.61 37.66-97.58 37.33-150.77ZM188.85 82.92s37.37-54 13.46-69.6c-30.63-20-72.55 17.37-72.55 17.37 14.87-10.69 46.24-21 62.77-8.07 17.97 14.04-3.68 60.3-3.68 60.3Z" class="cls-6"/></g></svg>