<svg xmlns="http://www.w3.org/2000/svg" id="Places" width="21.2cm" height="21.2cm" viewBox="0 0 601 601"><defs><linearGradient id="linear-gradient" x1="602.55" x2="509.56" y1="365.84" y2="269.23" gradientUnits="userSpaceOnUse"><stop offset="0" stop-color="#6b8bb4"/><stop offset="1" stop-color="#90a3c6"/></linearGradient><style>.cls-1{fill:#96d0ef}.cls-2{fill:#7fc3eb}.cls-3{fill:#b6e1fa}.cls-4{fill:#747d56}.cls-6{fill:#78613b}.cls-7{fill:#dfd4c7}.cls-11{fill:#e2733e}.cls-12{fill:#f0dac2}.cls-14{fill:#efdac3}.cls-15{fill:#a3b6c1}.cls-16{fill:#81c7f0}.cls-17{fill:#c2b8ad}.cls-27{fill:#87adbf}.cls-29{fill:#9dadba}.cls-32{fill:#7fc0e8}</style></defs><path id="background" d="M0 0v212.62c.16 4.49.36 9 .42 13.46a76.65 76.65 0 0 1-.42 7.86v9.89a72.69 72.69 0 0 1 .27 7.79A4.69 4.69 0 0 1 0 253v348h601V0Z" class="cls-1"/><path id="water" d="M600.65 601H0V253.45h505.57l95.08 105.51V601z" class="cls-2"/><g id="clouds"><path d="M46.28 103.58c7.42-2.57 14.52-6.75 22.37-7 7.33-.25 14.82 3 21.83.82 2.53-.77 4.88-2.23 7.51-2.49s5.36.77 8.08.9 5.93-1.2 6.3-3.89-2.1-4.66-4.38-6a53 53 0 0 0-13-5.32c-3.07-.8-6.25-1.33-9.11-2.7-7.28-3.48-11-11.52-16.6-17.36a34.13 34.13 0 0 0-26.71-10.28c-5.86.41-12 2.32-17.41 0-3.33-1.43-5.81-4.26-8.48-6.72A47.37 47.37 0 0 0 0 33.63V98.8c13.86 7.91 31.14 10.01 46.28 4.78ZM595.09 180.26c-15.57-4.06-33.79 5-47.4-3.54-4.3-2.71-7.46-6.86-11.12-10.37-11.19-10.72-27-15.3-42.39-16.88-24.77-2.55-52.4 3.07-68 22.48-4.61 5.73-8.22 12.66-14.59 16.32-6.76 3.88-15.08 3.22-22.75 4.56a43 43 0 0 0-25.23 14.55c-5.23 6.22-8.85 14.1-15.72 18.45-6 3.81-13.53 4.21-20.4 6.13s-14.09 6.58-14.7 13.69l25.46 7.84c6.73-8.3 248.32-4.35 262.74-2.1V182.5a29.86 29.86 0 0 0-5.9-2.24Z" class="cls-3"/></g><g id="pool"><path d="M601.05 113.25V86a64.4 64.4 0 0 0-16.71-2.48 47.67 47.67 0 0 0-19.06 3.61q5.12-1.1 10.3-1.83a16.78 16.78 0 0 0-4.84 1.78 43.68 43.68 0 0 1 9-1.26 12.14 12.14 0 0 0-5.32 2.33 69 69 0 0 1 12.46-1.83 23.86 23.86 0 0 0-5.35 1.53l8.08-.92a18.93 18.93 0 0 0-4.74 1.6 23.57 23.57 0 0 1 7.4-.31 51.12 51.12 0 0 0-8.08 1.86 62.72 62.72 0 0 1 8.67-.16 28 28 0 0 0-12 5.2 44.5 44.5 0 0 0-6.07 5.82 82.56 82.56 0 0 0-15.37 10.47l9.93-5.83a54.56 54.56 0 0 0-8.59 6.86 193.37 193.37 0 0 1 16.68-10.32 55.51 55.51 0 0 0-11.92 8.91q4.43-3.36 9-6.53l-3.41 3.3a34.83 34.83 0 0 1 4.1-2.47 15.72 15.72 0 0 0-3.64 3.73 106.8 106.8 0 0 1 10.94-7.31l-7.85 6.25a81.69 81.69 0 0 1 11.19-6.53 39.86 39.86 0 0 0-6.77 5.07q3.23-2.07 6.6-3.92l-4.15 3.67a89.08 89.08 0 0 1 3.84-2.11 45.71 45.71 0 0 0-7.1 8 33.94 33.94 0 0 0-4.19 8.6 47.75 47.75 0 0 1 5.59-7.87 26.4 26.4 0 0 0-2.95 5.2 64.93 64.93 0 0 0 6-7.75 24.74 24.74 0 0 1-1.85 4.1l4.84-6.62-2.11 3.92 3.36-3.5a20.09 20.09 0 0 0-1.32 2.36C579.52 117 575.1 125 570.91 132.8q3-4.11 6.26-8.06a28.88 28.88 0 0 0-2.58 6 54.19 54.19 0 0 0 4-6.22 43.09 43.09 0 0 0-1.6 5l3.17-5.86a15.59 15.59 0 0 0-.6 2.69 29.63 29.63 0 0 1 3.59-5.6 8.73 8.73 0 0 0-1.22 3.56 60.63 60.63 0 0 1 4-6.55 32.24 32.24 0 0 0-2.06 4.61Q587 118 590 113.65a21.45 21.45 0 0 0-2.55 5.69c1.57-2.55 3.41-4.94 5.18-7.36a44.87 44.87 0 0 0-1.43 13 44.1 44.1 0 0 1 1.5-8.87 22.23 22.23 0 0 0 .23 6 42.06 42.06 0 0 1 2.18-8.2 16.82 16.82 0 0 0-.49 5.91c.5-2 1-3.94 1.61-5.89l.6-2.08.15.74c.14 4.08.24 13.94-1.79 20.8-2.61 8.84-15.13 45.06-18.82 60.33-3.77 15.61-4.64 39.45-3.77 51.93h3.71c-.4-5.71-.85-19 1.31-39.12 1.8-16.9 10.77-43.77 13.94-53.07 2-5.93 4.74-12.74 6.8-20.31a65.35 65.35 0 0 0 .87 9.28q.11-4.89.23-9.78a46.82 46.82 0 0 0 .55 6.48 44.83 44.83 0 0 0 .5-4.77c.13.93.31 1.85.52 2.76V119a24.82 24.82 0 0 0 .02-5.75Z" class="cls-4"/><path d="M578.9 99q1.85-1.52 3.63-3.12l-3 2.83ZM581.41 97.91a56.88 56.88 0 0 0 5.11-4.19l-3.92 3.72ZM586.31 96.14l-1.28.41c.86-.55 1.71-1.11 2.55-1.7ZM590.13 95c-.53.13-1.06.28-1.59.43l3.74-2.56Z" class="cls-1"/><path d="M562.33 197.01h1.02v49.89h-1.02z" style="fill:#6486c0"/><path d="M533.44 191.53a6.21 6.21 0 0 0-1.25 1.36 2 2 0 0 0-.21 1.77 2.75 2.75 0 0 0 1.18 1.16 17 17 0 0 0 2 1 1.5 1.5 0 0 0 .65.17c.82-.07.91-1.29 1.52-1.84-.36 1-.67 2.17.05 2.89a2.68 2.68 0 0 0 1.4.57 64.48 64.48 0 0 0 12.17 1.06 3.05 3.05 0 0 0 1.24-.2c.9-.43 1.14-1.59 1.27-2.6.37 1.07-.09 2.52.82 3.17a2.29 2.29 0 0 0 1.35.26l15.08-.23a2.46 2.46 0 0 0 1.26-.25 1.65 1.65 0 0 0 .67-1.41 4.78 4.78 0 0 0-.36-1.58 3.11 3.11 0 0 0-.85-1.46 3 3 0 0 0-1.52-.51c-4.5-.6-9.07-.32-13.61-.34a102.9 102.9 0 0 1-20.7-2.17" class="cls-6"/><path d="M571.54 195.28a14.66 14.66 0 0 0 1 3.42 2.1 2.1 0 0 0 .54.83 2.3 2.3 0 0 0 1.47.33 55.88 55.88 0 0 0 11.11-1.18 1.73 1.73 0 0 0 1.07-.52 1.5 1.5 0 0 0 .18-1 16.33 16.33 0 0 0-.94-3 19.81 19.81 0 0 0 1.69 2.23 1.51 1.51 0 0 0 .55.57 1.58 1.58 0 0 0 1.3-.13 12.28 12.28 0 0 0 2.5-1.41 1.88 1.88 0 0 0 .48-.45 1.59 1.59 0 0 0 .06-1.38 4.39 4.39 0 0 0-1.14-1.8.83.83 0 0 0-.38-.23 1 1 0 0 0-.53.12 28.66 28.66 0 0 1-8.19 2.07c-2.81.36-5.65.54-8.44 1a6.07 6.07 0 0 1-2.87.05" class="cls-6"/><path d="m521.46 260.5 79.39 78.48v-81.64l-79.39 3.16z" class="cls-4"/><path d="M0 245.55h600.02v15.71H0z" class="cls-7"/><path d="M600.85 344.16V384L492.32 269.47v-9.03l50.91 35.49" style="fill:url(#linear-gradient)"/><path d="M.01 260.5h511.94v8.93H.01z" style="fill:#557aba"/><path d="M600.85 344.16V384L492.32 269.47v-9.03l108.53 83.72z" style="fill:#5d88bf"/><path d="M600.85 330.59v42.37L492.32 260.44h37.42l71.11 70.15z" class="cls-7"/><path d="M573.13 285.91h27.72V271.1h-44.12l16.4 14.81z" class="cls-11"/><path d="M600.85 273.82h-41.11l3.18 2.87h37.93v-2.87zM566.35 279.79l3.18 2.87h31.32v-2.87h-34.5z" class="cls-12"/><circle cx="547.8" cy="51.46" r="20.56" style="fill:#efeff1"/><path d="m563.08 177.28-22.31 6.81 3.86 1.89 18.45-8.7z" class="cls-14"/><path d="m537.14 194.31-3.98-2.63 7.61-7.59 3.86 1.89-7.49 8.33zM563.08 177.28l-18.45 8.7 11.64.98 6.81-9.68z" class="cls-11"/><path d="m537.14 194.31 16.99 1.68 2.14-9.03-11.64-.98-7.49 8.33zM563.08 177.28l-6.81 9.68 12.38-.15-5.57-9.53z" class="cls-14"/><path d="m554.13 195.99 17.7-.11-3.18-9.07-12.38.15-2.14 9.03zM563.08 177.28l5.57 9.53 13.04-.51-18.61-9.02z" class="cls-11"/><path d="m571.83 195.88 14.17-1.53-4.31-8.05-13.04.51 3.18 9.07z" class="cls-14"/><path d="m563.08 177.28 18.61 9.02 4.03-1.19-22.64-7.83z" class="cls-14"/><path d="m586 194.35 5.44-2.5-5.72-6.74-4.03 1.19 4.31 8.05z" class="cls-11"/><path d="M484.97 245.54 600.85 357.3v-.7L485.69 245.54h-.72zM471.26 245.54h-.72l15.51 14.96h.72l-15.51-14.96zM455.3 245.54l15.52 14.96h.72l-15.52-14.96h-.72zM440.69 245.54l15.51 14.96h.72l-15.51-14.96h-.72zM426.7 245.54l15.51 14.96h.72l-15.51-14.96h-.72zM411.68 245.54l15.51 14.96h.72l-15.52-14.96h-.71zM396.42 245.54l15.52 14.96h.71l-15.51-14.96h-.72zM379.93 245.54l15.51 14.96h.72l-15.51-14.96h-.72zM363.41 245.54l15.52 14.96h.72l-15.52-14.96h-.72zM347.54 245.54l15.51 14.96h.72l-15.51-14.96h-.72zM331.66 245.54l15.52 14.96h.71l-15.51-14.96h-.72zM315.79 245.54l15.51 14.96h.72l-15.51-14.96h-.72zM299.91 245.54l15.52 14.96h.71l-15.51-14.96h-.72zM284.04 245.54l15.51 14.96h.72l-15.51-14.96h-.72zM268.16 245.54l15.52 14.96h.71l-15.51-14.96h-.72zM252.29 245.54l15.51 14.96h.72l-15.51-14.96h-.72zM236.41 245.54l15.51 14.96h.72l-15.51-14.96h-.72zM220.54 245.54l15.51 14.96h.72l-15.51-14.96h-.72zM204.66 245.54l15.51 14.96h.72l-15.51-14.96h-.72zM188.79 245.54l15.51 14.96h.72l-15.51-14.96h-.72zM172.91 245.54l15.51 14.96h.72l-15.51-14.96h-.72zM157.04 245.54l15.51 14.96h.72l-15.51-14.96h-.72zM141.16 245.54l15.51 14.96h.72l-15.51-14.96h-.72zM125.29 245.54l15.51 14.96h.72l-15.51-14.96h-.72zM109.41 245.54l15.51 14.96h.72l-15.51-14.96h-.72zM93.54 245.54l15.51 14.96h.72l-15.51-14.96h-.72zM77.66 245.54l15.51 14.96h.72l-15.51-14.96h-.72zM61.79 245.54 77.3 260.5h.72l-15.51-14.96h-.72zM45.91 245.54l15.51 14.96h.72l-15.51-14.96h-.72zM30.04 245.54l15.51 14.96h.72l-15.51-14.96h-.72zM14.16 245.54l15.51 14.96h.72l-15.51-14.96h-.72zM.02 247.23 13.8 260.5h.72L.02 246.53v.7zM500.29 245.54l100.56 97.54v-.7L501 245.54h-.71zM514.35 245.54l16.85 16.35-.64-.63h.71l-16.21-15.72h-.71zM527.95 245.54l16.21 15.72h.72l-16.21-15.72h-.72zM541.56 245.54l16.2 15.72h.72l-16.2-15.72h-.72zM555.17 245.54l16.2 15.72h.72l-16.2-15.72h-.72zM568.77 245.54l16.21 15.72h.72l-16.21-15.72h-.72zM582.38 245.54l16.21 15.72h.71l-16.2-15.72h-.72zM600.85 249.56l-4.14-4.02h-.72l4.86 4.72v-.7z" class="cls-15"/><path d="M501.73 261.81h29.39l-.5-.5h-28.89v.5zM509.21 268.93h29.12l-.5-.5h-28.62v.5zM516.58 276.01h28.94l-.51-.5h-28.43v.5zM524.07 283.33h28.86l-.5-.5h-28.36v.5zM531.59 290.42h28.53l-.51-.5h-28.02v.5zM538.81 297.28h28.26l-.5-.5h-27.76v.5zM547.09 305.5h28.32l-.51-.5h-27.81v.5zM556.46 314.27h27.84l-.51-.5h-27.33v.5zM565.68 323.34h27.82l-.51-.5h-27.31v.5zM575.06 331.76h25.79v.5h-25.79zM584.88 341.13h15.97v.5h-15.97zM595.47 351.56h5.38v.5h-5.38zM-.02 249.72h600.65v.5H-.02zM.02 255.61h600.83v.5H.02z" class="cls-15"/><path d="M329.9 305.63c4.48.3 8.74-.79 13.05-1.45 17.08-2.61 30.05 1.19 42.82 11 2.11-7.73 20.19-14.4 38.94-8.59s17.85 17.5 28.31 19.47c18.66 3.5 9.89 16.47 20.53 15.32 7.88-.85 19.46 6.19 18.91 12.63-.76 9-14.48 9.36-15.89 9.46-4.66 3.16-1.81 4.07-11.3 6.61-11.68 3.12-14.82-10.07-28.26.56-9.62 7.6-30 4.37-40.63 2.31-27.37-5.31-27.86-4.21-36.24-1.81-3.3.95-12.63 5.77-25.39 4.3-3.16-.37-18.88-11.47-34.64-14.47-13.89-2.64-27.94 3.17-31.68-2.12-2.42-3.41-1.74-15.71 6.93-19 9-3.45 3.33-11.2 15.52-18.58 6.26-3.79 18.86 1.14 20.28-2.71 3.84-10.28 17.13-13.04 18.74-12.93Z" class="cls-16"/><path d="M531.67 250.27c0 3.76 12.77 6.8 28.52 6.8s28.52-3 28.52-6.8c0-1.83-3.07-3.5-8-4.72h-41c-4.97 1.22-8.04 2.89-8.04 4.72Z" class="cls-17"/><path d="M588.71 250.22a1.71 1.71 0 0 0-.1-.5h-1.21l-3.2-3.11-1.12-.39 3.6 3.5H573.8l-4.31-4.17h-.72l4.31 4.17h-12.89l-4.3-4.17h-.72l4.3 4.17h-12.89l-4.3-4.17h-.72l4.3 4.17H533l-.77-.75a2 2 0 0 0-.28.42l.34.33h-.49a1.71 1.71 0 0 0-.1.5h1.1l4.09 4c.34.12.69.23 1.07.34l-4.44-4.3h12.89l5.56 5.39h-9.38c1 .19 2 .35 3 .5h6.86l.77.76h.76l-.81-.8h12.89l.79.77h.67l-.75-.73h8c1.06-.15 2.08-.31 3-.5h-11.5l-5.57-5.39h12.89l5.34 5.18.59-.13-5.21-5.05h12.89l1.16 1.12a2.54 2.54 0 0 0 .24-.46l-.68-.66Z" style="fill:#8e9fa8"/><path d="M565.55 255.61h-12.89l-5.56-5.39h12.89l5.56 5.39z" class="cls-17"/><path d="m540.44 382.44.46.19v-.4l.59.65c1 .43 2.06.88 3.07 1.37a24.48 24.48 0 0 1 2.12 1.42l-5.78-6.44v-9.4l6.24 6.94a1 1 0 0 0 .74.33 1 1 0 0 0 .67-.26 1 1 0 0 0 .07-1.41l-7.72-8.59v-9.41l6.24 6.94a1 1 0 0 0 .74.33 1 1 0 0 0 .67-.25 1 1 0 0 0 .07-1.42l-7.72-8.59V345l6.24 6.94a1 1 0 0 0 .74.33 1 1 0 0 0 .74-1.66L540.9 342v-9.4l6.24 6.93a1 1 0 0 0 .74.34 1 1 0 0 0 .67-.26 1 1 0 0 0 .07-1.41l-7.72-8.6v-4.46c0-6.1 1.29-8.43 3.42-11.54a75.28 75.28 0 0 1 5.67-7.07c.77-.89 1.62-1.86 2.56-3 1.34-1.57 2.09-1.23 2.63-1s.46 2 .46 3.64v15.27a1.25 1.25 0 1 0 2.5 0v-15.16c0-2.81 0-5-1.91-5.91s-3.85-.41-5.58 1.62l-2.54 2.94a75.52 75.52 0 0 0-5.86 7.3c-2.32 3.41-3.85 6.15-3.85 12.95v56a20 20 0 0 1 2.04 1.26Z" style="fill:#70633d"/><path d="M564.54 307.22c-2-.94-3.86-.41-5.59 1.62l-2.54 2.94a75.83 75.83 0 0 0-5.86 7.3c-2.32 3.4-3.84 6.15-3.84 12.95v53.65a25.53 25.53 0 0 1 2.5 2.13V332c0-6.1 1.28-8.43 3.41-11.55a76.54 76.54 0 0 1 5.67-7.06c.78-.89 1.62-1.86 2.56-3 1.34-1.57 2.09-1.23 2.63-1s.46 2 .46 3.64v15.37a1.25 1.25 0 0 0 2.5 0v-15.27c0-2.81 0-5.02-1.9-5.91Z" class="cls-11"/><path d="M540.9 364.29v-6.86l6.24 6.94a1 1 0 0 0 .74.33 1 1 0 0 0 .67-.25 1 1 0 0 0 .07-1.42l-7.72-8.59v-5.69c-.85-1.08-1.69-2.2-2.5-3.34v18.39a13.82 13.82 0 0 1 2.5.49Z" style="fill:#6d6342"/><path d="M549.21 369.85v-13.14a14.61 14.61 0 0 1-2.5-1.57v12.23a18.89 18.89 0 0 1 2.5 2.48Z" style="fill:#d07c52"/><path d="m547.29 387.28.31.47c.42.33.83.68 1.22 1a1 1 0 0 0-.2-.95l-7.72-8.6v-9.4l6.24 6.94a1 1 0 0 0 .74.33 1 1 0 0 0 .67-.26 1 1 0 0 0 .07-1.41l-7.72-8.59v-5.65c-.84-.8-1.68-1.6-2.5-2.41v21.35a21.29 21.29 0 0 1 8.89 7.18Z" style="fill:#757868"/><path d="m547.29 387.28.31.47c.57.45 1.09.91 1.61 1.39v-20.28a14.43 14.43 0 0 1-2.08-1.74l-.42-.42v19.83c.19.25.39.47.58.75Z" style="fill:#c2886b"/><path d="M540.9 398.3v-3.68l3.65 4.07a18.08 18.08 0 0 1 2.51-.21l-6.16-6.85v-9.4l6.24 6.94a1 1 0 0 0 1.41.07 1 1 0 0 0 .07-1.41l-7.72-8.6v-1a22.83 22.83 0 0 1-2.5-3.64V398a16.13 16.13 0 0 1 2.5.3Z" style="fill:#809ca4"/><path d="M549.21 398.6v-14a26.69 26.69 0 0 1-2.5-1.41v15.31a17.25 17.25 0 0 1 2.5.1Z" style="fill:#a5a3a5"/><g style="opacity:.2"><path d="M547.14 401.56a1 1 0 0 0 .74.33 1 1 0 0 0 .74-1.66l-4.81-5.37c-1.84-1.35-3.66-2.68-5.41-4.08v72.13a1.25 1.25 0 0 0 2.5 0v-17.33l6.24 6.93a1 1 0 0 0 .74.34 1 1 0 0 0 .67-.26 1 1 0 0 0 .07-1.41l-7.72-8.6v-10.31l6.24 6.94a1 1 0 0 0 .74.33 1 1 0 0 0 .67-.25 1 1 0 0 0 .07-1.42l-7.72-8.59v-9.86l6.24 6.94a1 1 0 0 0 .74.33 1 1 0 0 0 .67-.26 1 1 0 0 0 .07-1.41l-7.72-8.59V407l6.24 6.94a1 1 0 0 0 .74.33 1 1 0 0 0 .67-.25 1 1 0 0 0 .07-1.42l-7.72-8.6v-9.41Z" class="cls-2"/><path d="M546.71 396.92v72.84a1.25 1.25 0 0 0 2.5 0V398a11.91 11.91 0 0 1-2.5-1.08Z" class="cls-2"/></g><path d="M538.4 448.58v14.58a1.25 1.25 0 1 0 2.5 0v-14.33a17.21 17.21 0 0 1-2.5-.25ZM540.9 414.54V407l6.24 7a1 1 0 0 0 .74.33 1 1 0 0 0 .74-1.68L540.9 404v-6.55a15 15 0 0 1-2.5-.84v18.17a17.53 17.53 0 0 1 2.5-.24ZM545.76 448.18a17.35 17.35 0 0 1-2.25.49l3.63 4.05a1 1 0 0 0 .74.33 1 1 0 0 0 .67-.25 1 1 0 0 0 .07-1.42Z" class="cls-27"/><path d="M546.46 397.8c-.46.05-.93.1-1.4.12s-.79 0-1.19 0l3.27 3.65a1 1 0 0 0 .74.33 1 1 0 0 0 .74-1.68Z" style="fill:#83a8ba"/><path d="M549.21 416.52v-19.26a19.09 19.09 0 0 1-2.5.51v17.66a15.89 15.89 0 0 1 2.5 1.09ZM546.71 447.88V470a1.25 1.25 0 1 0 2.5 0v-23.21a18.37 18.37 0 0 1-2.5 1.09Z" class="cls-29"/><path d="M547.14 426.36a1 1 0 0 0 .74.33 1 1 0 0 0 .67-.26 1 1 0 0 0 .07-1.41l-7.72-8.59v-4.93c-.4-.31-.8-.64-1.17-1l-1.33-1.15v53.54a1.25 1.25 0 0 0 2.5 0v-17.31l6.24 6.93a1 1 0 0 0 .74.34 1 1 0 0 0 .67-.26 1 1 0 0 0 .07-1.41l-7.72-8.6v-10.31l6.24 6.94a1 1 0 0 0 .74.33 1 1 0 0 0 .67-.25 1 1 0 0 0 .07-1.42l-7.72-8.59v-9.86Z" style="fill:#8abada"/><path d="M546.71 414.52v55.24a1.25 1.25 0 0 0 2.5 0v-54.63a19.39 19.39 0 0 1-2.5-.61Z" style="fill:#93bada"/><path d="M547.14 439.21a1 1 0 0 0 .74.33 1 1 0 0 0 .67-.25 1 1 0 0 0 .07-1.42l-7.72-8.59V422a20.72 20.72 0 0 1-2.5-1.35v42.24a1.25 1.25 0 0 0 2.5 0v-17.31l6.24 6.93a1 1 0 0 0 .74.34 1 1 0 0 0 .67-.26 1 1 0 0 0 .07-1.41l-7.72-8.6v-10.31ZM547.54 423.82a13.32 13.32 0 0 1-3.11-.48l2.71 3a1 1 0 0 0 .74.33 1 1 0 0 0 .67-.26 1 1 0 0 0 .07-1.41Z" class="cls-32"/><path d="M546.71 423.76v46a1.25 1.25 0 0 0 2.5 0v-46a13.05 13.05 0 0 1-2.5 0Z" class="cls-32"/><path d="m601.11 599.86-.46-154v-24.32c-43.58-8.59-92.73 16.06-109.72 57.59-4 9.84-7.27 21.39-16.67 26.35-4.49 2.37-16.65 2.46-21.58 3.67-23 5.64-32.21 28.54-55.38 33.62-23.42 5.14-46.34-8.87-69.88-13.47a90.75 90.75 0 0 0-54.32 6.3c-19.13 8.64-35 23.84-54.89 30.55-20.3 6.85-42.49 4.12-63.65 7.44A112.88 112.88 0 0 0 97.1 601Z" style="fill:#83c9f2"/><path d="M19.63 401.94c6.08-.43 11.65-3.36 17.36-5.51 22.61-8.52 40.7-4.39 59.49 10.79 1.61-14.62 24.91-30.8 51.12-24.25s26.88 28.19 41.29 29.5c25.73 2.33 16 28 30.15 23.59 10.49-3.28 27.23 7.1 27.53 19 .42 16.67-18 20.31-19.91 20.81-5.77 6.81-14.61 24.46-27 31.19-15.23 8.28-28.66 2.68-39.84 7.82-18 8.31-29.63 2.05-44.28.59-37.76-3.74-33.69-6.33-44.61-.09-4.29 2.45-16.1 13.32-33.53 13.41S2.3 516.84 0 505.55V401.28c1.89-.41 1-.77 3-.75 5.58.04 11.07 1.8 16.63 1.41Z" class="cls-16"/></g></svg>