<svg xmlns="http://www.w3.org/2000/svg" id="music" width="30cm" height="30cm" viewBox="0 0 850.39 850.39"><defs><linearGradient id="linear-gradient" x1="425.12" x2="425.12" y1="718.02" y2="632.01" gradientUnits="userSpaceOnUse"><stop offset="0" stop-color="#f2e6da"/><stop offset="1" stop-color="#bdcfd6"/></linearGradient><linearGradient id="linear-gradient-2" x1="605.5" x2="605.5" y1="736.12" y2="606.33" gradientUnits="userSpaceOnUse"><stop offset=".23" stop-color="#eaba9b"/><stop offset=".49" stop-color="#ebb492"/><stop offset=".94" stop-color="#eda478"/><stop offset="1" stop-color="#eda174"/></linearGradient><style>.cls-7{fill:#dd8b66}</style></defs><g id="sky"><path d="M0 0h850.39v704.6H0z" style="fill:#4d6666"/><path d="M0 0h850.39v704.6H0z" style="fill:#bdcfd6"/><path d="M-.31 630.39h850.85v82.46H-.31z" style="fill:url(#linear-gradient)"/></g><g id="sun"><path d="M605.5 526a177.51 177.51 0 0 1 140.3 286.24c-32.47 41.84-243.85 44-276.41 5.2A177.51 177.51 0 0 1 605.5 526Z" style="fill-rule:evenodd;fill:url(#linear-gradient-2)"/><circle cx="603.5" cy="704.5" r="55" style="fill:#f2e6da"/><circle cx="603.5" cy="704.5" r="3.5" style="fill:#eda174"/><path d="M450 703c0-84.92 69.08-154 154-154s154 69.08 154 154c0 21.47-4.42 40.3-12.4 56.45h2.23C755.66 743.24 760 724.4 760 703c0-86-70-156-156-156s-156 70-156 156c0 21.4 4.34 40.24 12.17 56.45h2.23C454.42 743.3 450 724.47 450 703Z" class="cls-7"/><path d="M476.25 703a127.75 127.75 0 1 1 242.33 56.45h2.23A128.89 128.89 0 0 0 733.75 703c0-71.54-58.21-129.75-129.75-129.75S474.25 631.46 474.25 703a128.89 128.89 0 0 0 12.94 56.45h2.23A127 127 0 0 1 476.25 703Z" class="cls-7"/><path d="M502.5 703a101.5 101.5 0 1 1 185.81 56.45h2.4a103.5 103.5 0 1 0-173.42 0h2.4A100.9 100.9 0 0 1 502.5 703Z" class="cls-7"/></g><g id="water"><path d="M0 704h850.39v146.39H0z" style="fill:#95bfd8"/><path d="M658.61 704h-110.2c-.68 48.8-1 97.6-.7 146.39h111.34c.62-85.89-.14-127.91-.44-146.39Z" style="fill:#adcadb"/></g><path id="plane" d="M534 218s157.8-72.57 163.8-75.57 17.14-8.22 17.77-7C716.32 137 699 144 689 149c-7.64 3.82-155 69-155 69Z" style="fill:#fff"/><g id="sun-2" data-name="sun"><circle cx="216.5" cy="228.5" r="56.5" style="fill:#faece0"/><path d="M168.26 219.25a56.26 56.26 0 0 1 10.5-32.79 56.49 56.49 0 1 0 83.74 74.83 56.49 56.49 0 0 1-94.24-42Z" style="fill:#eddac5"/></g></svg>