<svg xmlns="http://www.w3.org/2000/svg" id="Celebration" viewBox="0 0 120.46 120.41"><defs><style>.cls-1{fill:#ffce96}</style></defs><path id="background" d="m809.72 525.81-850.88 1.12.09-850.51 850.5.76.29 848.63z" class="cls-1"/><g id="front_track" data-name="front track"><path d="M751.62 94c-14-47.05-37.45-87.07-66.13-121.6-46.26-55.73-109.93-94.71-185.42-115.53-35.63-9.83-73.86-18.07-114.16-19.33a391.42 391.42 0 0 0-48.06 1.43c1.88 0-.45.06-.41 0C132.58-141.9 9.44 40 13.07 212.48 16.14 357.12 89.58 475 203.68 536.23c8.36-.54 16.71-.74 25.07-1C106.75 477 36.66 348.7 39.07 203.76c.7-42.58 11.87-82.62 26.62-120.32 53.55-136.84 187.42-234.37 338-234.37 32.05 0 66 .07 95 8.14 76.15 21.14 136.31 67.43 179 133.65 38.58 59.86 61.78 137.39 61 219.3-.53 56-13.08 111-36.11 158.09a356.41 356.41 0 0 1-69.12 96.44c-1.06 1-2.12 2.1-3.2 3.14a357.85 357.85 0 0 1-74.66 55.58l-1.08.6q-8.53 4.71-17.36 9c4.19 5.75 8.87 11 13.51 16.23q10.88-4.79 21.42-10.21c32.41-16.76 62.15-39.3 88.14-65.44l3-3a401.59 401.59 0 0 0 37.87-45.18c20.55-28.51 36.15-61.87 47.56-95.78 12.6-37.43 19-76 18.8-120.24-.2-41.29-5.46-80.59-15.84-115.39Z" style="fill:#f4a351"/><path d="M28.89 127.32a.59.59 0 0 1-.54-.64.39.39 0 0 1 0-.14c2.5-10.85 4-16.26 7.32-27a1 1 0 0 1 .94-.69c5.43.41 7.53.79 13 1.21a.54.54 0 0 1 .51.57.46.46 0 0 1 0 .2c-3.54 10.58-5.1 15.86-7.73 26.58a.92.92 0 0 1-.87.71c-5.29-.27-7.34-.55-12.63-.8ZM37.76 95.41a.55.55 0 0 1-.51-.6.46.46 0 0 1 0-.2c2.88-8.91 6.17-17.79 9.79-26.43a1 1 0 0 1 1-.64c5.59.64 7.74 1.16 13.32 1.81a.54.54 0 0 1 .48.58.52.52 0 0 1-.07.21C57.37 80.35 55.34 85.53 51.69 96a1 1 0 0 1-.95.67c-5.42-.46-7.53-.85-12.98-1.26ZM49.55 64.11a.53.53 0 0 1-.49-.58.62.62 0 0 1 .07-.23c3.7-8.68 7.79-17.3 12.17-25.66a1.15 1.15 0 0 1 1.11-.58c5.73.92 7.93 1.6 13.65 2.52a.51.51 0 0 1 .46.56.54.54 0 0 1-.09.24c-5.38 9.83-7.88 14.84-12.48 25A1.1 1.1 0 0 1 63 66c-5.68-.68-7.84-1.22-13.45-1.89ZM64.16 33.76a.51.51 0 0 1-.47-.55.52.52 0 0 1 .1-.26A347.66 347.66 0 0 1 78.25 8.29a1.21 1.21 0 0 1 1.18-.51c5.85 1.21 8.1 2.07 13.93 3.29a.49.49 0 0 1 .44.54.47.47 0 0 1-.12.27A327.703 327.703 0 0 0 79 35.82a1.15 1.15 0 0 1-1.12.55c-5.77-.96-7.98-1.66-13.72-2.61ZM81.47 4.63a.51.51 0 0 1-.47-.56.68.68 0 0 1 .12-.26c5.24-8 10.88-15.87 16.69-23.41a1.33 1.33 0 0 1 1.26-.4c6 1.52 8.22 2.55 14.15 4.07a.47.47 0 0 1 .43.51.48.48 0 0 1-.15.3A334.201 334.201 0 0 0 96.63 7.53a1.26 1.26 0 0 1-1.2.48c-5.84-1.25-8.09-2.13-13.96-3.38ZM76.89 1.28l.7-1.07a1.14 1.14 0 0 1 1-.42c1.19.18 1.77.28 2.88.49a.39.39 0 0 1 .28.64l-.7 1a1 1 0 0 1-1 .41c-1.11-.21-1.68-.31-2.88-.48a.38.38 0 0 1-.28-.57ZM72.23 8.56l.68-1.07a1.08 1.08 0 0 1 1-.44c1.19.17 1.76.26 2.87.46a.38.38 0 0 1 .37.41.35.35 0 0 1-.08.22c-.28.43-.41.64-.68 1.07a1 1 0 0 1-1 .42 87.47 87.47 0 0 0-2.87-.45.39.39 0 0 1-.29-.62ZM67.92 15.64l.65-1.09a1.09 1.09 0 0 1 1-.45c1.19.15 1.76.24 2.86.43a.38.38 0 0 1 .37.41.35.35 0 0 1-.08.22l-.65 1.08a1 1 0 0 1-.93.44c-1.11-.18-1.67-.27-2.86-.42-.37-.05-.53-.32-.36-.62ZM63.55 23.19l.62-1.1a1 1 0 0 1 1-.46c1.17.14 1.74.22 2.84.39a.4.4 0 0 1 .38.42.35.35 0 0 1-.08.22l-.63 1.09a1 1 0 0 1-.92.45c-1.09-.17-1.66-.25-2.83-.39-.39-.04-.55-.32-.38-.62ZM59.49 30.58c.23-.45.35-.67.6-1.12a1 1 0 0 1 1-.47c1.17.13 1.74.2 2.83.36a.4.4 0 0 1 .31.63l-.6 1.11a1 1 0 0 1-.91.46c-1.09-.16-1.65-.23-2.82-.36-.41-.03-.58-.31-.41-.61ZM55.51 38.2l.57-1.13a1 1 0 0 1 .94-.49c1.17.12 1.73.19 2.81.34a.4.4 0 0 1 .39.41.34.34 0 0 1-.07.22l-.58 1.12a.93.93 0 0 1-.88.47c-1.09-.14-1.64-.21-2.81-.33-.36-.03-.53-.31-.37-.61ZM51.86 45.58l.55-1.14a1 1 0 0 1 .92-.5c1.16.11 1.71.17 2.79.31a.41.41 0 0 1 .39.43.36.36 0 0 1-.06.2L55.9 46a.92.92 0 0 1-.87.48 92.26 92.26 0 0 0-2.79-.3.41.41 0 0 1-.43-.39.36.36 0 0 1 .05-.21ZM48.18 53.41l.52-1.15a1 1 0 0 1 .91-.51c1.15.1 1.7.15 2.78.27a.41.41 0 0 1 .39.43.36.36 0 0 1-.06.2c-.21.46-.31.69-.52 1.14a.89.89 0 0 1-.86.49c-1.07-.11-1.62-.17-2.76-.26-.36-.02-.58-.27-.4-.61ZM44.8 61.09l.5-1.15a1 1 0 0 1 .89-.52c1.14.08 1.69.13 2.76.24a.42.42 0 0 1 .4.44.6.6 0 0 1-.06.19l-.5 1.15a.87.87 0 0 1-.83.5c-1.07-.1-1.61-.15-2.75-.23a.43.43 0 0 1-.45-.4.41.41 0 0 1 .04-.22ZM41.53 69l.47-1.19a1 1 0 0 1 .88-.53c1.13.08 1.67.12 2.73.22a.42.42 0 0 1 .41.43.41.41 0 0 1-.05.19c-.19.47-.29.7-.48 1.16a.88.88 0 0 1-.82.52c-1-.1-1.6-.14-2.73-.21a.43.43 0 0 1-.45-.41.45.45 0 0 1 .04-.18ZM38.56 76.59l.44-1.18a.9.9 0 0 1 .85-.54c1.13.06 1.67.1 2.72.19a.43.43 0 0 1 .41.45.33.33 0 0 1 0 .17l-.45 1.17a.84.84 0 0 1-.8.52c-1-.08-1.59-.12-2.72-.18a.42.42 0 0 1-.44-.41.31.31 0 0 1-.01-.19ZM35.61 84.67 36 83.5a.88.88 0 0 1 .84-.55c1.12 0 1.65.09 2.7.16a.43.43 0 0 1 .41.45.33.33 0 0 1 0 .17c-.17.47-.25.71-.42 1.17a.82.82 0 0 1-.78.54c-1-.08-1.58-.11-2.7-.16a.44.44 0 0 1-.46-.41.34.34 0 0 1 .02-.2ZM32.94 92.53c.16-.47.24-.71.39-1.18a.88.88 0 0 1 .82-.56l2.69.14a.42.42 0 0 1 .42.44.39.39 0 0 1 0 .18l-.4 1.18a.78.78 0 0 1-.76.54l-2.68-.14a.44.44 0 0 1-.47-.41.63.63 0 0 1-.01-.19ZM30.4 100.6c.15-.48.22-.72.36-1.19a.86.86 0 0 1 .81-.57c1.1 0 1.63.07 2.66.13a.43.43 0 0 1 .43.43.39.39 0 0 1 0 .18c-.15.47-.22.71-.37 1.19a.79.79 0 0 1-.75.55c-1-.06-1.55-.08-2.65-.12a.45.45 0 0 1-.48-.42.57.57 0 0 1-.01-.18ZM28.14 108.41c.13-.48.2-.71.33-1.19a.84.84 0 0 1 .79-.57c1.09 0 1.62 0 2.64.1a.43.43 0 0 1 .43.45.45.45 0 0 1 0 .16c-.13.48-.2.72-.34 1.19a.78.78 0 0 1-.73.56c-1 0-1.54-.07-2.64-.1a.45.45 0 0 1-.48-.42.57.57 0 0 1 0-.18ZM25.94 116.61c.12-.48.19-.72.31-1.2a.8.8 0 0 1 .77-.58c1.08 0 1.6 0 2.62.08a.45.45 0 0 1 .43.48.51.51 0 0 1 0 .13c-.13.48-.19.72-.31 1.2a.77.77 0 0 1-.72.56c-1 0-1.53 0-2.61-.07a.47.47 0 0 1-.49-.45.77.77 0 0 1 0-.15ZM50.2 116.76l-.33 1.17a.84.84 0 0 1-.78.57c-1.08 0-1.6 0-2.61-.08A.44.44 0 0 1 46 118a.45.45 0 0 1 0-.16l.33-1.17a.76.76 0 0 1 .73-.55c1 0 1.54.06 2.62.08a.44.44 0 0 1 .47.41.33.33 0 0 1 .05.15ZM52.61 108.74c-.14.47-.22.7-.36 1.17a.85.85 0 0 1-.79.55h-2.64a.43.43 0 0 1-.43-.43.85.85 0 0 1 0-.17l.35-1.17a.79.79 0 0 1 .75-.54c1 .05 1.55.07 2.64.1a.43.43 0 0 1 .45.41.29.29 0 0 1 .03.08ZM55.08 101.19c-.16.46-.24.69-.39 1.15a.87.87 0 0 1-.81.55c-1.1 0-1.63-.06-2.66-.11a.42.42 0 0 1-.42-.42.39.39 0 0 1 0-.18c.15-.47.23-.7.38-1.16a.81.81 0 0 1 .76-.54c1 .06 1.56.08 2.67.12a.43.43 0 0 1 .46.4.42.42 0 0 1 .01.19ZM57.83 93.41l-.42 1.14a.88.88 0 0 1-.83.54c-1.11 0-1.64-.07-2.68-.13a.42.42 0 0 1-.42-.42.59.59 0 0 1 .05-.19c.16-.46.25-.69.41-1.15a.82.82 0 0 1 .78-.52l2.68.14a.43.43 0 0 1 .46.4.63.63 0 0 1-.03.19ZM60.7 85.77l-.45 1.13a.92.92 0 0 1-.84.54l-2.7-.16a.43.43 0 0 1-.41-.45.47.47 0 0 1 0-.16c.18-.46.27-.68.44-1.14a.86.86 0 0 1 .8-.52c1 .08 1.58.11 2.7.17a.43.43 0 0 1 .46.38.49.49 0 0 1 0 .21ZM63.85 78l-.47 1.13a1 1 0 0 1-.87.53c-1.12-.07-1.66-.1-2.71-.19a.41.41 0 0 1-.41-.41.46.46 0 0 1 0-.2l.47-1.13a.85.85 0 0 1 .81-.51c1 .09 1.6.13 2.72.19a.41.41 0 0 1 .45.37.43.43 0 0 1 .01.22ZM67 70.63l-.5 1.12a1 1 0 0 1-.88.51c-1.13-.07-1.68-.11-2.73-.21a.4.4 0 0 1-.41-.39.43.43 0 0 1 .06-.22c.19-.45.29-.67.49-1.12a.87.87 0 0 1 .83-.5c1.06.1 1.6.14 2.74.22a.41.41 0 0 1 .44.38.39.39 0 0 1-.04.21ZM70.47 63.05 70 64.16a1 1 0 0 1-.9.5 95.4 95.4 0 0 1-2.75-.23.4.4 0 0 1-.4-.4.39.39 0 0 1 .06-.21l.52-1.12a.91.91 0 0 1 .85-.49c1.06.11 1.61.16 2.75.25.31.03.48.29.34.59ZM74 55.7l-.54 1.1a1 1 0 0 1-.92.49c-1.15-.09-1.7-.14-2.77-.26a.4.4 0 0 1-.39-.41.36.36 0 0 1 .06-.2l.56-1.11a.93.93 0 0 1 .87-.47c1.07.12 1.62.17 2.77.27.36.03.54.3.36.59ZM77.89 48.17l-.57 1.09a1 1 0 0 1-.93.48c-1.15-.1-1.71-.16-2.79-.29a.41.41 0 0 1-.39-.41.48.48 0 0 1 .07-.21l.57-1.09a.93.93 0 0 1 .88-.46c1.08.13 1.64.19 2.79.3.36.03.53.3.37.59ZM81.72 41.11l-.6 1.08a1.08 1.08 0 0 1-1 .47c-1.16-.12-1.72-.19-2.8-.33a.39.39 0 0 1-.39-.39.44.44 0 0 1 .07-.22l.6-1.09a1 1 0 0 1 .89-.45c1.09.15 1.65.22 2.81.34.41.03.58.3.42.59ZM85.87 33.83l-.62 1.06a1.07 1.07 0 0 1-1 .46c-1.17-.13-1.73-.2-2.82-.35a.38.38 0 0 1-.37-.4.34.34 0 0 1 .07-.22l.61-1.07a1 1 0 0 1 .92-.44c1.09.16 1.65.23 2.82.36.39.04.52.31.39.6ZM90.09 26.78c-.26.42-.39.64-.64 1.06a1.11 1.11 0 0 1-1 .44c-1.18-.14-1.74-.22-2.84-.38a.38.38 0 0 1-.37-.4.34.34 0 0 1 .07-.22l.69-1.06a1 1 0 0 1 .93-.42c1.1.17 1.67.25 2.84.39.34.04.5.31.32.59ZM94.63 19.58l-.67 1A1.08 1.08 0 0 1 93 21c-1.18-.15-1.75-.23-2.85-.41a.38.38 0 0 1-.38-.38.5.5 0 0 1 .09-.24l.67-1.05a1 1 0 0 1 .94-.41c1.11.19 1.68.27 2.86.43.33.06.48.36.3.64ZM99.09 12.85l-.7 1a1.14 1.14 0 0 1-1 .42c-1.19-.16-1.76-.26-2.86-.45a.38.38 0 0 1-.38-.36.4.4 0 0 1 .1-.26l.69-1a1 1 0 0 1 1-.4c1.11.2 1.69.29 2.87.46.31.04.46.31.28.59ZM103.89 5.92l-.72 1a1.16 1.16 0 0 1-1 .4c-1.2-.17-1.77-.27-2.88-.48a.38.38 0 0 1-.37-.37.39.39 0 0 1 .1-.25l.71-1a1.06 1.06 0 0 1 1-.38c1.12.21 1.69.31 2.89.49.32.08.46.31.27.59ZM108.75-.77l-.74 1a1.21 1.21 0 0 1-1 .39c-1.2-.19-1.78-.3-2.9-.51a.38.38 0 0 1-.36-.38.43.43 0 0 1 .1-.24c.29-.41.44-.61.74-1a1.08 1.08 0 0 1 1-.37c1.12.23 1.7.33 2.9.52.31.05.51.36.26.59Z" class="cls-1"/></g></svg>