<svg xmlns="http://www.w3.org/2000/svg" id="Celebration" width="30cm" height="30cm" viewBox="0 0 850.39 850.39"><defs><linearGradient id="linear-gradient" x1="425.2" x2="425.2" y1="736.83" y2="879.78" gradientUnits="userSpaceOnUse"><stop offset=".08" stop-color="#f04851"/><stop offset=".34" stop-color="#f35557"/><stop offset=".91" stop-color="#fa6e64"/></linearGradient><style>.cls-1{fill:#fa6e64}.cls-3{fill:#e1444c}.cls-4{fill:#ff9a80}.cls-5{fill:#ffa291}.cls-7{fill:#ff9480}.cls-8{fill:#ff8169}.cls-9{fill:#fa857d}.cls-11{fill:#fa7e76}</style></defs><g id="background"><path d="M0 0h850.39v850.39H0z" class="cls-1"/><path d="M850.39 810.36H0V732.5h850.39v77.86z" style="fill:url(#linear-gradient)"/><path d="M850.39 850.39H0l1.24-72.3s20.63 17.19 135.83 12 247.5 13.94 357.63 15.47c123.79 1.72 218.35-8.6 357.62-17.19-.32 18.5-1.93 62.02-1.93 62.02Z" class="cls-3"/></g><g id="stars"><path d="M218.46 756.38a1.64 1.64 0 0 1-3.28 0 1.64 1.64 0 0 1 3.28 0ZM300.87 757.67a1.64 1.64 0 0 1-3.28 0 1.64 1.64 0 0 1 3.28 0ZM398.26 750.17a1.64 1.64 0 0 1-3.27 0 1.64 1.64 0 0 1 3.27 0ZM729 745.86a1.64 1.64 0 0 1-3.27 0 1.64 1.64 0 0 1 3.27 0ZM831.65 748.49a1.64 1.64 0 0 1-3.28 0 1.64 1.64 0 0 1 3.28 0ZM555.64 747.83a1.64 1.64 0 0 1-3.28 0 1.64 1.64 0 0 1 3.28 0ZM101.58 760.23a1.64 1.64 0 0 1-3.27 0 1.64 1.64 0 0 1 3.27 0ZM25.24 744a1.64 1.64 0 0 1-3.24 0 1.64 1.64 0 0 1 3.24 0Z" class="cls-4"/><path d="M152.38 617.75a1.64 1.64 0 0 1-3.27 0 1.64 1.64 0 0 1 3.27 0ZM837.51 404.33a1.64 1.64 0 0 1-3.28 0 1.64 1.64 0 0 1 3.28 0ZM103.82 611.16a1.64 1.64 0 0 1-3.28 0 1.64 1.64 0 0 1 3.28 0ZM56.6 683.68a1.64 1.64 0 0 1-3.28 0 1.64 1.64 0 0 1 3.28 0ZM15.18 668.26a1.64 1.64 0 0 1-3.28 0 1.64 1.64 0 0 1 3.28 0ZM101.37 717.64a1.64 1.64 0 0 1-3.28 0 1.64 1.64 0 0 1 3.28 0ZM220.6 687a1.64 1.64 0 0 1-3.28 0 1.64 1.64 0 0 1 3.28 0ZM220.17 640a1.64 1.64 0 0 1-3.28 0 1.64 1.64 0 0 1 3.28 0ZM295.73 721.49a1.64 1.64 0 0 1-3.27 0 1.64 1.64 0 0 1 3.27 0ZM310.07 657.91a1.64 1.64 0 0 1-3.27 0 1.64 1.64 0 0 1 3.27 0ZM374.47 636.48a1.64 1.64 0 0 1-3.27 0 1.64 1.64 0 0 1 3.27 0ZM58.23 106.69a1.64 1.64 0 0 1-3.27 0 1.64 1.64 0 0 1 3.27 0ZM382.21 570.69a1.64 1.64 0 0 1-3.28 0 1.64 1.64 0 0 1 3.28 0ZM53.71 38.3a1.64 1.64 0 0 1-3.28 0 1.64 1.64 0 0 1 3.28 0ZM391.52 699.41a1.64 1.64 0 0 1-3.27 0 1.64 1.64 0 0 1 3.27 0ZM362.33 477.54a1.64 1.64 0 0 1-3.27 0 1.64 1.64 0 0 1 3.27 0ZM495.84 629.73a1.64 1.64 0 0 1-3.27 0 1.64 1.64 0 0 1 3.27 0ZM511 700.41c0 2.12-3.3 2.12-3.27 0a1.64 1.64 0 0 1 3.27 0ZM549.17 648.68a1.64 1.64 0 0 1-3.27 0 1.64 1.64 0 0 1 3.27 0ZM563.59 619.46a1.64 1.64 0 0 1-3.27 0 1.64 1.64 0 0 1 3.27 0ZM556.62 488a1.64 1.64 0 0 1-3.27 0 1.64 1.64 0 0 1 3.27 0ZM546.75 462a1.64 1.64 0 0 1-3.27 0 1.64 1.64 0 0 1 3.27 0ZM435.16 80.68a1.64 1.64 0 0 1-3.28 0 1.64 1.64 0 0 1 3.28 0ZM431.07 442.3a1.64 1.64 0 0 1-3.27 0 1.64 1.64 0 0 1 3.27 0ZM498.44 413a1.64 1.64 0 0 1-3.27 0 1.64 1.64 0 0 1 3.27 0ZM356.61 306.36a1.64 1.64 0 0 1-3.28 0 1.64 1.64 0 0 1 3.28 0ZM340.82 227.08a1.64 1.64 0 0 1-3.28 0 1.64 1.64 0 0 1 3.28 0ZM348.38 213.59a1.64 1.64 0 0 1-3.27 0 1.64 1.64 0 0 1 3.27 0ZM500.37 522.81a1.64 1.64 0 0 1-3.28 0 1.64 1.64 0 0 1 3.28 0ZM512 52.46a1.64 1.64 0 0 1-3.27 0 1.64 1.64 0 0 1 3.27 0ZM168.77 194.51a1.64 1.64 0 0 1-3.27 0 1.64 1.64 0 0 1 3.27 0ZM236.53 143.58a1.64 1.64 0 0 1-3.28 0 1.64 1.64 0 0 1 3.28 0ZM309 189.53a1.64 1.64 0 0 1-3.27 0 1.64 1.64 0 0 1 3.27 0ZM157.26 206a1.64 1.64 0 0 1-3.28 0 1.64 1.64 0 0 1 3.28 0ZM158.9 236.61a1.64 1.64 0 0 1-3.28 0 1.64 1.64 0 0 1 3.28 0ZM93.84 248a1.64 1.64 0 0 1-3.27 0 1.64 1.64 0 0 1 3.27 0ZM136.93 89.35a1.64 1.64 0 0 1-3.27 0 1.64 1.64 0 0 1 3.27 0ZM19.74 430.37a1.64 1.64 0 0 1-3.27 0 1.64 1.64 0 0 1 3.27 0ZM8.89 511.64a1.64 1.64 0 0 1-3.28 0 1.64 1.64 0 0 1 3.28 0ZM59.87 480.43a1.64 1.64 0 0 1-3.27 0 1.64 1.64 0 0 1 3.27 0ZM111.5 422.63a1.64 1.64 0 0 1-3.27 0 1.64 1.64 0 0 1 3.27 0ZM123.06 454.42a1.64 1.64 0 0 1-3.27 0 1.64 1.64 0 0 1 3.27 0ZM69.79 347.5a1.64 1.64 0 0 1-3.27 0 1.64 1.64 0 0 1 3.27 0ZM215 504.51a1.64 1.64 0 0 1-3.28 0 1.64 1.64 0 0 1 3.28 0ZM326.69 353.28a1.64 1.64 0 0 1-3.27 0 1.64 1.64 0 0 1 3.27 0ZM611.43 157.74a1.64 1.64 0 0 1-3.27 0 1.64 1.64 0 0 1 3.27 0ZM523.78 108.61a1.64 1.64 0 0 1-3.28 0 1.64 1.64 0 0 1 3.28 0ZM572.61 41.19a1.64 1.64 0 0 1-3.27 0 1.64 1.64 0 0 1 3.27 0ZM605.65 345.57a1.64 1.64 0 0 1-3.27 0 1.64 1.64 0 0 1 3.27 0ZM637.15 272.37a1.64 1.64 0 0 1-3.27 0 1.64 1.64 0 0 1 3.27 0ZM644.14 451.44a1.64 1.64 0 0 1-3.28 0 1.64 1.64 0 0 1 3.28 0ZM679.66 470.51a1.64 1.64 0 0 1-3.28 0 1.64 1.64 0 0 1 3.28 0ZM725.05 502.09a1.64 1.64 0 0 1-3.27 0 1.64 1.64 0 0 1 3.27 0ZM360.41 139.44a1.64 1.64 0 0 1-3.28 0 1.64 1.64 0 0 1 3.28 0ZM379 388a1.64 1.64 0 0 1-3.28 0 1.64 1.64 0 0 1 3.28 0ZM830.09 212.64a1.64 1.64 0 0 1-3.27 0 1.64 1.64 0 0 1 3.27 0ZM772.3 237.69a1.64 1.64 0 0 1-3.28 0 1.64 1.64 0 0 1 3.28 0ZM654.49 236.73a1.64 1.64 0 0 1-3.28 0 1.64 1.64 0 0 1 3.28 0ZM592.17 690.42a1.64 1.64 0 0 1-3.28 0 1.64 1.64 0 0 1 3.28 0ZM676.64 673.08a1.64 1.64 0 0 1-3.27 0 1.64 1.64 0 0 1 3.27 0ZM708 638.62a1.64 1.64 0 0 1-3.28 0 1.64 1.64 0 0 1 3.28 0ZM727.36 606.38a1.64 1.64 0 0 1-3.27 0 1.64 1.64 0 0 1 3.27 0ZM728 665.92a1.64 1.64 0 0 1-3.28 0 1.64 1.64 0 0 1 3.28 0ZM827.2 650a1.64 1.64 0 0 1-3.27 0 1.64 1.64 0 0 1 3.27 0ZM836.83 316.68a1.64 1.64 0 0 1-3.27 0 1.64 1.64 0 0 1 3.27 0ZM833.62 588.29a1.64 1.64 0 0 1-3.27 0 1.64 1.64 0 0 1 3.27 0ZM342.68 446.72a1.64 1.64 0 0 1-3.27 0 1.64 1.64 0 0 1 3.27 0ZM221 244.43a1.64 1.64 0 0 1-3.27 0 1.64 1.64 0 0 1 3.27 0ZM271.11 251.17a1.64 1.64 0 0 1-3.27 0 1.64 1.64 0 0 1 3.27 0ZM29 639.93a1.64 1.64 0 0 1-3.28 0 1.64 1.64 0 0 1 3.28 0ZM419.56 252.1a1.64 1.64 0 0 1-3.28 0 1.64 1.64 0 0 1 3.28 0ZM575.55 397.37a1.64 1.64 0 0 1-3.28 0 1.64 1.64 0 0 1 3.28 0ZM460.16 295.37a1.64 1.64 0 0 1-3.28 0 1.64 1.64 0 0 1 3.28 0ZM556.39 260.35a1.64 1.64 0 0 1-3.27 0 1.64 1.64 0 0 1 3.27 0ZM546.28 184.11a1.64 1.64 0 0 1-3.28 0 1.64 1.64 0 0 1 3.28 0ZM524 338.64a1.64 1.64 0 0 1-3.27 0 1.64 1.64 0 0 1 3.27 0ZM737.29 217.08a1.64 1.64 0 0 1-3.27 0 1.64 1.64 0 0 1 3.27 0ZM682.69 125.38a1.64 1.64 0 0 1-3.27 0 1.64 1.64 0 0 1 3.27 0ZM539.41 346.4a1.64 1.64 0 0 1-3.28 0 1.64 1.64 0 0 1 3.28 0Z" class="cls-5"/><g style="opacity:.8"><path d="M855.13 12.54c0 1.93-27.72 2.26-55 2.67-2 0-2-3.23 0-3.25 25.35-.12 54.97-1.19 55 .58ZM846.41 54.58c-.76 1.77-26.22-9.28-51.33-20.08-1.86-.8-.51-3.77 1.36-2.95 23.2 10.26 50.66 21.45 49.97 23.03ZM821.5 89.16C820.09 90.47 801.3 70 782.75 50c-1.38-1.49 1.06-3.65 2.44-2.14 17.03 18.76 37.6 40.14 36.31 41.3ZM781.64 111.59c-1.84.57-9.88-26-17.88-52.13-.59-1.94 2.55-2.83 3.13-.88 7.18 24.34 16.44 52.49 14.75 53.01ZM731.53 113.66c-1.89-.37 3.62-27.58 9-54.38.4-2 3.58-1.29 3.17.71-5.25 24.83-10.43 54.01-12.17 53.67ZM692.47 96.45c-1.57-1.11 14.53-23.72 30.3-46 1.17-1.66 3.8.29 2.6 1.94-14.85 20.53-31.45 45.08-32.9 44.06ZM662.81 63.13c-1-1.67 23.22-15.32 47-28.84 1.76-1 3.32 1.87 1.53 2.86-22.2 12.33-47.65 27.52-48.53 25.98ZM650 18.65c-.13-1.92 27.59-3.56 54.86-5.27 2-.13 2.16 3.14.12 3.24-25.35 1.38-54.89 3.8-54.98 2.03Z" class="cls-7"/><path d="M619.62-4.21c.2-3 43.43 1.75 86 6.3 3.16.34 2.7 5.43-.48 5.06-39.48-4.62-85.7-8.59-85.52-11.36ZM625 54.15c-1.11-2.81 40-17 80.43-31.1 3-1 4.76 3.76 1.73 4.78C669.46 40.55 626 56.73 625 54.15ZM654.77 104.61c-2.2-2.06 28.89-32.48 59.4-62.51 2.26-2.23 5.91 1.36 3.61 3.58-28.61 27.61-60.98 60.83-63.01 58.93ZM703.3 137.47c-2.88-.92 12.22-41.71 26.94-81.91 1.09-3 5.92-1.3 4.79 1.69-14.03 37.2-29.09 81.07-31.73 80.22ZM761.22 146.42c-3 .39-6.81-42.93-10.7-85.56-.29-3.17 4.8-3.71 5.06-.53 3.22 39.67 8.42 85.73 5.64 86.09ZM817.39 129.73c-2.53 1.63-24.51-35.9-46.27-72.77-1.61-2.74 2.75-5.4 4.35-2.63 19.86 34.44 44.26 73.89 41.92 75.4ZM861 90.6c-1.59 2.57-37.51-21.95-72.95-46-2.63-1.79.17-6.06 2.8-4.24C823.56 63 862.49 88.24 861 90.6ZM883.73 36.57c-.34 3-43.3-3.79-85.6-10.34-3.14-.49-2.44-5.56.71-5 39.23 6.44 85.21 12.58 84.89 15.34ZM881.14-22c1 2.86-40.76 15.1-81.8 27.28-3.05.9-4.58-4-1.51-4.86C836.06-10.49 880.24-24.6 881.14-22Z" class="cls-8"/></g><path d="M212.09 307.85c1.78-.15 2.82 25.47 3.92 50.67.09 1.87-2.92 2.05-3 .17-.78-23.42-2.55-50.69-.92-50.84ZM241.64 311.92c1.71.51-6.72 24.72-14.94 48.57-.61 1.77-3.47.84-2.84-.94 7.85-22.07 16.22-48.1 17.78-47.63ZM267.64 326.54c1.4 1.1-15.32 20.53-31.71 39.71-1.22 1.42-3.54-.5-2.3-1.92 15.37-17.66 32.73-38.81 34.01-37.79ZM286.47 349.67c.89 1.54-21.79 13.48-44.07 25.31-1.66.88-3.11-1.76-1.44-2.63 20.81-10.77 44.68-24.09 45.51-22.68ZM295.49 378.1c.27 1.76-25.21 4.55-50.28 7.38-1.86.21-2.25-2.78-.37-3 23.31-2.36 50.4-5.99 50.65-4.38ZM293.46 407.86c-.39 1.74-25.12-5-49.48-11.58-1.81-.49-1.07-3.41.74-2.9 22.56 6.32 49.1 12.89 48.74 14.48ZM280.65 434.8c-1 1.47-21.53-13.88-41.78-28.92-1.51-1.12.25-3.57 1.75-2.43 18.67 14.16 40.96 30 40.03 31.35ZM258.86 455.16c-1.47 1-14.94-20.81-28.27-42.23-1-1.59 1.55-3.22 2.53-1.61 12.17 20.01 27.09 42.92 25.74 43.84ZM231.11 466.11c-1.73.39-6.26-24.84-10.8-49.66-.33-1.84 2.62-2.43 2.94-.57 3.99 23.12 9.46 49.87 7.86 50.23ZM201.29 466.12c-1.76-.27 3.28-25.4 8.16-50.16.37-1.84 3.33-1.3 3 .55-4.81 22.94-9.55 49.86-11.16 49.61ZM173.53 455.19c-1.53-.9 12.38-22.43 26-43.67 1-1.58 3.58 0 2.54 1.59C189.23 432.7 175 456 173.53 455.19ZM151.73 434.84c-1.1-1.4 19.74-16.33 40.2-31.09 1.52-1.1 3.32 1.32 1.78 2.41-19.14 13.52-40.97 29.97-41.98 28.68ZM138.91 407.91c-.51-1.71 24.35-8 48.8-14.18 1.81-.46 2.6 2.45.77 2.9-22.76 5.55-49.11 12.85-49.57 11.28ZM136.86 378.15c.15-1.77 25.57 1.54 50.6 4.72 1.85.23 1.52 3.23-.35 3-23.21-3.21-50.4-6.09-50.25-7.72ZM147.72 346.51c.86-1.55 22.71 11.86 44.25 25 1.6 1 .08 3.58-1.52 2.58-19.89-12.41-43.52-26.09-42.73-27.58ZM175.05 319.15c1.49-1 14.46 21.15 27.29 42.87.95 1.61-1.62 3.19-2.56 1.56-11.71-20.3-26.1-43.58-24.73-44.43Z" class="cls-9"/></g><g id="fireworks"><path d="M12.32 391.81a1.64 1.64 0 0 1-3.28 0 1.64 1.64 0 0 1 3.28 0Z" style="fill:#ffd2bf"/><path d="M119.88 314.78a1.64 1.64 0 0 1-3.27 0 1.64 1.64 0 0 1 3.27 0ZM701.26 458.42c0 3-4.68 3-4.63 0s4.68-3.01 4.63 0ZM689.62 453.87c0 3-4.68 3-4.64 0s4.69-3.01 4.64 0ZM693.94 449.78c0 3-4.68 3-4.64 0s4.7-3.01 4.64 0ZM709.59 453.41c0 3-4.69 3-4.64 0s4.68-3.01 4.64 0ZM703 440.23c0 3-4.69 3-4.64 0s4.72-3.01 4.64 0ZM715.54 434.32c.05 3-4.68 3-4.64 0s4.69-3.01 4.64 0ZM736.91 421.36c.05 3-4.68 3-4.63 0s4.72-3.01 4.63 0ZM737.37 441.82c0 3-4.68 3-4.64 0s4.68-3.01 4.64 0ZM725.32 454.1c0 3-4.68 3-4.64 0s4.68-3.01 4.64 0ZM732.37 460.92c0 3-4.69 3-4.64 0s4.68-3.01 4.64 0ZM745.78 457.05c.05 3-4.68 3-4.64 0s4.69-3.05 4.64 0ZM752.37 442.5c0 3-4.68 3-4.63 0s4.68-3.01 4.63 0ZM755.1 456.82c0 3-4.68 3-4.64 0s4.69-3 4.64 0ZM762.38 453.87c0 3-4.68 3-4.64 0s4.68-3.01 4.64 0ZM762.38 438.18c0 3-4.68 3-4.64 0s4.68-3.01 4.64 0ZM752.83 429.31c0 3-4.68 3-4.64 0s4.68-3.01 4.64 0ZM769.65 430c.05 3-4.68 3-4.63 0s4.68-3 4.63 0ZM777.16 438.86c0 3-4.69 3-4.64 0s4.68-3.01 4.64 0ZM774.88 447.5c0 3-4.68 3-4.63 0s4.68-3.01 4.63 0ZM785.34 436.36c0 3-4.68 3-4.64 0s4.69-3.01 4.64 0ZM781.48 425.68c0 3-4.69 3-4.64 0s4.68-3.01 4.64 0ZM791.48 414.76c0 3-4.68 3-4.64 0s4.68-3.01 4.64 0ZM792.39 425.9c0 3-4.68 3-4.64 0s4.68-3.01 4.64 0ZM798.76 431.36c0 3-4.69 3-4.64 0s4.68-3.01 4.64 0ZM801.48 420.9c0 3-4.68 3-4.63 0s4.68-3.01 4.63 0ZM799.44 407.71c0 3-4.68 3-4.64 0s4.68-3 4.64 0ZM809.9 413.85c0 3-4.69 3-4.64 0s4.68-3.01 4.64 0ZM818.54 403.62c0 3-4.69 3-4.64 0s4.68-3.01 4.64 0ZM811.26 396.8c0 3-4.68 3-4.64 0s4.69-3.01 4.64 0ZM806.26 389.07c0 3-4.68 3-4.64 0s4.68-3.01 4.64 0ZM814.9 382c0 3-4.68 3-4.64 0s4.68-3 4.64 0ZM822.63 385.43c0 3-4.68 3-4.64 0s4.68-3.01 4.64 0ZM823.31 377.48c.05 3-4.68 3-4.64 0s4.69-3.01 4.64 0ZM821 362c0 3-4.68 3-4.64 0s4.72-3 4.64 0ZM811.85 351.19c0 3-4.69 3-4.64 0s4.68-3.01 4.64 0ZM804 340.19c0 3-4.69 3-4.64 0s4.64-3.01 4.64 0ZM816 337.5c0 3-4.69 3-4.64 0s4.72-3 4.64 0ZM820.13 350c0 3-4.68 3-4.64 0s4.68-3 4.64 0ZM825.89 355.89c0 3-4.68 3-4.64 0s4.68-3.01 4.64 0ZM823.54 341.6c0 3-4.68 3-4.64 0s4.68-3.01 4.64 0ZM778.07 336.78c0 3-4.69 3-4.64 0s4.68-3.01 4.64 0ZM794.66 324.05c.05 3-4.68 3-4.63 0s4.68-3.05 4.63 0ZM800.8 312.68c.05 3-4.68 3-4.64 0s4.69-3.01 4.64 0ZM786.25 310.4c0 3-4.68 3-4.64 0s4.69-3.01 4.64 0ZM789.21 301.31c0 3-4.69 3-4.64 0s4.68-3.01 4.64 0ZM783 291.08c.05 3-4.68 3-4.64 0s4.71-3.01 4.64 0ZM776.47 293.58c0 3-4.68 3-4.63 0s4.68-3.01 4.63 0ZM769.65 283.12c.05 3-4.68 3-4.63 0s4.68-3.01 4.63 0ZM759.65 288.8c0 3-4.68 3-4.64 0s4.68-3 4.64 0ZM761.7 297.9c0 3-4.69 3-4.64 0s4.68-3.01 4.64 0ZM749.87 290.17c0 3-4.68 3-4.63 0s4.68-3.01 4.63 0ZM761.24 278.8c0 3-4.68 3-4.64 0s4.69-3.01 4.64 0ZM750.56 278.8c0 3-4.69 3-4.64 0s4.68-3.01 4.64 0ZM739.87 282.89c0 3-4.68 3-4.64 0s4.68-3.01 4.64 0ZM736.41 274.94c.05 3-4.68 3-4.63 0s4.68-3.01 4.63 0ZM728.68 279.71c.05 3-4.68 3-4.63 0s4.68-3.01 4.63 0ZM724.64 272.66c0 3-4.69 3-4.64 0s4.68-3.01 4.64 0ZM717.13 279.71c0 3-4.68 3-4.63 0s4.68-3.01 4.63 0ZM709.86 277.44c0 3-4.68 3-4.64 0s4.68-3.01 4.64 0ZM705.08 287.67c0 3-4.68 3-4.63 0s4.68-3.01 4.63 0ZM696.22 282.67c0 3-4.69 3-4.64 0s4.68-3.01 4.64 0ZM709.86 297.67c0 3-4.68 3-4.64 0s4.68-3.01 4.64 0ZM723 291.53c.05 3-4.68 3-4.63 0s4.72-3.01 4.63 0ZM801.48 301.08c0 3-4.68 3-4.63 0s4.68-3.01 4.63 0ZM811.94 314.27c0 3-4.68 3-4.64 0s4.7-3.01 4.64 0ZM811.94 325.86c0 3-4.68 3-4.64 0s4.7-3 4.64 0ZM777.16 358.6c0 3-4.69 3-4.64 0s4.68-3 4.64 0ZM767.84 368.84c0 3-4.69 3-4.64 0s4.68-3.01 4.64 0ZM754.19 328.37c0 3-4.68 3-4.63 0s4.68-3.01 4.63 0ZM736.73 304.72c0 3-4.68 3-4.64 0s4.69-3.01 4.64 0ZM725.62 337.66c0 3-4.68 3-4.64 0s4.69-3.01 4.64 0ZM735.63 362.21c0 3-4.69 3-4.64 0s4.68-3.01 4.64 0ZM740.48 382.52c0 3-4.69 3-4.64 0s4.68-3.01 4.64 0ZM714.71 383.74c0 3-4.68 3-4.64 0s4.68-3.01 4.64 0ZM707.74 411c0 3-4.69 3-4.64 0s4.68-3 4.64 0ZM693.18 428.6c.05 3-4.68 3-4.63 0s4.68-3.01 4.63 0ZM682.68 401.42c0 3-4.68 3-4.64 0s4.69-3.01 4.64 0ZM672 382.33c0 3-4.68 3-4.63 0s4.63-3.01 4.63 0ZM681.06 365.05c0 3-4.68 3-4.64 0s4.68-3.05 4.64 0ZM662.57 350.69c0 3-4.69 3-4.64 0s4.68-3.01 4.64 0ZM671 329.09c0 3-4.68 3-4.64 0s4.64-3.01 4.64 0ZM654.61 337.5c0 3-4.68 3-4.64 0s4.68-3 4.64 0ZM656.2 323.86c0 3-4.68 3-4.64 0s4.69-3.01 4.64 0ZM655.52 317.09c0 3-4.68 3-4.64 0s4.68-3.01 4.64 0ZM648.47 327.55c0 3-4.68 3-4.64 0s4.68-3.01 4.64 0ZM641.88 333.46c0 3-4.69 3-4.64 0s4.68-3.01 4.64 0ZM640.74 342.55c0 3-4.68 3-4.64 0s4.68-3.01 4.64 0ZM643.7 350.51c0 3-4.69 3-4.64 0s4.68-3.01 4.64 0ZM638.24 355.06c0 3-4.68 3-4.64 0s4.68-3.01 4.64 0ZM638.47 364.61c0 3-4.69 3-4.64 0s4.68-3.01 4.64 0ZM647.56 361c.05 3-4.68 3-4.64 0s4.69-3 4.64 0ZM649.38 378.25c0 3-4.68 3-4.64 0s4.68-3.01 4.64 0ZM637.78 393c.05 3-4.68 3-4.63 0s4.68-3 4.63 0ZM637.78 379.61c.05 3-4.68 3-4.63 0s4.68-3.01 4.63 0ZM657.79 391c.05 3-4.68 3-4.64 0s4.69-3 4.64 0ZM647.56 399.17c.05 3-4.68 3-4.64 0s4.69-3.01 4.64 0ZM641.42 403c.05 3-4.68 3-4.64 0s4.69-3 4.64 0ZM645.06 411.9c0 3-4.68 3-4.64 0s4.68-3.01 4.64 0ZM652.79 413c0 3-4.68 3-4.64 0s4.68-3 4.64 0ZM654.15 421.9c.05 3-4.68 3-4.63 0s4.68-3.01 4.63 0ZM694.81 327.76c0 3-4.69 3-4.64 0s4.68-3.01 4.64 0ZM673 308.36c0 3-4.68 3-4.64 0s4.64-3.01 4.64 0ZM663.89 311.09c0 3-4.69 3-4.64 0s4.68-3.01 4.64 0ZM666.61 299.57c0 3-4.68 3-4.63 0s4.68-3.01 4.63 0ZM676 293.5c0 3-4.68 3-4.64 0s4.7-3.01 4.64 0ZM683.89 286.53c.05 3-4.68 3-4.63 0s4.68-3.01 4.63 0ZM690.87 295.32c0 3-4.69 3-4.64 0s4.68-3.01 4.64 0ZM673 417.19c0 3-4.68 3-4.64 0s4.64-3.01 4.64 0ZM663.58 428.4c0 3-4.68 3-4.64 0s4.69-3 4.64 0ZM674.5 427.19c0 3-4.69 3-4.64 0s4.68-3.01 4.64 0ZM672.68 442.05c0 3-4.69 3-4.64 0s4.68-3.05 4.64 0ZM666.31 436.59c0 3-4.68 3-4.64 0s4.69-3.01 4.64 0ZM681.36 448.31c0 3-4.68 3-4.64 0s4.69-3.01 4.64 0ZM807.62 377.48c0 3-4.68 3-4.63 0s4.68-3.01 4.63 0ZM817 370c0 3-4.69 3-4.64 0s4.64-3 4.64 0ZM804 363.83c0 3-4.69 3-4.64 0s4.64-3.01 4.64 0ZM791.25 373.38c0 3-4.68 3-4.63 0s4.68-3.01 4.63 0ZM786.48 391.12c0 3-4.68 3-4.64 0s4.68-3.01 4.64 0ZM713 460.69c0 3-4.69 3-4.64 0s4.64-3.01 4.64 0ZM119.08 116.64c.06 3.83-6 3.83-5.9 0s5.96-3.82 5.9 0ZM104.28 110.86c0 3.83-6 3.83-5.9 0s5.95-3.86 5.9 0ZM109.77 105.66c.06 3.82-6 3.82-5.9 0s5.96-3.83 5.9 0ZM129.66 110.28c.06 3.83-6 3.83-5.9 0s5.96-3.82 5.9 0ZM121.34 93.51c0 3.83-6 3.83-5.9 0s5.95-3.83 5.9 0ZM137.24 86c.06 3.83-6 3.83-5.9 0s5.96-3.83 5.9 0ZM164.42 69.51c.06 3.83-5.95 3.83-5.9 0s5.96-3.83 5.9 0ZM165 95.53c.06 3.83-6 3.83-5.9 0s5.96-3.82 5.9 0ZM149.67 111.15c.06 3.83-5.95 3.83-5.9 0s5.96-3.83 5.9 0ZM158.64 119.82c.05 3.83-6 3.83-5.9 0s5.95-3.82 5.9 0ZM175.7 114.91c.05 3.83-6 3.83-5.9 0s5.96-3.83 5.9 0ZM184.08 96.4c.06 3.83-6 3.83-5.89 0s5.95-3.82 5.89 0ZM187.55 114.62c.06 3.83-6 3.83-5.89 0s5.95-3.83 5.89 0ZM196.81 110.86c.05 3.83-6 3.83-5.9 0s5.95-3.86 5.9 0ZM196.81 90.91c.05 3.82-6 3.82-5.9 0s5.95-3.83 5.9 0ZM184.66 79.63c.06 3.83-5.95 3.83-5.9 0s5.96-3.83 5.9 0ZM206.06 80.5c.06 3.82-5.95 3.82-5.9 0s5.96-3.83 5.9 0ZM215.6 91.78c.06 3.82-5.95 3.82-5.9 0s5.96-3.78 5.9 0ZM212.71 102.76c.06 3.83-6 3.83-5.9 0s5.96-3.82 5.9 0ZM226 88.59c.06 3.83-5.95 3.83-5.9 0s5.97-3.82 5.9 0ZM221.1 75c.05 3.83-6 3.83-5.9 0s5.95-3.82 5.9 0ZM233.82 61.12c.06 3.83-5.95 3.83-5.9 0s5.96-3.82 5.9 0ZM235 75.29c.05 3.83-6 3.83-5.9 0s5.9-3.82 5.9 0ZM243.07 82.23c.06 3.83-5.95 3.83-5.9 0s5.96-3.82 5.9 0ZM246.54 68.93c.06 3.83-5.95 3.83-5.9 0s5.96-3.83 5.9 0ZM243.94 52.16C244 56 238 56 238 52.16s6-3.83 5.94 0ZM257.24 60c.06 3.82-6 3.82-5.9 0s5.96-3.86 5.9 0ZM268.23 47c.06 3.82-6 3.82-5.9 0s5.96-3.87 5.9 0ZM259 38.28c0 3.83-6 3.83-5.9 0s5.9-3.83 5.9 0ZM252.62 28.45c0 3.83-6 3.83-5.9 0s5.95-3.83 5.9 0ZM263.6 19.48c.06 3.83-6 3.83-5.89 0s5.95-3.82 5.89 0ZM273.44 23.82c.05 3.83-6 3.83-5.9 0s5.95-3.82 5.9 0ZM274.3 13.7c.06 3.83-5.95 3.83-5.9 0s5.96-3.83 5.9 0ZM179.27 28c.06 3.83-6 3.83-5.9 0s5.96-3.85 5.9 0ZM127.31 56.36c.06 3.83-6 3.83-5.9 0s5.96-3.82 5.9 0ZM108.81 78.72c0 3.83-6 3.83-5.9 0s5.95-3.82 5.9 0ZM120.72 19c0 3.83-6 3.83-5.9 0s5.95-3.84 5.9 0ZM81.82 19.87c.05 3.83-6 3.83-5.9 0s5.95-3.87 5.9 0ZM93.38-2.11c.06 3.83-5.95 3.83-5.9 0s5.96-3.82 5.9 0ZM39.21-2.67c.06 3.83-6 3.83-5.9 0s5.96-3.82 5.9 0ZM53.09 14.68c.06 3.83-6 3.83-5.9 0s5.96-3.82 5.9 0ZM38.35 33.48c0 3.83-6 3.83-5.9 0s5.95-3.83 5.9 0ZM38.35 16.42c0 3.83-6 3.83-5.9 0s5.95-3.83 5.9 0ZM63.79 30.88c.06 3.82-5.95 3.82-5.9 0s5.96-3.83 5.9 0ZM50.78 41.29c.06 3.82-6 3.82-5.9 0s5.96-3.83 5.9 0ZM43 46.2c0 3.8-6 3.8-5.93 0s5.93-3.82 5.93 0ZM47.6 57.48c.06 3.83-6 3.83-5.9 0s5.96-3.83 5.9 0ZM57.43 58.93c.06 3.82-6 3.82-5.9 0s5.96-3.83 5.9 0ZM59.17 70.2c0 3.83-6 3.83-5.9 0s5.95-3.82 5.9 0ZM83.11 64.21c0 3.83-6 3.83-5.9 0s5.95-3.83 5.9 0ZM71.16 78.47c0 3.83-6 3.83-5.9 0s5.95-3.82 5.9 0ZM85 76.93c0 3.83-6 3.83-5.9 0s5.99-3.83 5.9 0ZM82.72 95.82c.06 3.83-6 3.83-5.9 0s5.96-3.82 5.9 0ZM74.63 88.88c.05 3.83-6 3.83-5.9 0s5.95-3.82 5.9 0ZM93.77 103.79c0 3.82-6 3.82-5.9 0s5.96-3.79 5.9 0ZM254.35 13.7c.06 3.83-5.95 3.83-5.9 0s5.96-3.83 5.9 0ZM266.21 4.16c.05 3.83-6 3.83-5.9 0s5.95-3.83 5.9 0ZM233.53 8.5c.06 3.82-5.95 3.82-5.9 0s5.96-3.83 5.9 0ZM227.46 31.05c0 3.83-6 3.83-5.9 0s5.96-3.83 5.9 0ZM134 119.54c.06 3.82-5.95 3.82-5.9 0s5.96-3.83 5.9 0ZM78.39 291.8c0 2.4-3.74 2.4-3.7 0s3.73-2.4 3.7 0ZM69.1 288.17c0 2.4-3.74 2.4-3.7 0s3.73-2.4 3.7 0ZM72.55 284.9c0 2.41-3.74 2.41-3.71 0s3.74-2.4 3.71 0ZM85 287.81c0 2.4-3.74 2.4-3.7 0s3.77-2.4 3.7 0ZM79.8 277.28c0 2.4-3.73 2.4-3.7 0s3.74-2.4 3.7 0ZM89.79 272.57c0 2.4-3.74 2.4-3.71 0s3.74-2.41 3.71 0ZM106.84 262.22c0 2.4-3.74 2.4-3.7 0s3.74-2.4 3.7 0ZM107.21 278.55c0 2.4-3.74 2.4-3.71 0s3.74-2.4 3.71 0ZM97.59 288.35c0 2.4-3.74 2.4-3.7 0s3.73-2.35 3.7 0ZM103.21 293.8c0 2.4-3.73 2.4-3.7 0s3.74-2.41 3.7 0ZM113.92 290.71c0 2.4-3.74 2.4-3.7 0s3.78-2.4 3.7 0ZM119.18 279.1c0 2.4-3.74 2.4-3.7 0s3.74-2.4 3.7 0ZM121.36 290.53c0 2.4-3.74 2.4-3.7 0s3.73-2.4 3.7 0ZM127.17 288.17c0 2.4-3.74 2.4-3.71 0s3.74-2.4 3.71 0ZM127.17 275.65c0 2.4-3.74 2.4-3.71 0s3.74-2.4 3.71 0ZM119.54 268.57c0 2.4-3.73 2.4-3.7 0s3.74-2.4 3.7 0ZM133 269.12c0 2.4-3.74 2.4-3.7 0s3.7-2.4 3.7 0ZM139 276.19c0 2.41-3.74 2.41-3.7 0s3.7-2.4 3.7 0ZM137.15 283.09c0 2.4-3.74 2.4-3.71 0s3.74-2.4 3.71 0ZM145.49 274.2c0 2.4-3.73 2.4-3.7 0s3.74-2.4 3.7 0ZM142.41 265.67c0 2.4-3.74 2.4-3.7 0s3.73-2.4 3.7 0ZM150.39 257c0 2.4-3.73 2.4-3.7 0s3.74-2.44 3.7 0ZM151.12 265.85c0 2.4-3.74 2.4-3.7 0s3.73-2.4 3.7 0ZM156.2 270.21c0 2.4-3.74 2.4-3.7 0s3.73-2.41 3.7 0ZM158.38 261.86c0 2.4-3.74 2.4-3.71 0s3.74-2.4 3.71 0ZM156.74 251.33c0 2.41-3.73 2.41-3.7 0s3.74-2.4 3.7 0ZM165.09 256.23c0 2.41-3.74 2.41-3.7 0s3.74-2.4 3.7 0ZM172 248.07c0 2.4-3.74 2.4-3.71 0s3.71-2.4 3.71 0ZM166.18 242.62c0 2.41-3.74 2.41-3.7 0s3.73-2.4 3.7 0ZM162.19 236.46c0 2.4-3.74 2.4-3.7 0s3.73-2.41 3.7 0ZM169.08 230.83c0 2.4-3.73 2.4-3.7 0s3.74-2.4 3.7 0ZM175.25 233.55c0 2.4-3.74 2.4-3.7 0s3.74-2.4 3.7 0ZM175.8 227.2c0 2.4-3.74 2.4-3.71 0s3.74-2.4 3.71 0ZM174 214.86c0 2.4-3.74 2.4-3.7 0s3.7-2.4 3.7 0ZM166.65 206.22c0 2.4-3.74 2.4-3.71 0s3.74-2.4 3.71 0ZM160.37 197.44c0 2.4-3.73 2.4-3.7 0s3.74-2.44 3.7 0ZM170 195.3c0 2.4-3.74 2.4-3.7 0s3.7-2.4 3.7 0ZM173.26 205.28c0 2.4-3.74 2.4-3.71 0s3.74-2.4 3.71 0ZM177.85 210c0 2.41-3.73 2.41-3.7 0s3.74-2.43 3.7 0ZM176 198.57c0 2.4-3.74 2.4-3.7 0s3.7-2.4 3.7 0ZM139.69 194.72c0 2.4-3.74 2.4-3.71 0s3.74-2.4 3.71 0ZM152.93 184.56c0 2.4-3.73 2.4-3.7 0s3.77-2.4 3.7 0ZM157.83 175.48c0 2.41-3.74 2.41-3.7 0s3.74-2.4 3.7 0ZM146.22 173.67c0 2.4-3.74 2.4-3.7 0s3.73-2.4 3.7 0ZM148.58 166.41c0 2.4-3.74 2.4-3.7 0s3.73-2.41 3.7 0ZM143.64 158.25c0 2.4-3.74 2.4-3.7 0s3.74-2.41 3.7 0ZM138.42 160.24c0 2.4-3.74 2.4-3.71 0s3.74-2.4 3.71 0ZM133 151.9c0 2.4-3.74 2.4-3.7 0s3.7-2.41 3.7 0ZM125 156.43c0 2.4-3.74 2.4-3.7 0s3.7-2.43 3.7 0ZM126.62 163.69c0 2.4-3.74 2.4-3.7 0s3.74-2.4 3.7 0ZM117.19 157.52c0 2.4-3.74 2.4-3.71 0s3.74-2.4 3.71 0ZM126.26 148.45c0 2.4-3.74 2.4-3.7 0s3.73-2.4 3.7 0ZM117.73 148.45c0 2.4-3.74 2.4-3.7 0s3.74-2.4 3.7 0ZM109.2 151.71c0 2.41-3.74 2.41-3.7 0s3.74-2.4 3.7 0ZM106.44 145.36c0 2.4-3.73 2.4-3.7 0s3.74-2.36 3.7 0ZM100.27 149.17c0 2.4-3.73 2.4-3.7 0s3.74-2.4 3.7 0ZM97 143.55c0 2.4-3.73 2.4-3.7 0s3.78-2.4 3.7 0ZM91.06 149.17c0 2.4-3.74 2.4-3.71 0s3.74-2.4 3.71 0ZM85.25 147.36c0 2.4-3.74 2.4-3.7 0s3.73-2.36 3.7 0ZM81.44 155.52c0 2.41-3.74 2.41-3.7 0s3.73-2.4 3.7 0ZM74.36 151.53c0 2.4-3.74 2.4-3.7 0s3.74-2.4 3.7 0ZM85.25 163.51c0 2.4-3.74 2.4-3.7 0s3.73-2.4 3.7 0ZM95.77 158.61c0 2.4-3.73 2.4-3.7 0s3.74-2.4 3.7 0ZM158.38 166.23c0 2.4-3.74 2.4-3.71 0s3.74-2.4 3.71 0ZM166.72 176.76c0 2.4-3.73 2.4-3.7 0s3.74-2.41 3.7 0ZM166.72 186c0 2.4-3.73 2.4-3.7 0s3.74-2.39 3.7 0ZM139 212.14c0 2.4-3.74 2.4-3.7 0s3.7-2.4 3.7 0ZM131.52 220.31c0 2.4-3.74 2.4-3.7 0s3.74-2.41 3.7 0ZM120.63 188c0 2.4-3.73 2.4-3.7 0s3.74-2.4 3.7 0ZM106.7 169.13c0 2.41-3.74 2.41-3.7 0s3.73-2.4 3.7 0ZM97.83 195.42c0 2.4-3.74 2.4-3.7 0s3.74-2.42 3.7 0ZM105.81 215c0 2.4-3.73 2.4-3.7 0s3.74-2.38 3.7 0ZM109.68 231.23c0 2.4-3.73 2.4-3.7 0s3.74-2.4 3.7 0ZM89.12 232.2c0 2.4-3.74 2.4-3.7 0s3.74-2.4 3.7 0ZM83.55 254c0 2.4-3.73 2.4-3.7 0s3.74-2.43 3.7 0ZM71.94 268c0 2.41-3.74 2.41-3.7 0s3.76-2.4 3.7 0ZM63.56 246.31c0 2.41-3.74 2.41-3.7 0s3.73-2.4 3.7 0ZM55 231.07c0 2.4-3.74 2.4-3.71 0s3.71-2.4 3.71 0ZM62.26 217.28c0 2.4-3.73 2.4-3.7 0s3.74-2.4 3.7 0ZM47.51 205.82c0 2.41-3.74 2.41-3.71 0s3.74-2.4 3.71 0ZM54.22 188.59c0 2.4-3.74 2.4-3.7 0s3.73-2.41 3.7 0ZM41.15 195.3c0 2.4-3.73 2.4-3.7 0s3.74-2.4 3.7 0ZM42.42 184.41c0 2.4-3.73 2.4-3.7 0s3.74-2.41 3.7 0ZM41.88 179c0 2.4-3.74 2.4-3.7 0s3.74-2.4 3.7 0ZM36.25 187.35c0 2.4-3.73 2.4-3.7 0s3.74-2.35 3.7 0ZM31 192.07c0 2.4-3.73 2.4-3.7 0s3.7-2.4 3.7 0ZM30.09 199.33c0 2.4-3.74 2.4-3.71 0s3.74-2.4 3.71 0ZM32.44 205.68c0 2.4-3.73 2.4-3.7 0s3.74-2.4 3.7 0ZM28.09 209.31c0 2.4-3.74 2.4-3.7 0s3.73-2.4 3.7 0ZM28.27 216.93c0 2.4-3.74 2.4-3.7 0s3.74-2.4 3.7 0ZM35.53 214c0 2.4-3.74 2.4-3.7 0s3.73-2.37 3.7 0ZM37 227.82c0 2.4-3.74 2.4-3.7 0s3.7-2.4 3.7 0ZM27.73 239.61c0 2.4-3.74 2.4-3.71 0s3.74-2.4 3.71 0ZM27.73 228.91c0 2.4-3.74 2.4-3.71 0s3.74-2.41 3.71 0ZM43.69 238c0 2.4-3.73 2.4-3.7 0s3.74-2.42 3.7 0ZM35.53 244.51c0 2.4-3.74 2.4-3.7 0s3.73-2.4 3.7 0ZM30.63 247.6c0 2.4-3.74 2.4-3.7 0s3.73-2.4 3.7 0ZM33.53 254.67c0 2.4-3.73 2.4-3.7 0s3.74-2.4 3.7 0ZM39.7 255.58c0 2.4-3.73 2.4-3.7 0s3.74-2.4 3.7 0ZM40.79 262.66c0 2.4-3.74 2.4-3.7 0s3.74-2.4 3.7 0ZM73.24 187.52c0 2.4-3.74 2.4-3.71 0s3.74-2.4 3.71 0ZM55.82 172c0 2.4-3.74 2.4-3.71 0s3.74-2.36 3.71 0ZM48.56 174.21c0 2.41-3.74 2.41-3.7 0s3.73-2.4 3.7 0ZM50.74 165c0 2.4-3.74 2.4-3.71 0s3.74-2.38 3.71 0ZM58.24 160.18c0 2.4-3.74 2.4-3.71 0s3.74-2.4 3.71 0ZM64.53 154.62c0 2.4-3.74 2.4-3.71 0s3.74-2.4 3.71 0ZM70.09 161.63c0 2.41-3.74 2.41-3.7 0s3.74-2.4 3.7 0ZM55.82 258.9c0 2.4-3.74 2.4-3.71 0s3.74-2.41 3.71 0ZM48.32 267.85c0 2.4-3.74 2.4-3.71 0s3.74-2.4 3.71 0ZM57 266.88c0 2.4-3.74 2.4-3.71 0s3.77-2.4 3.71 0ZM55.57 278.73c0 2.41-3.73 2.41-3.7 0s3.74-2.4 3.7 0ZM50.49 274.38c0 2.4-3.73 2.4-3.7 0s3.74-2.38 3.7 0ZM62.51 283.73c0 2.4-3.74 2.4-3.71 0s3.74-2.4 3.71 0ZM163.28 227.2c0 2.4-3.74 2.4-3.71 0s3.74-2.4 3.71 0ZM170.72 221.21c0 2.4-3.74 2.4-3.71 0s3.74-2.4 3.71 0ZM160.37 216.31c0 2.4-3.73 2.4-3.7 0s3.74-2.4 3.7 0ZM150.21 223.93c0 2.41-3.74 2.41-3.7 0s3.74-2.4 3.7 0ZM146.4 238.09c0 2.4-3.74 2.4-3.7 0s3.74-2.4 3.7 0ZM87.75 293.61c0 2.41-3.73 2.41-3.7 0s3.74-2.4 3.7 0Z" class="cls-5"/><path d="M550.5 128.77a1.87 1.87 0 0 0 .41-3.69L488.72 111c1.85-.83 58.26 12.28 58 7.82-4.52-6.49-94.17-14.17-98.66-20.61.52-1.53 94.15 17.33 79.47 7.45l-22.43-3.17 28.42 2.28c2.4.23 2.72-3.57.3-3.73l-7.34-.59 16.94.7c11-5-66.22-4-64.29-5.14l66.41-2.44a1.87 1.87 0 1 0-.14-3.74l-64.76 2.39 58.24-6.67a1.87 1.87 0 0 0 1.65-2.07c1.44-4.34-49.18 4.73-50.13 3.86.54-.74 29.65-4.71 27.88-7.1a1.24 1.24 0 0 0-1.47-1l-36 7.5c28.08-8.93 67.09-15.5 60-18.93-.19 0-.6 0-56.07 15.26 24.64-8.31 44.4-10.45 45.16-15.07-1.63-3.61-9.56 1.57-23.48 4.84 13.14-5.82 38.87-12.66 28.08-15-15 6.29-60.86 23.34-79.82 28.78l78-34.29a1.88 1.88 0 0 0 1-2.47c.15-4.49-37.24 15.33-38.39 14.85.35-.8 23.11-9.65 20.79-11.44-.14-2.92-23.79 10.79-24.65 10.53.43-1.28 40.43-19.43 36.78-22.08a1.87 1.87 0 0 0-2.54-.75l-67.82 36.81 56.43-35.73a1.87 1.87 0 1 0-2-3.16l-45.63 28.9 51.9-36a1.87 1.87 0 1 0-2.13-3.07l-51.07 35.42 45.91-37.22c7.52-15.86-57.79 44-56.82 41.25-1.24-.93 65.91-56.81 49.56-51.87l-42.8 40.36c11.07-14.52 30.35-30.75 21.68-30.37-.4.14-.73.25-14.73 16.51-.09-1.39 29.04-33.8 24.67-34.8-2.48-2.17-5.7 5.07-7.1 6.09a1.87 1.87 0 0 0-3.34-.94l-22.71 30.1L485.42 5.1c2.72-17.92-48.3 67.73-48.07 64.5L476.06 6a1.87 1.87 0 0 0-.62-2.57c-2.17-4.22-24.19 37.86-25.27 37.9C459.07 19 478.12-11 469.23-7.7c-.27.17-.51.34-4.73 9.26a1.87 1.87 0 0 0-3.5-.45l-17.84 40.7 12.68-39.38C456.61.14 453-1 452.28 1.28l-8.61 26.62 10-35.31c-2.29-11.94-20 66-20.63 63.78l12.44-54.1c.58-2.35-3.13-3.21-3.64-.83l-8.94 38.89c1.14-17 6.52-34.67 11.47-49.82a1.87 1.87 0 0 0-1.18-2.37c-4.09-.06-3.67 7.74-5.42 10.82.39-7.36 4-15.92-1.8-12.83-.28.36-.6.78-4.95 37.85-1.6 6.52-3.1 13.09-4.5 19.51-.93-.84 6.39-57.57 2.07-55.5-3.95-2.49-4.31 47.75-5.31 48.4l-1.56-53a1.87 1.87 0 0 0-1.92-1.81 1.87 1.87 0 0 0-1.8 1.92c.83 21 1.44 50.9.3 71.93-2.15-31.46.55-63.17-3.84-64.85-4.5 1 .34 35.33.2 67.78-4.91-34.29-7-72.36-10-76.29-5.78 3.18-1.5-1.42 5.71 71.89-.47-1.84-.94-3.68-1.43-5.51l-12.84-64c-.44-2.37-4.18-1.64-3.67.74l5.69 28.34c-5.3-15.21-9.64-25.6-9.74-25.83-.9-2.25-4.41-.78-3.44 1.44 0 .13 1.33 3.2 3.32 8.35-6.34-1.24 15.13 40.25 20.71 78.8-8.11-26.14-12.73-55-16.91-57.73-4.22 3.45-1.55-.3 10.41 48C389.55 37.21 373.62-20.8 370-9.35c0 .37 0 .76 17.86 47.94L369.75-.27c-9.43-7.52 26.07 59.14 24.18 57.93-1.39.57-37.36-78.62-36.76-61.33l14.75 27.8c-5.71-8.2-9.18-20-12-13.47 0 .55 0 .94 22 37.5C367.47 28 349.37-6.57 349.66 6.09c.4.6 24.83 37.51 44.56 67.46C371.18 46 338.72-4 340.34 10.2c.42.54 31.43 40.4 55 71-28.45-31.5-66-73-65.21-64.38.43.41 35.17 33.05 62.73 65.31C370.28 59.2 341.36 27 343 35.78c.38.35 29.87 27.74 53.08 53.44L364.5 57.79a1.25 1.25 0 0 0-1.76 0c-2.93 1 26.49 27.22 26.39 28.05-25.7-17.91-71-56.65-65.81-43.66.55.39 35.18 25.08 62.72 46L317 43.7a1.87 1.87 0 1 0-2 3.14l65.74 42.39-71.5-35.83a1.87 1.87 0 0 0-2.51.84c-2.93 3.33 50.41 26.15 51.16 27.76l-53.84-20c-2.25-.88-3.59 2.69-1.3 3.5l7.81 2.91a1.88 1.88 0 0 0 .4 3.3l17.6 6.4c-2.39 2.08 2.44 2.84 3.62 3.33-.76.44-31.67-10.17-31.18-7.22-1.14 3.37 80.69 22.08 81.62 23.56l3.92 1.43c-.5 1.4-96.78-25.73-88.42-17.84l62.05 14.31-63.12-8.77c-2.39-.37-2.92 3.4-.51 3.7l10.92 1.52a1.87 1.87 0 0 0-.79 3.31l-13.11-1.14c-17.68 6.41 93.54 10.17 90.3 11.6-.39 1.68-104.6-1.75-88 5.73l27-.61c-1.17 1-40.62-.79-38.92 3.21-1.93 4.12 41.82-.48 42.65.41l-29.94 2.67c-2.32.16-2.15 3.78.16 3.73.15 0 11-1 11.2-1l-21.2 2.26c-2.41.23-2 4 .4 3.72l56.75-6.06c-30.53 7.31-59.49 12.65-50.35 16.88a559.37 559.37 0 0 1 76.62-18c-50.17 12.88-93.64 25.35-81.5 28.62.46-.19 39.16-16.08 100.39-29a2.17 2.17 0 0 1-.07.24c-46.38 14.18-110.73 41-96.37 42.71a631.66 631.66 0 0 1 77.79-33c-33.81 15.08-71.94 28.7-70.95 33.13 2.47 2.78 4.34-.65 12.11-3.5.06 6.13 8.54-1.73 20.54-6.8-15.61 9.19-26.26 12.54-26 15.73 2.8 2.4 48.42-27.43 78.25-38.42-37.51 19.28-83.22 43.59-74.69 44.86.41-.27 38.07-24.62 76.51-43-74.16 42.08-125.6 80.89-17.91 13.29-16.42 10.7-36.89 25.89-49.17 35.56-7.78 6.12-7.78 6.18-7.78 7.28.07 7.58 25.48-18.46 47.72-32.11-16 13.86-38.64 29.71-27.4 28.1.27-.24 19.06-16.85 39.47-33-11.62 11.88-27.48 22-20.17 23.26-12.72 13.79-28.15 25.26-23.34 26.62 2.94-1.82 28.56-28.87 49.1-48.64-20.43 23.5-46.15 52-46.49 52.34-2.13 13 25.24-24.11 45.21-45.18-39.14 48.29-39.27 48.69-39.39 49 .28 11.32 27.39-30.72 49.64-55.75l-37.23 51.46a1.88 1.88 0 0 0 1.52 3c1.2 1 10.16-13.25 10.9-13.76l-14.65 21.65a1.87 1.87 0 1 0 3.09 2.1L386 161.41c-11 19.32-23.45 42.27-33.49 63.53a1.87 1.87 0 1 0 3.38 1.6c8.65-18.33 19.12-37.92 28.88-55.34-9.94 24.45-25.22 48.32-19.37 49 3.27-1 10.53-22.49 22.41-46.67-9.18 24.9-27.45 62.66-17 54 1.19-3.53 20.09-52.3 32.29-81.47l-19.25 60.1a1.87 1.87 0 0 0 1.23 2.36L378 232c2.79 18.72 31.12-97 31.87-93.29l.06.1c-22.61 97-22.61 97.46-22.61 97.73 5 11.59 12.63-45.21 22.62-81.3l-12.19 78.21a1.87 1.87 0 0 0 3.69.57l9-57.46-3.87 62.86a1.87 1.87 0 0 0 3.74.23l4.13-67.22 1.56 61.96a1.87 1.87 0 0 0 3.74-.09l-1.49-60.43c4.73 26.49 3.92 56.75 8.4 57.54 3.68-1 .25-9.43-.29-21.31 4.06 21.7 2.5 36.86 6.73 37.51 4.43-2-4.48-45-10-80.87 4.77 21.66 9.32 49.33 9.38 49.7 8.93 10.4-3.44-37.14-7.3-57.4 13.65 45.18 17 75.4 17.07 75.72 8.54 9.06-.7-31.61-13.54-77a7.74 7.74 0 0 0 4.25-2.06l25.57 80a1.87 1.87 0 0 0 2.35 1.21c4.58.77-15.05-50.08-14.36-51.06 13.12 29.35 18.93 55.42 23.65 55.43 4-3-19.38-52.93-34-89.62.22-.34.43-.69.63-1l15.35 36.21c.92 2.25 4.42.75 3.44-1.46L439.71 148l16.23 27.85 22.43 49.11a1.86 1.86 0 0 0 1.7 1.09 1.88 1.88 0 0 0 1.7-2.64c-9.17-20.07-28.25-61.89-37.27-81.63 1.66-.72 53.39 99.65 52.18 81.66l-33.37-57 7 10.33a1.88 1.88 0 0 0 3.39-1.34l24.86 33.62c15.31 8.17-38.05-55.36-35.54-54.34.8.53 8.32 10.06 9.42 9.48l17.44 19c1.62 1.81 4.43-.77 2.76-2.53l-33.46-36.46 57.45 51.92a1.87 1.87 0 0 0 2.51-2.78c-.42-.69-80.33-72-80.34-72.92 12.3 3.41 76.7 54.91 87.95 63.19a1.87 1.87 0 0 0 2.27-3l-54.65-41.75c1.41-.23 43.85 32.55 44.66 28.08 3.81-2.34-37.89-26.88-38.12-28.16l52.82 31.52a1.88 1.88 0 0 0 2.56-.65c3.59-2.74-47.5-29.36-47.85-30.73l26.19 13.43c2.12 1.14 3.89-2.25 1.7-3.33l-13.46-6.9c5.33-3.07-44-23.38-44-24.72 56.26 15.75 77.87 42 82.83 40.15 2.08-6.55-36.7-26.55-51.13-32.71 1.44-.49 44.36 18.29 44.28 13.9a1.87 1.87 0 0 0-1.13-2.39l-71.82-25.77c56.45 14.66 85.86 29.36 88 29.8 8.76-3.59-19-12-53.62-23.85.41.05 53.82 12.29 54.22 12.24Z" class="cls-11"/><path d="M455.88 112.7a2.23 2.23 0 0 1 .3-.2l4 1.42c-1.43-.41-2.86-.82-4.3-1.22Z" class="cls-11"/><path d="M310.33 92.76c0 2.93-4.57 2.93-4.52 0s4.56-2.94 4.52 0ZM295.66 96.09c0 2.94-4.57 2.94-4.53 0s4.57-2.93 4.53 0ZM298.06 109.7c0 2.93-4.57 2.93-4.53 0s4.57-2.94 4.53 0ZM288.05 114.1c.05 2.93-4.56 2.93-4.52 0s4.57-2.93 4.52 0ZM299.06 119.1c0 2.93-4.57 2.93-4.53 0s4.57-2.93 4.53 0ZM289.25 124.1c.05 2.94-4.56 2.94-4.52 0s4.57-2.93 4.52 0ZM295.86 134.91c0 2.93-4.57 2.93-4.53 0s4.57-2.91 4.53 0ZM290.25 145.71c.05 2.94-4.56 2.94-4.52 0s4.57-2.93 4.52 0ZM294.06 159.72c0 2.93-4.57 2.93-4.53 0s4.57-2.94 4.53 0ZM303.46 160.72c0 2.93-4.57 2.93-4.52 0s4.56-2.94 4.52 0ZM315.66 158.52c0 2.93-4.56 2.93-4.52 0s4.57-2.94 4.52 0ZM329.54 143.18c0 2.93-4.57 2.93-4.53 0s4.57-2.94 4.53 0ZM320.2 128.24c0 2.93-4.57 2.93-4.52 0s4.56-2.94 4.52 0ZM337.27 116.23c.05 2.94-4.56 2.94-4.52 0s4.57-2.93 4.52 0ZM359.41 124.36c0 2.94-4.56 2.94-4.52 0s4.57-2.93 4.52 0ZM386.62 108.36c.05 2.93-4.56 2.93-4.52 0s4.57-2.94 4.52 0ZM384.08 122.64c.05 2.93-4.56 2.93-4.52 0s4.57-2.94 4.52 0ZM388.89 85c0 2.93-4.57 2.93-4.53 0s4.57-2.91 4.53 0ZM368.75 92c0 2.93-4.56 2.93-4.52 0s4.56-3 4.52 0ZM335.67 93c0 2.94-4.56 2.94-4.52 0s4.57-2.91 4.52 0ZM331.47 79.09c0 2.93-4.57 2.93-4.52 0s4.56-2.94 4.52 0ZM314.46 70.35c0 2.93-4.57 2.93-4.53 0s4.57-2.94 4.53 0ZM304.46 74.48c0 2.94-4.57 2.94-4.52 0s4.56-2.93 4.52 0ZM300.66 80.09c0 2.93-4.57 2.93-4.52 0s4.56-2.94 4.52 0ZM299.06 88.69c0 2.93-4.57 2.93-4.53 0s4.57-2.93 4.53 0ZM305.66 63.68c0 2.93-4.57 2.93-4.52 0s4.56-2.93 4.52 0ZM310.66 55.08c0 2.93-4.56 2.93-4.52 0s4.57-2.94 4.52 0ZM318.6 43.94c0 2.93-4.57 2.93-4.52 0s4.56-2.94 4.52 0ZM326.07 40.88c0 2.93-4.57 2.93-4.52 0s4.56-2.94 4.52 0ZM346.08 34.87c0 2.93-4.57 2.93-4.53 0s4.57-2.94 4.53 0ZM332.34 14.86c.05 2.93-4.56 2.93-4.52 0s4.57-2.93 4.52 0ZM344.08 9.06c0 2.93-4.57 2.93-4.53 0s4.57-2.94 4.53 0ZM353.48 5.06c0 2.93-4.57 2.93-4.52 0s4.56-2.94 4.52 0ZM364.08 10.66c.05 2.93-4.56 2.93-4.52 0s4.57-2.94 4.52 0ZM366.35 23.66c0 2.94-4.57 2.94-4.52 0s4.56-2.93 4.52 0ZM370.89.25c0 2.94-4.57 2.94-4.53 0s4.57-2.93 4.53 0ZM389.69-1.55c.05 2.94-4.56 2.94-4.52 0s4.57-2.93 4.52 0ZM400 1.79c.05 2.93-4.56 2.93-4.52 0s4.52-2.94 4.52 0ZM409.83 13.79c.05 2.94-4.56 2.94-4.52 0s4.57-2.93 4.52 0ZM426.64 25.53c0 2.94-4.57 2.94-4.52 0s4.56-2.93 4.52 0ZM421.84 55.27c0 2.93-4.57 2.93-4.52 0s4.56-2.93 4.52 0ZM408.23 64.87c0 2.94-4.56 2.94-4.52 0s4.57-2.93 4.52 0ZM425.57 69.14c.05 2.94-4.56 2.94-4.52 0s4.57-2.93 4.52 0ZM436.65 45.27c0 2.94-4.57 2.94-4.52 0s4.56-2.93 4.52 0ZM446 .72c0 2.94-4.57 2.94-4.53 0s4.53-2.93 4.53 0ZM456.39 2.06c0 2.93-4.56 2.93-4.52 0s4.56-2.94 4.52 0ZM464.66.72c0 2.94-4.56 2.94-4.52 0s4.56-2.93 4.52 0ZM477.86 4.46c0 2.93-4.57 2.93-4.52 0s4.56-2.94 4.52 0ZM468.32 17.73c.05 2.93-4.56 2.93-4.52 0s4.57-2.94 4.52 0ZM486.93 2.86c0 2.93-4.57 2.93-4.52 0s4.59-2.94 4.52 0ZM486.4 15c0 2.93-4.57 2.93-4.53 0s4.57-2.93 4.53 0ZM495.2 8.19c0 2.94-4.57 2.94-4.52 0s4.56-2.93 4.52 0ZM487.2 27.13c0 2.94-4.57 2.94-4.53 0s4.57-2.93 4.53 0ZM453.44 57.54c.05 2.94-4.56 2.94-4.52 0s4.57-2.93 4.52 0ZM450.65 72.22c0 2.93-4.57 2.93-4.52 0s4.56-2.94 4.52 0ZM440.78 74.08c0 2.94-4.57 2.94-4.52 0s4.56-2.93 4.52 0ZM436.51 86.09c0 2.93-4.56 2.93-4.52 0s4.56-2.94 4.52 0ZM430.91 96.23c0 2.93-4.57 2.93-4.52 0s4.61-2.94 4.52 0ZM415.44 101.83c0 2.93-4.57 2.93-4.53 0s4.57-2.94 4.53 0ZM409.57 94.89c0 2.94-4.57 2.94-4.53 0s4.57-2.89 4.53 0ZM409.3 116.9c0 2.93-4.57 2.93-4.52 0s4.56-2.9 4.52 0ZM422.64 124.1c0 2.93-4.57 2.93-4.52 0s4.56-2.94 4.52 0ZM421.31 110.36c0 2.94-4.57 2.94-4.53 0s4.57-2.93 4.53 0ZM362.22 141.84c0 2.94-4.56 2.94-4.52 0s4.56-2.93 4.52 0ZM343.14 160.25c0 2.93-4.56 2.93-4.52 0s4.56-2.93 4.52 0ZM309.26 165.59c0 2.93-4.56 2.93-4.52 0s4.56-2.94 4.52 0ZM311.26 172.32c.05 2.94-4.56 2.94-4.52 0s4.57-2.93 4.52 0ZM309.06 180.32c0 2.94-4.56 2.94-4.52 0s4.56-2.93 4.52 0ZM315.46 186.53c.05 2.93-4.56 2.93-4.52 0s4.57-2.94 4.52 0ZM332.67 181.12c0 2.94-4.57 2.94-4.52 0s4.56-2.93 4.52 0ZM353.08 170.92c0 2.93-4.57 2.93-4.52 0s4.56-2.92 4.52 0ZM417.57 141.31c0 2.93-4.57 2.93-4.52 0s4.56-2.93 4.52 0ZM426.91 134.11c0 2.93-4.57 2.93-4.53 0s4.62-2.94 4.53 0ZM427.44 142.38c0 2.93-4.57 2.93-4.52 0s4.56-2.94 4.52 0ZM438.65 133.57c0 2.94-4.57 2.94-4.53 0s4.57-2.93 4.53 0ZM433.84 119.43c.05 2.94-4.56 2.94-4.52 0s4.57-2.93 4.52 0ZM430.78 106.36c0 2.94-4.56 2.94-4.52 0s4.56-2.93 4.52 0ZM439.05 105c0 2.93-4.56 2.93-4.52 0s4.56-2.91 4.52 0ZM446.05 95.89c.05 2.94-4.56 2.94-4.52 0s4.57-2.89 4.52 0ZM449.58 104.23c.05 2.93-4.56 2.93-4.52 0s4.57-2.94 4.52 0ZM444.78 114.37c0 2.93-4.57 2.93-4.52 0s4.56-2.94 4.52 0ZM445.72 139.18c0 2.93-4.57 2.93-4.52 0s4.56-2.94 4.52 0ZM440.78 150.51c0 2.93-4.57 2.93-4.52 0s4.56-2.94 4.52 0ZM431.18 156.64c0 2.94-4.57 2.94-4.53 0s4.57-2.93 4.53 0ZM419.7 157.32c.05 2.93-4.56 2.93-4.52 0s4.57-2.94 4.52 0ZM452.78 130.11c.05 2.93-4.56 2.93-4.52 0s4.57-2.94 4.52 0ZM461.05 115.17c.05 2.93-4.56 2.93-4.52 0s4.57-2.94 4.52 0ZM458.39 106.63c0 2.93-4.57 2.93-4.53 0s4.57-2.93 4.53 0ZM465.18 83.42c.05 2.93-4.56 2.93-4.52 0s4.57-2.93 4.52 0ZM475.19 89.56c.05 2.93-4.56 2.93-4.52 0s4.57-2.94 4.52 0ZM495.33 76.08c.05 2.94-4.56 2.94-4.52 0s4.57-2.93 4.52 0ZM491.73 51.14c0 2.94-4.56 2.94-4.52 0s4.57-2.93 4.52 0ZM503.68 30.87c0 2.93-4.57 2.93-4.53 0s4.57-2.94 4.53 0ZM507.34 18.66c0 2.94-4.57 2.94-4.52 0s4.56-2.93 4.52 0ZM513.34 26.26c0 2.94-4.57 2.94-4.52 0s4.56-2.93 4.52 0ZM519.74 30.27c0 2.93-4.56 2.93-4.52 0s4.57-2.94 4.52 0ZM515.54 40.47c0 2.93-4.56 2.93-4.52 0s4.56-2.93 4.52 0ZM517.14 53.88c.05 2.93-4.56 2.93-4.52 0s4.57-2.94 4.52 0ZM528.75 42.67c0 2.94-4.57 2.94-4.53 0s4.57-2.93 4.53 0ZM534.15 50.67c0 2.94-4.57 2.94-4.52 0s4.56-2.93 4.52 0ZM537.35 59.68c0 2.93-4.57 2.93-4.52 0s4.56-2.94 4.52 0ZM530.35 68.48c0 2.94-4.57 2.94-4.53 0s4.57-2.93 4.53 0ZM543.15 69.08c.05 2.94-4.56 2.94-4.52 0s4.57-2.93 4.52 0ZM521.14 79.49c.05 2.93-4.56 2.93-4.52 0s4.57-2.94 4.52 0ZM519.14 92c.05 2.93-4.56 2.93-4.52 0s4.57-3 4.52 0ZM541 83.69c0 2.93-4.56 2.93-4.52 0s4.52-2.94 4.52 0ZM548.15 92.35c.05 2.93-4.56 2.93-4.52 0s4.57-2.93 4.52 0ZM545.75 99.89c0 2.94-4.56 2.94-4.52 0s4.57-2.89 4.52 0ZM536.55 102.09c0 2.94-4.57 2.94-4.52 0s4.56-2.93 4.52 0ZM529.55 107.5c0 2.93-4.57 2.93-4.53 0s4.57-2.94 4.53 0ZM494.73 114.7c0 2.93-4.56 2.93-4.52 0s4.57-2.93 4.52 0ZM547.15 118.5c.05 2.93-4.56 2.93-4.52 0s4.57-2.93 4.52 0ZM552.76 126.9c0 2.94-4.57 2.94-4.53 0s4.57-2.9 4.53 0ZM552.16 138.51c0 2.93-4.57 2.93-4.53 0s4.57-2.94 4.53 0ZM535.35 138.11c0 2.93-4.57 2.93-4.52 0s4.56-2.94 4.52 0ZM543.75 156.12c0 2.93-4.56 2.93-4.52 0s4.57-2.94 4.52 0ZM503.74 140.91c0 2.93-4.57 2.93-4.53 0s4.57-2.91 4.53 0ZM517.74 150.71c0 2.94-4.56 2.94-4.52 0s4.57-2.93 4.52 0ZM519.74 165.92c0 2.93-4.56 2.93-4.52 0s4.57-2.92 4.52 0ZM537 168.72c0 2.93-4.57 2.93-4.52 0s4.52-2.93 4.52 0ZM530.15 182.13c0 2.93-4.57 2.93-4.53 0s4.57-2.94 4.53 0ZM519.54 193.93c.05 2.93-4.56 2.93-4.52 0s4.57-2.93 4.52 0ZM493.53 181.93c.05 2.93-4.56 2.93-4.52 0s4.57-2.93 4.52 0ZM474.73 162.32c0 2.93-4.57 2.93-4.53 0s4.57-2.94 4.53 0ZM474.13 175.72c0 2.94-4.57 2.94-4.53 0s4.57-2.93 4.53 0ZM445.31 160.92c.05 2.93-4.56 2.93-4.52 0s4.57-2.92 4.52 0ZM460.32 175.72c0 2.94-4.57 2.94-4.52 0s4.56-2.93 4.52 0ZM456.12 186.13c0 2.93-4.57 2.93-4.52 0s4.56-2.94 4.52 0ZM432.31 173.32c0 2.94-4.57 2.94-4.52 0s4.56-2.93 4.52 0ZM434.11 182.33c0 2.93-4.57 2.93-4.52 0s4.56-2.94 4.52 0ZM440.11 202.93c.05 2.94-4.56 2.94-4.52 0s4.57-2.93 4.52 0ZM436.51 216.14c0 2.93-4.56 2.93-4.52 0s4.56-2.94 4.52 0ZM446.31 234.55c.05 2.93-4.56 2.93-4.52 0s4.57-2.94 4.52 0ZM435.31 245c0 2.93-4.57 2.93-4.52 0s4.56-3 4.52 0ZM427.51 228.94c0 2.94-4.57 2.94-4.53 0s4.57-2.94 4.53 0ZM419.1 183.33c0 2.93-4.56 2.93-4.52 0s4.57-2.94 4.52 0ZM387.89 206.73c0 2.94-4.56 2.94-4.52 0s4.57-2.93 4.52 0ZM382.09 232.54c0 2.94-4.57 2.94-4.52 0s4.56-2.93 4.52 0ZM391.49 236.55c.05 2.93-4.56 2.93-4.52 0s4.57-2.94 4.52 0ZM401.44 233.35c0 2.93-4.57 2.93-4.53 0s4.57-2.94 4.53 0ZM413.1 209.34c0 2.93-4.56 2.93-4.52 0s4.57-2.94 4.52 0ZM372.35 194.53c0 2.93-4.56 2.93-4.52 0s4.57-2.93 4.52 0ZM367.55 217.74c0 2.93-4.57 2.93-4.52 0s4.56-2.93 4.52 0ZM371.42 227.14c0 2.94-4.57 2.94-4.52 0s4.56-2.93 4.52 0ZM356.48 225.74c0 2.94-4.57 2.94-4.52 0s4.56-2.93 4.52 0ZM352.28 203.73c0 2.94-4.57 2.94-4.52 0s4.56-2.93 4.52 0ZM349.21 215.07c0 2.94-4.57 2.94-4.52 0s4.56-2.93 4.52 0ZM340.27 207.47c.05 2.93-4.56 2.93-4.52 0s4.57-2.94 4.52 0ZM334 204.13c.05 2.94-4.56 2.94-4.52 0s4.57-2.93 4.52 0ZM329.74 197.73c0 2.94-4.57 2.94-4.53 0s4.57-2.93 4.53 0ZM410.7 240.35c0 2.93-4.56 2.93-4.52 0s4.56-2.94 4.52 0ZM420.1 234.35c0 2.93-4.56 2.93-4.52 0s4.57-2.94 4.52 0ZM462.22 235.56c0 2.93-4.56 2.93-4.52 0s4.56-2.94 4.52 0ZM471.72 239.55c0 2.93-4.56 2.93-4.52 0s4.57-2.94 4.52 0ZM482.33 224.14c0 2.94-4.57 2.94-4.52 0s4.56-2.93 4.52 0ZM497.33 224.34c.05 2.94-4.56 2.94-4.52 0s4.57-2.93 4.52 0ZM502.34 207.94c0 2.93-4.57 2.93-4.53 0s4.57-2.94 4.53 0ZM470.92 133.51c.05 2.93-4.56 2.93-4.52 0s4.6-2.94 4.52 0ZM473.59 56.74c0 2.94-4.56 2.94-4.52 0s4.57-2.93 4.52 0ZM393.29 33.8c0 2.94-4.56 2.94-4.52 0s4.57-2.93 4.52 0ZM394.29 20.46c0 2.94-4.56 2.94-4.52 0s4.57-2.93 4.52 0ZM376.22 51.14c0 2.94-4.57 2.94-4.52 0s4.56-2.93 4.52 0ZM364.75 58.34c0 2.94-4.57 2.94-4.52 0s4.56-2.93 4.52 0ZM392.69 54.54c.05 2.94-4.56 2.94-4.52 0s4.57-2.93 4.52 0ZM651.7 537.3c6 .28 8.86 0 14.64.12s10.59 1.45 14.13 1.93c-4.82-5.66-23.47-5.59-28.77-2.05ZM619.57 728c2.8-25.15 3.85-149.6.46-174.35-2.13 11.85-2.92 163.48-.46 174.35Z" class="cls-5"/><path d="M617.42 803.56c1.39-.08 3-.1 4.43-.15-.09-.46-1.15-58.76-2.81-66.29-1.81-.65-1.52 66.63-1.62 66.44Z" style="fill:#fa5d52"/><path d="M594.25 595.06c3.74-9 12.61-37.75 21.62-43.4-10.32 3.16-23.27 37.74-21.62 43.4ZM583.69 571.21c6.07-6.55 11.53-16.4 31-21.8-9.46-3.41-31.86 15.01-31 21.8ZM566.06 570.48c.9.66 1.74-1 4.54-3.39 8.21-10.46 21-16.44 32.53-18.64-10.42-4.68-37.45 14.24-37.07 22.03Z" class="cls-5"/><path d="M549.79 557.46c14.79-7.39 48.52-15.42 65-9.88-12.36-11.2-60.7-.87-65 9.88ZM565.43 539c.42 1 2 .49 5.57-.17 13.46-2.51 26.79-1.25 36.93 3-6.13-8.9-38.38-8.99-42.5-2.83ZM589.05 496.31c12.33 12.65 21.54 21.56 28.25 42.44 2.41-11.75-23.79-45.53-28.25-42.44ZM647.54 495c-6.35 4.84-22.45 29.44-22.12 37.2.14-15.01 12.34-36.68 22.12-37.2ZM586.59 512.94a123.32 123.32 0 0 1 15.13 11.32c5.56 3.93 14.8 17.86 15.13 20.69-1.75-14.88-23.78-33.54-30.26-32.01ZM650.78 506.24c-6.45 3.81-22.32 23.6-24.91 30.19 2.75-10.61 18.76-31.01 24.91-30.19ZM665.4 509.32c.13 1.27-1.87 1.63-5.55 4.07a142.45 142.45 0 0 0-14.21 9.69c-7.68 4.79-19.25 17.3-20.12 21.24 3.84-17.41 32.63-35.32 39.88-35Z" class="cls-5"/><path d="M667.76 529c-5.11 1.25-9.34 1.22-17.15 3.7-6.51 1.06-15.26 6.06-19.5 8.63C635 532.88 662.66 525 667.76 529ZM664.75 546.51c-2.75.06-8.37-1.06-17-1.22a122.39 122.39 0 0 0-21.72 1.32c6.17-6.48 35.8-5.89 38.72-.1ZM649.94 579.11c-2.6-5-4.22-7.06-9.13-14.66s-12-13.27-14.74-15.76c8.87.83 26.64 24.55 23.87 30.42ZM640.56 590.08c-2.4-7.12-8.34-23.12-12.83-29.86-3.13-5-4.15-6.05-4.5-7.31 8.32 1.75 21.42 32.09 17.33 37.17ZM584 524.11c15.16 8.13 20.1 7.78 32.75 23-1.5-9.26-26.59-25.51-32.75-23ZM620.25 548.7c1.55-1.56 1.55-23.16 1.92-34.15-.15-12.33.67-27.34-1.44-26.8S619 543 620.25 548.7ZM626.17 509.07c.25.33 1.69-2.63 6-9.27 2.06-3.19 6.83-7.31 7.78-10.62-6.17 1.06-14.07 14.55-13.78 19.89ZM615.49 522.94c-.33.25-.89-3-3.16-10.56A124.55 124.55 0 0 0 607.8 500c5.61 2.74 9.45 17.89 7.69 22.94ZM637.12 549.3c3.85 2.09 9.1 4.79 13.16 7.39s7.6 6.58 10.75 9.42c-.75-7.4-17.33-17.45-23.91-16.81Z" class="cls-5"/></g><g id="palm_trees" data-name="palm trees"><path d="M522.36 540.21c-19.48-5.45-43.37-4.89-60.12 7.43 10.37-12.15 24.33-14.2 38.28-16.56-6.33-1.32-13.86-.41-20 1.57 6.8-5.06 1-4.12-2.77-1 .77-2 1.82-5 .87-7 6.79-2.94 11.89-8.41 18.11-12.16 1.76-1.2 5.07-1.49 5.8-3.61-3.13-1.4-7.59 2.25-11.31 1.56 7.36-5.94-9.67.21-11 2.87-7.7 3.61-12 13.2-18.64 18.82 2.05-11.39 16.4-29.61 15.57-30.29s-8.95 7.93-11.9 11.5c.95-3.89 6.77-9.55 6.17-10.31s-7.12 5.35-9.72 8.93c2-5.84 8.37-7.79 10.81-13 2.14-9.89 3.33-14.65-5.26-4.19-1.34 1.61-.44 4.32-1.8 5.91 1.35-7.65-3.48 1.64-5.74 3-.22-2.84.26-7.4-3-8.57-.42-6-5.32 3.08-4.86 7-6.12-9.19 4.1 13.84 2.38 20.33-3.41-9.51-9.21-18.3-14.07-27.5-.74-1.46-2.2-.52-3.25-2.61-.32-.64-1.28-1.54-1.79-1-2.41 4.8 7.12 17.14 8.29 23.44-8.3-7.16 3.73 11.18 4.88 13.52-2.86-.65 2.7 6.64 3 8.06-2.63.18-2.33-4.37-5.1-4.28-.57-.34-.57-1.14-.85-1.73-.57-1.27-2.3-1.54-3.15-2.64-.57-1-1.86-2.45-1.56-.65-2-2.31-3.67-4.65-6.88-5.43-4.68-1.82-15-10.55-12.88-5.25-2.86-2.52-4.15-.71-1.37 1.43 7.21 5.46 16.67 8.41 22.1 16-7.79-5.45-16.42-12.16-26.1-11.69-.71-.45-2.44-.81-2.27.49 11.86 6.3 29.5 8.92 35.06 23.09-7.38-6.62-35.59-8.23-37.73-6.35-3.37.16-9.23-.13-9.39 1.12 3.82 2.23 23.29.57 28.9 1.53 4.33 0-.88.72 8.67 1.44a16.3 16.3 0 0 1 7.06 2.25c-11.14-1.84-28.51-2.6-42 1.61-10.52 1.76-9.31 4.17-9.31 4.17-30.63 16.32 39.63-17.93 56.16-1-10.17-6-23.88 2-24.86 2-5.78.08-4.74 1.92-5.21 2-2.65.48-1.48 1.6-2.33 1.77-6.58 1.28-5 2.79-5.78 3.29-6.66 4.25-6.26 5.62-7.14 8.91-.69 2.54-6.59 5.94-5.62 6.82 7.69-3.91 29.51-30.77 49-25.21-2.25-1.62-32.61 10.22-33 14.93-.08.89-5.54 3.38-8.11 5.06s-2.65 4.5-3.69 6.91-4.33 5.69-3.69 5.94c.53.74 23.4-25.9 29.94-25.45-2.52.5-20.73 15.94-18.7 19.59 1 .8 5.29-6.35 9.31-10.68s10.59-7.79 10.59-7.79c.54 0-19.73 18.38-15 20.23-3.57 5.75-.58 5.66 2.25-1.28 3-6.08 6.81-7.19 10.09-12.92-1 7.44 11.34-20.33 22.81-12.67-8.65 1-21.75 39-21.26 40.68 1.28.56 1.85-3.21 3.37-5.62 7.7-9.84 5.59-27.1 17.91-34.32 10 52.78-1.92 228.78 1.12 277.14-.64 12.19 7.06 5.14 7.06 5.14-2.57-58.35 1.44-223.26.35-280.46 5.12 6.55 5.09 15.51 9.31 22.6 1.13 5.46 1.13 10.87 4.67 15.24 5.4 4.78-3.05-23.19-4.7-24.86a146.46 146.46 0 0 0-8.54-14.13c.43-3.18 4.45-.81 6.43.7 4.24 2.94 4.85 8.55 7.89 12.34 3.29 2 3.46 6.57 6.64 8.48 4.39 3.18 2.85-.35 1.39-3.08-3-8.86-8.93-18-18.64-20.65 12.54-.59 24.46 2.86 36.35 6.36 12.29 4-4.63-3.8-8-3.85 2.63-3-29.15-4.55-32.05-3 15.05-9.11 34.84-2.93 48.87 5.43 1.22 1 1.55-.24.43-1-3.39-3.81-8.52-4.22-12.31-7.06-2-.85-3.28-3.51-5.31-3.72-3.2-.2-3.19-2-5-1.81-3.61.33-2.65-1.09-4.29-1.08-4.51 1.42-9.33 1.14-13.66 3.16 10.09-6.52 23.61-2.35 34.82-5.4 2.26-.77 20.91 4.08 18 1.07Z" class="cls-3"/><path d="M462.15 544.22c2.41-3.85 6.31-6.23 10.35-8.08q-4.98 4.29-10.35 8.08ZM465.57 536a96.33 96.33 0 0 1 11.88-10.76A43 43 0 0 1 465.57 536ZM477 520.63c2.4-1.88 4.92-3.62 7.39-5.4-5.24 5.93-11.82 10.33-17.76 15.64A65.22 65.22 0 0 1 477 520.63Z" class="cls-1"/><path d="M831 540.21c-19.48-5.45-43.37-4.89-60.12 7.43 10.38-12.15 24.34-14.2 38.28-16.56-6.33-1.32-13.86-.41-20 1.57 6.81-5.06 1-4.12-2.77-1 .78-2 1.83-5 .88-7 6.78-2.94 11.88-8.41 18.1-12.16 1.77-1.2 5.07-1.49 5.81-3.61-3.14-1.4-7.6 2.25-11.32 1.56 7.37-5.94-9.66.21-11 2.87-7.71 3.61-12 13.2-18.65 18.82 2.06-11.39 16.4-29.61 15.57-30.29s-9 7.93-11.9 11.5c1-3.89 6.78-9.55 6.17-10.31s-7.12 5.35-9.71 8.93c2-5.84 8.37-7.79 10.81-13 2.14-9.89 3.33-14.65-5.27-4.19-1.34 1.61-.44 4.32-1.8 5.91 1.35-7.65-3.47 1.64-5.73 3-.22-2.84.26-7.4-3-8.57-.43-6-5.33 3.08-4.87 7-6.11-9.19 4.11 13.84 2.39 20.33-3.42-9.51-9.22-18.3-14.08-27.5-.74-1.46-2.2-.52-3.24-2.61-.32-.64-1.29-1.54-1.79-1-2.42 4.8 7.12 17.14 8.29 23.44-8.31-7.16 3.72 11.18 4.88 13.52-2.87-.65 2.7 6.64 3 8.06-2.63.18-2.33-4.37-5.11-4.28-.56-.34-.57-1.14-.84-1.73-.58-1.27-2.31-1.54-3.15-2.64-.57-1-1.87-2.45-1.57-.65-2-2.31-3.67-4.65-6.87-5.43-4.69-1.82-15-10.55-12.88-5.25-2.86-2.52-4.16-.71-1.37 1.43 7.2 5.46 16.66 8.41 22.1 16-7.8-5.45-16.43-12.16-26.11-11.69-.71-.45-2.43-.81-2.26.49 11.86 6.3 29.5 8.92 35 23.09-7.38-6.62-35.59-8.23-37.72-6.35-3.37.16-9.23-.13-9.39 1.12 3.81 2.23 23.28.57 28.89 1.53 4.34 0-.88.72 8.67 1.44a16.37 16.37 0 0 1 7.07 2.25c-11.15-1.84-28.52-2.6-42 1.61-10.51 1.76-9.31 4.17-9.31 4.17-30.62 16.32 39.63-17.93 56.16-1-10.17-6-23.88 2-24.85 2-5.78.08-4.75 1.92-5.22 2-2.65.48-1.48 1.6-2.33 1.77-6.58 1.28-5 2.79-5.78 3.29-6.66 4.25-6.26 5.62-7.14 8.91-.68 2.54-6.58 5.94-5.62 6.82 7.7-3.91 29.52-30.77 49-25.21-2.26-1.62-32.61 10.22-33 14.93-.08.89-5.53 3.38-8.1 5.06s-2.65 4.5-3.7 6.91-4.33 5.69-3.69 5.94c.54.74 23.4-25.9 29.94-25.45-2.51.5-20.73 15.94-18.7 19.59 1 .8 5.3-6.35 9.31-10.68s10.6-7.79 10.6-7.79c.54 0-19.74 18.38-15 20.23-3.58 5.75-.59 5.66 2.24-1.28 3-6.08 6.81-7.19 10.09-12.92-1 7.44 11.34-20.33 22.81-12.67-8.65 1-21.74 39-21.26 40.68 1.29.56 1.85-3.21 3.37-5.62 7.7-9.84 5.6-27.1 17.91-34.32 10 52.78-1.91 228.78 1.12 277.14-.64 12.19 7.06 5.14 7.06 5.14-2.56-58.35 1.44-223.26.36-280.46 5.11 6.55 5.09 15.51 9.3 22.6 1.13 5.46 1.14 10.87 4.67 15.24 5.41 4.78-3-23.19-4.7-24.86a142.53 142.53 0 0 0-8.54-14.13c.43-3.18 4.45-.81 6.43.7 4.24 2.94 4.86 8.55 7.9 12.34 3.28 2 3.45 6.57 6.64 8.48 4.38 3.18 2.85-.35 1.38-3.08-3-8.86-8.93-18-18.63-20.65 12.53-.59 24.46 2.86 36.35 6.36 12.28 4-4.64-3.8-8-3.85 2.63-3-29.15-4.55-32.05-3 15.05-9.11 34.85-2.93 48.87 5.43 1.22 1 1.55-.24.43-1-3.38-3.81-8.51-4.22-12.31-7.06-2-.85-3.28-3.51-5.31-3.72-3.19-.2-3.19-2-5-1.81-3.61.33-2.66-1.09-4.3-1.08-4.51 1.42-9.33 1.14-13.65 3.16 10.08-6.52 23.61-2.35 34.82-5.4 2.32-.77 20.97 4.08 18.04 1.07Z" class="cls-3"/><path d="M770.81 544.22c2.4-3.85 6.3-6.23 10.34-8.08q-4.96 4.29-10.34 8.08ZM774.22 536a96.42 96.42 0 0 1 11.89-10.76A43 43 0 0 1 774.22 536ZM785.63 520.63c2.4-1.88 4.92-3.62 7.4-5.4-5.25 5.93-11.83 10.33-17.76 15.64a65.58 65.58 0 0 1 10.36-10.24Z" class="cls-1"/><path d="M353.36 540.21c-19.48-5.45-43.37-4.89-60.12 7.43 10.37-12.15 24.33-14.2 38.28-16.56-6.33-1.32-13.86-.41-20 1.57 6.8-5.06 1-4.12-2.77-1 .77-2 1.82-5 .87-7 6.79-2.94 11.89-8.41 18.11-12.16 1.76-1.2 5.07-1.49 5.8-3.61-3.13-1.4-7.59 2.25-11.31 1.56 7.36-5.94-9.67.21-11 2.87-7.7 3.61-12 13.2-18.64 18.82 2.05-11.39 16.4-29.61 15.57-30.29s-8.95 7.93-11.9 11.5c.95-3.89 6.77-9.55 6.17-10.31s-7.12 5.35-9.72 8.93c2-5.84 8.37-7.79 10.81-13 2.14-9.89 3.33-14.65-5.26-4.19-1.34 1.61-.44 4.32-1.8 5.91 1.35-7.65-3.48 1.64-5.74 3-.22-2.84.26-7.4-3-8.57-.42-6-5.32 3.08-4.86 7-6.12-9.19 4.1 13.84 2.38 20.33-3.41-9.51-9.21-18.3-14.07-27.5-.74-1.46-2.21-.52-3.25-2.61-.32-.64-1.28-1.54-1.79-1-2.41 4.8 7.12 17.14 8.29 23.44-8.3-7.16 3.73 11.18 4.88 13.52-2.86-.65 2.7 6.64 3 8.06-2.63.18-2.33-4.37-5.1-4.28-.57-.34-.57-1.14-.85-1.73-.57-1.27-2.3-1.54-3.15-2.64-.57-1-1.86-2.45-1.56-.65-2-2.31-3.67-4.65-6.88-5.43-4.68-1.82-15-10.55-12.88-5.25-2.86-2.52-4.15-.71-1.37 1.43 7.21 5.46 16.67 8.41 22.1 16-7.79-5.45-16.42-12.16-26.1-11.69-.71-.45-2.44-.81-2.27.49 11.86 6.3 29.5 8.92 35.06 23.09-7.38-6.62-35.6-8.23-37.73-6.35-3.37.16-9.23-.13-9.39 1.12 3.82 2.23 23.29.57 28.9 1.53 4.33 0-.88.72 8.67 1.44a16.3 16.3 0 0 1 7.06 2.25c-11.14-1.84-28.51-2.6-42 1.61-10.52 1.76-9.31 4.17-9.31 4.17-30.63 16.32 39.63-17.93 56.16-1-10.17-6-23.88 2-24.86 2-5.78.08-4.74 1.92-5.21 2-2.65.48-1.48 1.6-2.33 1.77-6.58 1.28-5 2.79-5.78 3.29-6.66 4.25-6.26 5.62-7.15 8.91-.68 2.54-6.58 5.94-5.61 6.82 7.69-3.91 29.51-30.77 49-25.21-2.26-1.62-32.61 10.22-33 14.93-.08.89-5.54 3.38-8.11 5.06s-2.65 4.5-3.69 6.91-4.33 5.69-3.69 5.94c.53.74 23.4-25.9 29.94-25.45-2.52.5-20.74 15.94-18.7 19.59 1 .8 5.29-6.35 9.31-10.68s10.59-7.79 10.59-7.79c.54 0-19.73 18.38-15 20.23-3.57 5.75-.58 5.66 2.25-1.28 3-6.08 6.81-7.19 10.09-12.92-1 7.44 11.34-20.33 22.81-12.67-8.65 1-21.75 39-21.26 40.68 1.28.56 1.84-3.21 3.37-5.62 7.7-9.84 5.59-27.1 17.91-34.32 10 52.78-1.92 228.78 1.12 277.14-.64 12.19 7.06 5.14 7.06 5.14-2.57-58.35 1.44-223.26.35-280.46 5.12 6.55 5.09 15.51 9.31 22.6 1.13 5.46 1.13 10.87 4.67 15.24 5.4 4.78-3.05-23.19-4.7-24.86a146.46 146.46 0 0 0-8.54-14.13c.43-3.18 4.45-.81 6.43.7 4.24 2.94 4.85 8.55 7.89 12.34 3.29 2 3.46 6.57 6.64 8.48 4.39 3.18 2.85-.35 1.39-3.08-3-8.86-8.93-18-18.64-20.65 12.54-.59 24.46 2.86 36.35 6.36 12.29 4-4.63-3.8-8-3.85 2.63-3-29.15-4.55-32.05-3 15.05-9.11 34.84-2.93 48.87 5.43 1.22 1 1.55-.24.43-1-3.39-3.81-8.52-4.22-12.31-7.06-2-.85-3.28-3.51-5.31-3.72-3.2-.2-3.19-2-5-1.81-3.61.33-2.65-1.09-4.29-1.08-4.51 1.42-9.33 1.14-13.66 3.16 10.09-6.52 23.61-2.35 34.82-5.4 2.26-.77 20.91 4.08 18 1.07Z" class="cls-3"/><path d="M293.15 544.22c2.41-3.85 6.31-6.23 10.35-8.08q-4.98 4.29-10.35 8.08ZM296.57 536a96.33 96.33 0 0 1 11.88-10.76A43 43 0 0 1 296.57 536ZM308 520.63c2.41-1.88 4.92-3.62 7.4-5.4-5.24 5.93-11.82 10.33-17.76 15.64A65.58 65.58 0 0 1 308 520.63Z" class="cls-1"/><path d="M173.89 540.21c-19.48-5.45-43.37-4.89-60.12 7.43 10.38-12.15 24.33-14.2 38.28-16.56-6.33-1.32-13.86-.41-20.05 1.57 6.81-5.06 1-4.12-2.77-1 .77-2 1.83-5 .88-7 6.78-2.94 11.88-8.41 18.1-12.16 1.77-1.2 5.07-1.49 5.81-3.61-3.14-1.4-7.6 2.25-11.32 1.56 7.37-5.94-9.66.21-11 2.87-7.71 3.61-12 13.2-18.65 18.82 2.06-11.39 16.4-29.61 15.57-30.29s-8.95 7.93-11.9 11.5c1-3.89 6.78-9.55 6.17-10.31s-7.12 5.35-9.71 8.93c2-5.84 8.37-7.79 10.8-13 2.15-9.89 3.34-14.65-5.26-4.19-1.34 1.61-.44 4.32-1.8 5.91 1.35-7.65-3.47 1.64-5.73 3-.23-2.84.26-7.4-3-8.57-.43-6-5.33 3.08-4.87 7-6.11-9.19 4.11 13.84 2.39 20.33-3.42-9.51-9.22-18.3-14.08-27.5-.74-1.46-2.2-.52-3.25-2.61-.31-.64-1.28-1.54-1.78-1-2.42 4.8 7.12 17.14 8.29 23.44-8.31-7.16 3.72 11.18 4.87 13.52-2.86-.65 2.71 6.64 3 8.06-2.63.18-2.34-4.37-5.11-4.28-.56-.34-.57-1.14-.84-1.73-.58-1.27-2.31-1.54-3.15-2.64-.58-1-1.87-2.45-1.57-.65-2-2.31-3.67-4.65-6.88-5.43-4.68-1.82-15-10.55-12.87-5.25-2.86-2.52-4.16-.71-1.38 1.43 7.21 5.46 16.67 8.41 22.11 16-7.75-5.52-16.38-12.23-26.07-11.8-.71-.45-2.44-.81-2.26.49 11.85 6.3 29.5 8.92 35.05 23.09-7.38-6.62-35.59-8.23-37.72-6.35-3.38.16-9.23-.13-9.4 1.12 3.82 2.23 23.29.57 28.9 1.53 4.34 0-.88.72 8.67 1.44a16.3 16.3 0 0 1 7.06 2.25c-11.14-1.84-28.51-2.6-42 1.61-10.48 1.82-9.3 4.21-9.3 4.21-30.62 16.32 39.63-17.93 56.16-1-10.17-6-23.88 2-24.85 2-5.78.08-4.75 1.92-5.22 2-2.65.48-1.48 1.6-2.33 1.77-6.58 1.28-5 2.79-5.78 3.29-6.66 4.25-6.26 5.62-7.14 8.91-.68 2.54-6.58 5.94-5.62 6.82 7.7-3.91 29.52-30.77 49-25.21C98 548.4 67.6 560.24 67.21 565c-.08.89-5.54 3.38-8.1 5.06s-2.65 4.5-3.7 6.91-4.33 5.69-3.69 5.94c.54.74 23.4-25.9 29.94-25.45-2.51.5-20.73 15.94-18.7 19.59 1 .8 5.3-6.35 9.31-10.68s10.6-7.79 10.6-7.79c.54 0-19.74 18.38-15 20.23-3.58 5.75-.59 5.66 2.24-1.28 3-6.08 6.81-7.19 10.09-12.92-1 7.44 11.34-20.33 22.81-12.67-8.65 1-21.74 39-21.26 40.68 1.29.56 1.85-3.21 3.37-5.62 7.7-9.84 5.6-27.1 17.91-34.32 10 52.78-1.91 228.78 1.12 277.14-.64 12.19 7.06 5.14 7.06 5.14-2.56-58.35 1.44-223.26.36-280.46 5.11 6.55 5.09 15.51 9.3 22.6 1.13 5.46 1.13 10.87 4.67 15.24 5.41 4.78-3-23.19-4.7-24.86a142.53 142.53 0 0 0-8.54-14.13c.43-3.18 4.45-.81 6.43.7 4.24 2.94 4.86 8.55 7.89 12.34 3.29 2 3.46 6.57 6.65 8.48 4.38 3.18 2.85-.35 1.38-3.08-3-8.86-8.93-18-18.64-20.65 12.54-.59 24.47 2.86 36.36 6.36 12.28 4-4.64-3.8-8-3.85 2.63-3-29.15-4.55-32.05-3 15-9.11 34.85-2.93 48.87 5.43 1.22 1 1.55-.24.43-1-3.38-3.81-8.51-4.22-12.31-7.06-2-.85-3.28-3.51-5.31-3.72-3.19-.2-3.19-2-5-1.81-3.61.33-2.66-1.09-4.3-1.08-4.51 1.42-9.33 1.14-13.65 3.16 10.08-6.52 23.61-2.35 34.82-5.4 2.29-.8 20.94 4.05 18.02 1.04Z" class="cls-3"/><path d="M113.69 544.22c2.4-3.85 6.3-6.23 10.34-8.08q-4.96 4.29-10.34 8.08ZM117.1 536a96.42 96.42 0 0 1 11.9-10.74A43.15 43.15 0 0 1 117.1 536ZM128.51 520.63c2.4-1.88 4.92-3.62 7.4-5.4-5.25 5.93-11.83 10.33-17.76 15.64a65.58 65.58 0 0 1 10.36-10.24Z" class="cls-1"/></g></svg>