<svg xmlns="http://www.w3.org/2000/svg" id="music" viewBox="0 0 325 325"><defs><linearGradient id="linear-gradient" x1="51.72" x2="51.72" y1="-360.02" y2="-274.01" gradientTransform="matrix(1 0 0 -1 0 -136)" gradientUnits="userSpaceOnUse"><stop offset="0" stop-color="#f2e6da"/><stop offset="1" stop-color="#bdcfd6"/></linearGradient><linearGradient id="linear-gradient-2" x1="232.1" x2="232.1" y1="-378.12" y2="-248.33" gradientTransform="matrix(1 0 0 -1 0 -136)" gradientUnits="userSpaceOnUse"><stop offset=".23" stop-color="#eaba9b"/><stop offset=".49" stop-color="#ebb492"/><stop offset=".94" stop-color="#eda478"/><stop offset="1" stop-color="#eda174"/></linearGradient><style>.cls-7{fill:#dd8b66}</style></defs><g id="sky"><path d="M-373.39-494H477v704.6h-850.39z" style="fill:#4d6666"/><path d="M-373.39-494H477v704.6h-850.39z" style="fill:#bdcfd6"/><path d="M-373.7 136.39h850.85v82.46H-373.7z" style="fill:url(#linear-gradient)"/></g><g id="sun"><path d="M232.11 32a177.52 177.52 0 0 1 140.3 286.24c-32.47 41.84-243.85 44-276.41 5.2A177.51 177.51 0 0 1 232.11 32Z" style="fill-rule:evenodd;fill:url(#linear-gradient-2)"/><circle cx="230.11" cy="210.5" r="55" style="fill:#f2e6da"/><circle cx="230.11" cy="210.5" r="3.5" style="fill:#eda174"/><path d="M76.61 209c0-84.92 69.08-154 154-154s154 69.08 154 154c0 21.47-4.42 40.3-12.4 56.45h2.23c7.83-16.21 12.17-35 12.17-56.45 0-86-70-156-156-156s-156 70-156 156c0 21.4 4.34 40.24 12.17 56.45H89C81 249.3 76.61 230.47 76.61 209Z" class="cls-7"/><path d="M102.86 209a127.75 127.75 0 1 1 242.33 56.45h2.23A129 129 0 0 0 360.36 209c0-71.54-58.21-129.75-129.75-129.75S100.86 137.46 100.86 209a128.82 128.82 0 0 0 12.94 56.45h2.2A126.91 126.91 0 0 1 102.86 209Z" class="cls-7"/><path d="M129.11 209a101.5 101.5 0 1 1 185.81 56.45h2.4a103.5 103.5 0 1 0-173.42 0h2.4A100.82 100.82 0 0 1 129.11 209Z" class="cls-7"/></g><g id="water"><path d="M-373.39 210H477v146.39h-850.39z" style="fill:#95bfd8"/><path d="M285.22 210H175c-.68 48.8-1 97.6-.7 146.39h111.36c.62-85.89-.14-127.91-.44-146.39Z" style="fill:#adcadb"/></g></svg>