<svg xmlns="http://www.w3.org/2000/svg" id="Notes" width="30cm" height="30cm" viewBox="0 0 850.39 850.39"><defs><style>.cls-12{fill:#f6a450}.cls-14{fill:#ffd992}</style></defs><path id="sky" d="M0 0h850.39v850.39H0z" style="fill:#fff0c7"/><path id="mountain" d="M.63 613.57h850v-60c0-19.91.25-76.7.25-96.61 0-18.44-.25 0-.25-18.44-40 27-206 48-275 25s-86-22-127-22-157.28-20.83-222-59c-17.42-10.27-31.85-14.76-45.25-15.24-16.59-.6-31.6 4.94-48.75 13.24-19.39 9.39-132 53-132 53v180Z" style="fill:#fee8aa"/><g id="hills"><path d="M0 567s120 9 222 0 178 14 306 13 236.39-13 322.39 5v50.55L0 635Z" style="fill:#fce399"/><path d="m0 669 302.4 2.87 12.6.13q267.5 0 535.39.35v-65.24C775.39 618.11 603 626 446 609c-50.31-5.45-114.27-8.43-178-10-135.1-3.26-268 .09-268 .09V669Z" style="fill:#ffdb82"/><path d="M0 743.08c184.7 8.39 368.91 16.37 553.61 24.77L601 770c85.67-10.33 163.73-20.2 249.39-30.54v-92.77S827 649 722 651c-36.85.7-84.79-1.43-140-3.84-102-4.47-228.83-9.9-356-.16-207.86 15.91-226-9-226-9 .12 24.3-.12 22.34 0 46.64.05 10.59 0 47.84 0 58.44Z" style="fill:#f7cd6c"/><path d="M0 850.39h850.39v-122S677.5 759.5 556.5 754.5s-274-36-406-39l-11.93-.26C17.4 712.68 0 715.79 0 715.79c-.14 20.28.11 77.75 0 98-.22 26.75.19 9.89 0 36.6Z" style="fill:#f69a4d"/></g><path id="shadow" d="M617.43 755.06S656 700 674 678s26-27 35-27 39.5-.5 39.5-.5 8-19 28-35c0 0-8.5 9.5-15.5 34.5l-12.5.5s-19.67 3.88-66.67 99.88c0 0-26.25 2.24-45.25 3.24Z" style="fill:#dc8c47"/><path d="M638.18 753.53s33 1.86 98 96.86H596.9s-32-89.15-64-97.15c0 0 28.72 1.72 57.94 1.56s47.34-1.27 47.34-1.27Z" style="fill:#c97e45"/><g id="pencil"><path d="M777 0v538.43a14.78 14.78 0 0 1 12-6.43 13 13 0 0 1 12 8V0Z" style="fill:#fad568"/><path d="m800.96 539.84-1.5-299.65V-.16h1.5v540z" style="fill:#ffefc7"/><path d="M753 0v537s4-7 12-6 11 9 11 9a12.91 12.91 0 0 1 1-1.57V0Z" style="fill:#f4b44e"/><path d="M777 0h-24v345.21c2.74 16.19 14.63 96.11 24 192.79Z" class="cls-12"/><path d="M753.03.03h1.5v537h-1.5z" class="cls-12"/><path d="M787.38 582h-20.35l9.97 32 10.38-32z" style="fill:none"/><path d="M801 540s-2-8-12-8-12 6-12 6-4.54-6.36-12-7c-8-.69-11 4-12 6l14 45h20.35Z" class="cls-14"/><path d="M765 531c-8-.69-11 4-12 6l14 45h8.7c.11-14.7 1.13-29.13 1.25-44-.14-.27-4.64-6.37-11.95-7Z" style="fill:#ffbc7c"/><path d="M801 540s-2-8-12-8-12 6-12 6c-.12 14.89-1.14 29.32-1.25 44h11.65Z" class="cls-14"/><path d="M783.84 582h3.54L801 540s-12.47 27-17.16 42Z" style="fill:#ffc886"/><path d="M787.38 582h-20.35l9.97 32 10.38-32z" style="fill:#dd8d48"/><path d="M791.25 531.93a16.64 16.64 0 0 0-5.5 0 14.16 14.16 0 0 0-5.2 1.92 11.44 11.44 0 0 0-3.59 3.54 20.23 20.23 0 0 0-5.09-4.41 15.39 15.39 0 0 0-6.87-2.25 14 14 0 0 0-7.09 1.18A10.61 10.61 0 0 0 753 537a10.75 10.75 0 0 1 5.06-4.78 13.86 13.86 0 0 1 6.89-.94 15.72 15.72 0 0 1 6.57 2.27 19.43 19.43 0 0 1 5.18 4.67.4.4 0 0 0 .12.1.38.38 0 0 0 .51-.15 10.67 10.67 0 0 1 3.59-3.73 13.53 13.53 0 0 1 4.93-1.86 20.16 20.16 0 0 1 5.32-.17 13.76 13.76 0 0 1 5.13 1.56 12 12 0 0 0-5.05-2.04Z" class="cls-12"/></g></svg>