<svg xmlns="http://www.w3.org/2000/svg" id="Recipe" viewBox="0 0 144.39 144.39"><defs><style>.cls-1{fill:#feb28a}.cls-3{fill:#f27e5f}.cls-6{fill:#dae3cf}.cls-8{fill:#94b699}.cls-10{fill:#a8c9ad}</style></defs><path id="background" d="M-706-218h850.49v850.4H-706z" class="cls-1"/><g id="floating_food_elements" data-name="floating food elements"><path d="M92.79.91c-1.59-3 13.21-14 32.31-24.19s35.9-16.07 37.47-13.1c.29.54 2.36 3.68 2.36 3.68s-18.48 11.85-34.07 20.19C114.57-3.81 94.51 4.93 94.51 4.93S93 1.35 92.79.91Z" style="fill:#bc5c42"/><ellipse cx="129.72" cy="-13.87" class="cls-3" rx="39.92" ry="6.1" transform="rotate(-28.12 129.716 -13.873)"/><circle cx="38.68" cy="69.46" r="15.09" class="cls-3"/><circle cx="144" cy="138.17" r="15.09" class="cls-3"/><path d="m30.17 143.51-.08.2a.62.62 0 0 1-.8.39l-13.49-4.72a.64.64 0 0 1-.39-.82l.08-.21a.62.62 0 0 1 .8-.38l13.49 4.72a.63.63 0 0 1 .4.8Z" style="fill:#dddfca"/><path d="m-13 7.55-.12-.19a.64.64 0 0 1 .18-.88l13.17-9a.65.65 0 0 1 .89.18l.12.19a.64.64 0 0 1-.18.88l-13.17 9a.65.65 0 0 1-.89-.18Z" style="fill:#b3d1c7"/><path d="M43.74 112.68c-.26.17-.53.33-.8.47a1.67 1.67 0 0 0 .8-.47Z" class="cls-6"/><path d="M33.6 94.74a2.38 2.38 0 0 1-.07-2.17 1.64 1.64 0 0 1 2.27-.13 5.28 5.28 0 0 1 1.4 2.11c2.37 5.1 6.13 9.66 7.15 15.18a4.48 4.48 0 0 1 0 2.06 1.83 1.83 0 0 1-1.42 1.36c-1.11.14-2.84-2.27-3.35-3.26-2.79-5.33-3.98-9.47-5.98-15.15Z" style="fill:#7ea788"/><path d="M33.53 92.57a1.09 1.09 0 0 1 .33-.27c-.18.07-.31.16-.33.27Z" class="cls-6"/><path d="M124.23 74.07a11.51 11.51 0 0 0-5-7.73 8.9 8.9 0 0 0 2.58-7.7 12.92 12.92 0 0 0-3.91-7.32 6.35 6.35 0 0 1-1.11-1.26 6.19 6.19 0 0 1-.56-2.36c-.65-5.19-3.94-10.2-8.84-12-1.08-.41-2.22-.66-3.29-1.09a29.25 29.25 0 0 0-3.69-1.61A7 7 0 0 0 97 33a7.48 7.48 0 0 0-5.12-3 11.65 11.65 0 0 0-6 .88 13.21 13.21 0 0 0-17.85-5 17.67 17.67 0 0 1-2.39 1.28c-.67.26-1.38.38-2.06.6a7.15 7.15 0 0 0-4.14 3.39 6 6 0 0 0-.15 5.29 5 5 0 0 0-2.91 4.68 5 5 0 0 0-5.74 7.56 5.39 5.39 0 0 0 1.68 10.5 5 5 0 0 0 .91 7 4.86 4.86 0 0 0 .87.54c-.39 1.82-2.49 9.77-10.85 18.87-3.35 3.66-8.11 5.92-9.42 6.79a2.24 2.24 0 0 1 1.94.14 5.28 5.28 0 0 1 1.4 2.11l7.15 15.18a4.22 4.22 0 0 1 0 2.06 2.21 2.21 0 0 1-.62.89c3.42-2.3 6.35-7.94 18.27-14a36.54 36.54 0 0 1 23.2-3.15 5.23 5.23 0 0 0 4.51 2.79c.85 5.26 6.22 9.25 11.53 8.88a12.5 12.5 0 0 0 10.92-10.05 11.7 11.7 0 0 0 8.33-10.6 6.35 6.35 0 0 1 .17-1.74A6.45 6.45 0 0 1 121.9 83a11.55 11.55 0 0 0 2.33-8.93Zm-66.07-1L60 67l.35-.09a8.66 8.66 0 0 0 5.13-3.85c.2.3.42.59.63.86l.15.2c-2.91 3.32-8.18 9.21-8.1 9Z" class="cls-8"/><path d="M51.35 74a51 51 0 0 1-8.07 11.48c-3.35 3.66-8.11 5.92-9.42 6.79a2.24 2.24 0 0 1 1.94.14 5.28 5.28 0 0 1 1.4 2.11l7.15 15.18a4.48 4.48 0 0 1 0 2.06 2.21 2.21 0 0 1-.62.89c3.42-2.3 6.35-7.94 18.27-14A35.12 35.12 0 0 1 74.34 95 38.11 38.11 0 0 0 72 85c-2.44-8.93-11.46-12.59-20.65-11Z" style="fill:#c9d3ba"/><path d="M124.23 74.07a11.51 11.51 0 0 0-5-7.73 8.9 8.9 0 0 0 2.58-7.7 12.92 12.92 0 0 0-3.91-7.32 6.35 6.35 0 0 1-1.11-1.26 6.19 6.19 0 0 1-.56-2.36c-.65-5.19-3.94-10.2-8.84-12-1.08-.41-2.22-.66-3.29-1.09a29.25 29.25 0 0 0-3.69-1.61A7 7 0 0 0 97 33a7.48 7.48 0 0 0-5.12-3 11.65 11.65 0 0 0-6 .88 13.21 13.21 0 0 0-17.85-5 17.67 17.67 0 0 1-2.39 1.28c-.67.26-1.38.38-2.06.6a7.15 7.15 0 0 0-4.14 3.39 6 6 0 0 0-.15 5.29 5 5 0 0 0-2.91 4.68 5 5 0 0 0-5.74 7.56 5.39 5.39 0 0 0 1.68 10.5 5 5 0 0 0 .91 7 4.86 4.86 0 0 0 .87.54 32.46 32.46 0 0 1-2.78 7.39c9.19-1.62 18.21 2 20.65 11a37.86 37.86 0 0 1 2.35 10.07 37.33 37.33 0 0 1 10.86.46 5.23 5.23 0 0 0 4.51 2.79c.85 5.26 6.22 9.25 11.53 8.88a12.5 12.5 0 0 0 10.92-10.05 11.7 11.7 0 0 0 8.33-10.6 6.35 6.35 0 0 1 .17-1.74A6.36 6.36 0 0 1 121.9 83a11.55 11.55 0 0 0 2.33-8.93Z" class="cls-8"/><path d="M58.16 73.1 60 67l.35-.09a8.66 8.66 0 0 0 5.13-3.85c.2.3.42.59.63.86l.15.2c-2.91 3.32-8.18 9.21-8.1 8.98Z" class="cls-1"/><path d="M106.22 53.74a11.27 11.27 0 0 1-.06 1.16 10.05 10.05 0 0 0 .91-4.18c0-5.91-5.13-10.7-11.46-10.7a11.64 11.64 0 0 0-9.54 4.79 12.88 12.88 0 0 1 7.81-2.61c6.82 0 12.34 5.17 12.34 11.54ZM68.62 33.54c6.71-2.23 14 .46 16.4 6a8.74 8.74 0 0 1 .42 1.25 8.37 8.37 0 0 0-.6-4.28c-2.19-5.15-9-7.65-15.22-5.58A11.49 11.49 0 0 0 62 38.22a13.26 13.26 0 0 1 6.62-4.68Z" class="cls-10"/><path d="M91.09 55.9a8.39 8.39 0 0 1-.06 1 9.35 9.35 0 0 0 .82-3.83c0-5.5-4.77-10-10.65-10a10.84 10.84 0 0 0-8.92 4.52 11.94 11.94 0 0 1 7.32-2.46C86 45.17 91.09 50 91.09 55.9Z" class="cls-10"/><ellipse cx="102.31" cy="95.06" class="cls-10" rx="10.66" ry="9.96" transform="rotate(-84.51 102.308 95.056)"/><ellipse cx="104.86" cy="90.59" class="cls-8" rx="11.54" ry="10.78" transform="rotate(-84.29 104.864 90.59)"/><path d="M93.77 56.58a11 11 0 0 0-8.67 1.74 12 12 0 0 1 6.47-.39c6.2 1.32 10.23 7.09 9 12.88a9.67 9.67 0 0 1-.69 2.09 9.24 9.24 0 0 0 2.24-4.37c1.14-5.38-2.6-10.73-8.35-11.95ZM112.25 68.43c3.34 6.22 1.94 13.92-3.12 17.18a8.21 8.21 0 0 1-1.17.63 8.27 8.27 0 0 0 4.12-1.33c4.7-3 6-10.17 2.9-15.94a11.49 11.49 0 0 0-8.49-6.26 13.31 13.31 0 0 1 5.76 5.72Z" class="cls-10"/></g></svg>